<svg width="580" height="269" viewBox="0 0 580 269" version="1.1" xmlns="http://www.w3.org/2000/svg" xmlns:xlink="http://www.w3.org/1999/xlink">
<title>s1m1_cluster_sampling_v2</title>
<desc>Created using Figma</desc>
<g id="Canvas" transform="translate(2184 125)">
<rect x="-2184" y="-125" width="580" height="269" fill="#FFFFFF"/>
<g id="Arrow">
<use xlink:href="#path0_stroke" transform="matrix(1 -2.44929e-16 2.44929e-16 1 -1867 35)"/>
</g>
<g id="Picking randomly two clusters">
<use xlink:href="#path1_fill" transform="translate(-1856 -8)"/>
</g>
<g id="Population">
<use xlink:href="#path2_fill" transform="translate(-2094 -128)"/>
</g>
<g id="Sample">
<use xlink:href="#path3_fill" transform="translate(-1676 -128)"/>
</g>
<g id="Ellipse">
<use xlink:href="#path4_fill" transform="translate(-2184 -76)" fill="#009E73"/>
</g>
<g id="Ellipse">
<use xlink:href="#path4_fill" transform="translate(-2144 -76)"/>
</g>
<g id="Ellipse">
<use xlink:href="#path4_fill" transform="translate(-2184 -34)" fill="#D55E00"/>
</g>
<g id="Ellipse">
<use xlink:href="#path4_fill" transform="translate(-2144 -34)" fill="#009E73"/>
</g>
<g id="Ellipse">
<use xlink:href="#path4_fill" transform="translate(-2073 -76)" fill="#009E73"/>
</g>
<g id="Ellipse">
<use xlink:href="#path4_fill" transform="translate(-2033 -76)" fill="#E69F00"/>
</g>
<g id="Ellipse">
<use xlink:href="#path4_fill" transform="translate(-2073 -34)" fill="#D55E00"/>
</g>
<g id="Ellipse">
<use xlink:href="#path4_fill" transform="translate(-2033 -34)" fill="#CC79A7"/>
</g>
<g id="Ellipse">
<use xlink:href="#path4_fill" transform="translate(-1962 -76)" fill="#009E73"/>
</g>
<g id="Ellipse">
<use xlink:href="#path4_fill" transform="translate(-1922 -76)" fill="#0072B2"/>
</g>
<g id="Ellipse">
<use xlink:href="#path4_fill" transform="translate(-1962 -34)" fill="#E69F00"/>
</g>
<g id="Ellipse">
<use xlink:href="#path4_fill" transform="translate(-1922 -34)" fill="#E69F00"/>
</g>
<g id="Ellipse">
<use xlink:href="#path4_fill" transform="translate(-1962 53)" fill="#CC79A7"/>
</g>
<g id="Ellipse">
<use xlink:href="#path4_fill" transform="translate(-1922 53)" fill="#009E73"/>
</g>
<g id="Ellipse">
<use xlink:href="#path4_fill" transform="translate(-1962 95)"/>
</g>
<g id="Ellipse">
<use xlink:href="#path4_fill" transform="translate(-1922 95)" fill="#009E73"/>
</g>
<g id="Ellipse">
<use xlink:href="#path4_fill" transform="translate(-2073 53)" fill="#CC79A7"/>
</g>
<g id="Ellipse">
<use xlink:href="#path4_fill" transform="translate(-2033 53)"/>
</g>
<g id="Ellipse">
<use xlink:href="#path4_fill" transform="translate(-2073 95)" fill="#009E73"/>
</g>
<g id="Ellipse">
<use xlink:href="#path4_fill" transform="translate(-2033 95)" fill="#56B4E9"/>
</g>
<g id="Ellipse">
<use xlink:href="#path4_fill" transform="translate(-2184 53)" fill="#CC79A7"/>
</g>
<g id="Ellipse">
<use xlink:href="#path4_fill" transform="translate(-2144 53)" fill="#0072B2"/>
</g>
<g id="Ellipse">
<use xlink:href="#path4_fill" transform="translate(-2184 95)"/>
</g>
<g id="Ellipse">
<use xlink:href="#path4_fill" transform="translate(-2144 95)" fill="#D55E00"/>
</g>
<g id="Cluster 1">
<use xlink:href="#path5_fill" transform="translate(-2178 1)"/>
</g>
<g id="Cluster 2">
<use xlink:href="#path6_fill" transform="translate(-2068 1)"/>
</g>
<g id="Ellipse">
<use xlink:href="#path4_fill" transform="translate(-1674 53)" fill="#009E73"/>
</g>
<g id="Ellipse">
<use xlink:href="#path4_fill" transform="translate(-1634 53)" fill="#E69F00"/>
</g>
<g id="Ellipse">
<use xlink:href="#path4_fill" transform="translate(-1674 95)" fill="#D55E00"/>
</g>
<g id="Ellipse">
<use xlink:href="#path4_fill" transform="translate(-1634 95)" fill="#CC79A7"/>
</g>
<g id="Cluster 2">
<use xlink:href="#path6_fill" transform="translate(-1669 130)"/>
</g>
<g id="Cluster 3">
<use xlink:href="#path7_fill" transform="translate(-1955 1)"/>
</g>
<g id="Cluster 4">
<use xlink:href="#path8_fill" transform="translate(-2178 130)"/>
</g>
<g id="Cluster 5">
<use xlink:href="#path9_fill" transform="translate(-2068 130)"/>
</g>
<g id="Ellipse">
<use xlink:href="#path4_fill" transform="translate(-1674 -76)" fill="#CC79A7"/>
</g>
<g id="Ellipse">
<use xlink:href="#path4_fill" transform="translate(-1634 -76)"/>
</g>
<g id="Ellipse">
<use xlink:href="#path4_fill" transform="translate(-1674 -34)" fill="#009E73"/>
</g>
<g id="Ellipse">
<use xlink:href="#path4_fill" transform="translate(-1634 -34)" fill="#56B4E9"/>
</g>
<g id="Cluster 5">
<use xlink:href="#path9_fill" transform="translate(-1669 1)"/>
</g>
<g id="Cluster 6">
<use xlink:href="#path10_fill" transform="translate(-1955 130)"/>
</g>
</g>
<defs>
<path id="path0_stroke" d="M 160.707 0.707107C 161.098 0.316583 161.098 -0.316583 160.707 -0.707107L 154.343 -7.07107C 153.953 -7.46159 153.319 -7.46159 152.929 -7.07107C 152.538 -6.68054 152.538 -6.04738 152.929 -5.65685L 158.586 0L 152.929 5.65685C 152.538 6.04738 152.538 6.68054 152.929 7.07107C 153.319 7.46159 153.953 7.46159 154.343 7.07107L 160.707 0.707107ZM 0 1L 160 1L 160 -1L 0 -1L 0 1Z"/>
<path id="path1_fill" d="M 3.2041 11.9902L 3.2041 17L 1.5166 17L 1.5166 4.20312L 6.23633 4.20312C 7.63672 4.20312 8.73242 4.56055 9.52344 5.27539C 10.3203 5.99023 10.7188 6.93652 10.7188 8.11426C 10.7188 9.35645 10.3291 10.3145 9.5498 10.9883C 8.77637 11.6562 7.66602 11.9902 6.21875 11.9902L 3.2041 11.9902ZM 3.2041 10.6104L 6.23633 10.6104C 7.13867 10.6104 7.83008 10.3994 8.31055 9.97754C 8.79102 9.5498 9.03125 8.93457 9.03125 8.13184C 9.03125 7.37012 8.79102 6.76074 8.31055 6.30371C 7.83008 5.84668 7.1709 5.60938 6.33301 5.5918L 3.2041 5.5918L 3.2041 10.6104ZM 14.3838 17L 12.7578 17L 12.7578 7.49023L 14.3838 7.49023L 14.3838 17ZM 12.626 4.96777C 12.626 4.7041 12.7051 4.48144 12.8633 4.2998C 13.0273 4.11816 13.2676 4.02734 13.584 4.02734C 13.9004 4.02734 14.1406 4.11816 14.3047 4.2998C 14.4687 4.48144 14.5508 4.7041 14.5508 4.96777C 14.5508 5.23145 14.4687 5.45117 14.3047 5.62695C 14.1406 5.80273 13.9004 5.89062 13.584 5.89062C 13.2676 5.89062 13.0273 5.80273 12.8633 5.62695C 12.7051 5.45117 12.626 5.23145 12.626 4.96777ZM 20.8086 15.8486C 21.3887 15.8486 21.8955 15.6729 22.3291 15.3213C 22.7627 14.9697 23.0029 14.5303 23.0498 14.0029L 24.5879 14.0029C 24.5586 14.5479 24.3711 15.0664 24.0254 15.5586C 23.6797 16.0508 23.2168 16.4434 22.6367 16.7363C 22.0625 17.0293 21.4531 17.1758 20.8086 17.1758C 19.5137 17.1758 18.4824 16.7451 17.7148 15.8838C 16.9531 15.0166 16.5723 13.833 16.5723 12.333L 16.5723 12.0605C 16.5723 11.1348 16.7422 10.3115 17.082 9.59082C 17.4219 8.87012 17.9082 8.31055 18.541 7.91211C 19.1797 7.51367 19.9326 7.31445 20.7998 7.31445C 21.8662 7.31445 22.751 7.63379 23.4541 8.27246C 24.1631 8.91113 24.541 9.74023 24.5879 10.7598L 23.0498 10.7598C 23.0029 10.1445 22.7686 9.64063 22.3467 9.24805C 21.9307 8.84961 21.415 8.65039 20.7998 8.65039C 19.9736 8.65039 19.332 8.94922 18.875 9.54688C 18.4238 10.1387 18.1982 10.9971 18.1982 12.1221L 18.1982 12.4297C 18.1982 13.5254 18.4238 14.3691 18.875 14.9609C 19.3262 15.5527 19.9707 15.8486 20.8086 15.8486ZM 29.0703 12.5967L 28.0508 13.6602L 28.0508 17L 26.4248 17L 26.4248 3.5L 28.0508 3.5L 28.0508 11.665L 28.9209 10.6191L 31.8828 7.49023L 33.8604 7.49023L 30.1602 11.4629L 34.291 17L 32.3838 17L 29.0703 12.5967ZM 37.3057 17L 35.6797 17L 35.6797 7.49023L 37.3057 7.49023L 37.3057 17ZM 35.5479 4.96777C 35.5479 4.7041 35.627 4.48144 35.7852 4.2998C 35.9492 4.11816 36.1895 4.02734 36.5059 4.02734C 36.8223 4.02734 37.0625 4.11816 37.2266 4.2998C 37.3906 4.48144 37.4727 4.7041 37.4727 4.96777C 37.4727 5.23145 37.3906 5.45117 37.2266 5.62695C 37.0625 5.80273 36.8223 5.89062 36.5059 5.89062C 36.1895 5.89062 35.9492 5.80273 35.7852 5.62695C 35.627 5.45117 35.5479 5.23145 35.5479 4.96777ZM 41.4541 7.49023L 41.5068 8.68555C 42.2334 7.77148 43.1826 7.31445 44.3545 7.31445C 46.3643 7.31445 47.3779 8.44824 47.3955 10.7158L 47.3955 17L 45.7695 17L 45.7695 10.707C 45.7637 10.0215 45.6055 9.51465 45.2949 9.18652C 44.9902 8.8584 44.5127 8.69434 43.8623 8.69434C 43.335 8.69434 42.8721 8.83496 42.4736 9.11621C 42.0752 9.39746 41.7646 9.7666 41.542 10.2236L 41.542 17L 39.916 17L 39.916 7.49023L 41.4541 7.49023ZM 49.4609 12.166C 49.4609 10.6836 49.8037 9.50586 50.4893 8.63281C 51.1748 7.75391 52.083 7.31445 53.2139 7.31445C 54.374 7.31445 55.2793 7.72461 55.9297 8.54492L 56.0088 7.49023L 57.4941 7.49023L 57.4941 16.7715C 57.4941 18.002 57.1279 18.9717 56.3955 19.6807C 55.6689 20.3896 54.6904 20.7441 53.46 20.7441C 52.7744 20.7441 52.1035 20.5977 51.4473 20.3047C 50.791 20.0117 50.29 19.6104 49.9443 19.1006L 50.7881 18.125C 51.4854 18.9863 52.3379 19.417 53.3457 19.417C 54.1367 19.417 54.752 19.1943 55.1914 18.749C 55.6367 18.3037 55.8594 17.6768 55.8594 16.8682L 55.8594 16.0508C 55.209 16.8008 54.3213 17.1758 53.1963 17.1758C 52.083 17.1758 51.1807 16.7275 50.4893 15.8311C 49.8037 14.9346 49.4609 13.7129 49.4609 12.166ZM 51.0957 12.3506C 51.0957 13.4229 51.3154 14.2666 51.7549 14.8818C 52.1943 15.4912 52.8096 15.7959 53.6006 15.7959C 54.626 15.7959 55.3789 15.3301 55.8594 14.3984L 55.8594 10.0566C 55.3613 9.14844 54.6143 8.69434 53.6182 8.69434C 52.8271 8.69434 52.209 9.00195 51.7637 9.61719C 51.3184 10.2324 51.0957 11.1436 51.0957 12.3506ZM 69.5088 9.87207C 69.1631 9.8252 68.8584 9.80176 68.5947 9.80176C 67.6338 9.80176 67.0039 10.127 66.7051 10.7773L 66.7051 17L 64.165 17L 64.165 7.49023L 66.5645 7.49023L 66.6348 8.62402C 67.1445 7.75098 67.8506 7.31445 68.7529 7.31445C 69.0342 7.31445 69.2979 7.35254 69.5439 7.42871L 69.5088 9.87207ZM 75.9863 17C 75.8691 16.7715 75.7842 16.4873 75.7314 16.1475C 75.1162 16.833 74.3164 17.1758 73.332 17.1758C 72.4004 17.1758 71.627 16.9062 71.0117 16.3672C 70.4023 15.8281 70.0977 15.1484 70.0977 14.3281C 70.0977 13.3203 70.4697 12.5469 71.2139 12.0078C 71.9639 11.4688 73.0449 11.1963 74.457 11.1904L 75.626 11.1904L 75.626 10.6455C 75.626 10.2061 75.5117 9.85449 75.2832 9.59082C 75.0605 9.32715 74.7061 9.19531 74.2197 9.19531C 73.792 9.19531 73.4551 9.29785 73.209 9.50293C 72.9687 9.70801 72.8486 9.98926 72.8486 10.3467L 70.3086 10.3467C 70.3086 9.7959 70.4785 9.28613 70.8184 8.81738C 71.1582 8.34863 71.6387 7.98242 72.2598 7.71875C 72.8809 7.44922 73.5781 7.31445 74.3516 7.31445C 75.5234 7.31445 76.4521 7.61035 77.1377 8.20215C 77.8291 8.78809 78.1748 9.61426 78.1748 10.6807L 78.1748 14.8027C 78.1807 15.7051 78.3066 16.3877 78.5527 16.8506L 78.5527 17L 75.9863 17ZM 73.8857 15.2334C 74.2607 15.2334 74.6064 15.1514 74.9229 14.9873C 75.2393 14.8174 75.4736 14.5918 75.626 14.3105L 75.626 12.6758L 74.6768 12.6758C 73.4053 12.6758 72.7285 13.1152 72.6465 13.9941L 72.6377 14.1436C 72.6377 14.46 72.749 14.7207 72.9717 14.9258C 73.1943 15.1309 73.499 15.2334 73.8857 15.2334ZM 82.4639 7.49023L 82.543 8.58887C 83.2227 7.73926 84.1338 7.31445 85.2764 7.31445C 86.2842 7.31445 87.0342 7.61035 87.5264 8.20215C 88.0186 8.79395 88.2705 9.67871 88.2822 10.8564L 88.2822 17L 85.7422 17L 85.7422 10.918C 85.7422 10.3789 85.625 9.98926 85.3906 9.74902C 85.1562 9.50293 84.7666 9.37988 84.2217 9.37988C 83.5068 9.37988 82.9707 9.68457 82.6133 10.2939L 82.6133 17L 80.0732 17L 80.0732 7.49023L 82.4639 7.49023ZM 89.8203 12.1748C 89.8203 10.6924 90.1514 9.51172 90.8135 8.63281C 91.4814 7.75391 92.3926 7.31445 93.5469 7.31445C 94.4727 7.31445 95.2373 7.66016 95.8408 8.35156L 95.8408 3.5L 98.3896 3.5L 98.3896 17L 96.0957 17L 95.9727 15.9893C 95.3398 16.7803 94.5254 17.1758 93.5293 17.1758C 92.4102 17.1758 91.5107 16.7363 90.8311 15.8574C 90.1572 14.9727 89.8203 13.7451 89.8203 12.1748ZM 92.3604 12.3594C 92.3604 13.25 92.5156 13.9326 92.8262 14.4072C 93.1367 14.8818 93.5879 15.1191 94.1797 15.1191C 94.9648 15.1191 95.5186 14.7881 95.8408 14.126L 95.8408 10.373C 95.5244 9.71094 94.9766 9.37988 94.1973 9.37988C 92.9727 9.37988 92.3604 10.373 92.3604 12.3594ZM 99.9629 12.1572C 99.9629 11.2139 100.145 10.373 100.508 9.63477C 100.871 8.89648 101.393 8.3252 102.072 7.9209C 102.758 7.5166 103.552 7.31445 104.454 7.31445C 105.737 7.31445 106.783 7.70703 107.592 8.49219C 108.406 9.27734 108.86 10.3438 108.954 11.6914L 108.972 12.3418C 108.972 13.8008 108.564 14.9727 107.75 15.8574C 106.936 16.7363 105.843 17.1758 104.472 17.1758C 103.101 17.1758 102.005 16.7363 101.185 15.8574C 100.37 14.9785 99.9629 13.7832 99.9629 12.2715L 99.9629 12.1572ZM 102.503 12.3418C 102.503 13.2441 102.673 13.9355 103.013 14.416C 103.353 14.8906 103.839 15.1279 104.472 15.1279C 105.087 15.1279 105.567 14.8936 105.913 14.4248C 106.259 13.9502 106.432 13.1943 106.432 12.1572C 106.432 11.2725 106.259 10.5869 105.913 10.1006C 105.567 9.61426 105.081 9.37109 104.454 9.37109C 103.833 9.37109 103.353 9.61426 103.013 10.1006C 102.673 10.5811 102.503 11.3281 102.503 12.3418ZM 112.918 7.49023L 112.997 8.55371C 113.671 7.72754 114.582 7.31445 115.73 7.31445C 116.955 7.31445 117.796 7.79785 118.253 8.76465C 118.921 7.79785 119.873 7.31445 121.109 7.31445C 122.141 7.31445 122.908 7.61621 123.412 8.21973C 123.916 8.81738 124.168 9.71973 124.168 10.9268L 124.168 17L 121.619 17L 121.619 10.9355C 121.619 10.3965 121.514 10.0039 121.303 9.75781C 121.092 9.50586 120.72 9.37988 120.187 9.37988C 119.425 9.37988 118.897 9.74316 118.604 10.4697L 118.613 17L 116.073 17L 116.073 10.9443C 116.073 10.3936 115.965 9.99512 115.748 9.74902C 115.531 9.50293 115.162 9.37988 114.641 9.37988C 113.92 9.37988 113.398 9.67871 113.076 10.2764L 113.076 17L 110.536 17L 110.536 7.49023L 112.918 7.49023ZM 128.809 17L 126.26 17L 126.26 3.5L 128.809 3.5L 128.809 17ZM 134.46 13.4053L 136.218 7.49023L 138.942 7.49023L 135.119 18.4766L 134.908 18.9775C 134.34 20.2197 133.402 20.8408 132.096 20.8408C 131.727 20.8408 131.352 20.7852 130.971 20.6738L 130.971 18.749L 131.357 18.7578C 131.838 18.7578 132.195 18.6846 132.43 18.5381C 132.67 18.3916 132.857 18.1484 132.992 17.8086L 133.291 17.0264L 129.96 7.49023L 132.693 7.49023L 134.46 13.4053ZM 23.9463 26.1875L 23.9463 28.4902L 25.7217 28.4902L 25.7217 29.7471L 23.9463 29.7471L 23.9463 35.6445C 23.9463 36.0254 24.0254 36.3125 24.1836 36.5059C 24.3418 36.6934 24.6113 36.7871 24.9922 36.7871C 25.1797 36.7871 25.4375 36.752 25.7656 36.6816L 25.7656 38C 25.3379 38.1172 24.9219 38.1758 24.5176 38.1758C 23.791 38.1758 23.2432 37.9561 22.874 37.5166C 22.5049 37.0771 22.3203 36.4531 22.3203 35.6445L 22.3203 29.7471L 20.5889 29.7471L 20.5889 28.4902L 22.3203 28.4902L 22.3203 26.1875L 23.9463 26.1875ZM 36.0488 35.7588L 37.877 28.4902L 39.5029 28.4902L 36.7344 38L 35.416 38L 33.1045 30.793L 30.8545 38L 29.5361 38L 26.7764 28.4902L 28.3936 28.4902L 30.2656 35.6094L 32.4805 28.4902L 33.79 28.4902L 36.0488 35.7588ZM 40.7334 33.1572C 40.7334 32.2256 40.915 31.3877 41.2783 30.6436C 41.6475 29.8994 42.1572 29.3252 42.8076 28.9209C 43.4639 28.5166 44.2109 28.3145 45.0488 28.3145C 46.3437 28.3145 47.3896 28.7627 48.1865 29.6592C 48.9893 30.5557 49.3906 31.748 49.3906 33.2363L 49.3906 33.3506C 49.3906 34.2764 49.2119 35.1084 48.8545 35.8467C 48.5029 36.5791 47.9961 37.1504 47.334 37.5605C 46.6777 37.9707 45.9219 38.1758 45.0664 38.1758C 43.7773 38.1758 42.7314 37.7275 41.9287 36.8311C 41.1318 35.9346 40.7334 34.748 40.7334 33.2715L 40.7334 33.1572ZM 42.3682 33.3506C 42.3682 34.4053 42.6113 35.252 43.0977 35.8906C 43.5898 36.5293 44.2461 36.8486 45.0664 36.8486C 45.8926 36.8486 46.5488 36.5264 47.0352 35.8818C 47.5215 35.2314 47.7646 34.3232 47.7646 33.1572C 47.7646 32.1143 47.5156 31.2705 47.0176 30.626C 46.5254 29.9756 45.8691 29.6504 45.0488 29.6504C 44.2461 29.6504 43.5986 29.9697 43.1064 30.6084C 42.6143 31.2471 42.3682 32.1611 42.3682 33.3506ZM 59.709 36.8486C 60.2891 36.8486 60.7959 36.6729 61.2295 36.3213C 61.6631 35.9697 61.9033 35.5303 61.9502 35.0029L 63.4883 35.0029C 63.459 35.5479 63.2715 36.0664 62.9258 36.5586C 62.5801 37.0508 62.1172 37.4434 61.5371 37.7363C 60.9629 38.0293 60.3535 38.1758 59.709 38.1758C 58.4141 38.1758 57.3828 37.7451 56.6152 36.8838C 55.8535 36.0166 55.4727 34.833 55.4727 33.333L 55.4727 33.0605C 55.4727 32.1348 55.6426 31.3115 55.9824 30.5908C 56.3223 29.8701 56.8086 29.3105 57.4414 28.9121C 58.0801 28.5137 58.833 28.3145 59.7002 28.3145C 60.7666 28.3145 61.6514 28.6338 62.3545 29.2725C 63.0635 29.9111 63.4414 30.7402 63.4883 31.7598L 61.9502 31.7598C 61.9033 31.1445 61.6689 30.6406 61.2471 30.248C 60.8311 29.8496 60.3154 29.6504 59.7002 29.6504C 58.874 29.6504 58.2324 29.9492 57.7754 30.5469C 57.3242 31.1387 57.0986 31.9971 57.0986 33.1221L 57.0986 33.4297C 57.0986 34.5254 57.3242 35.3691 57.7754 35.9609C 58.2266 36.5527 58.8711 36.8486 59.709 36.8486ZM 67.083 38L 65.457 38L 65.457 24.5L 67.083 24.5L 67.083 38ZM 75.5645 37.0596C 74.9316 37.8037 74.0029 38.1758 72.7783 38.1758C 71.7646 38.1758 70.9912 37.8828 70.458 37.2969C 69.9307 36.7051 69.6641 35.832 69.6582 34.6777L 69.6582 28.4902L 71.2842 28.4902L 71.2842 34.6338C 71.2842 36.0752 71.8701 36.7959 73.042 36.7959C 74.2842 36.7959 75.1104 36.333 75.5205 35.4072L 75.5205 28.4902L 77.1465 28.4902L 77.1465 38L 75.5996 38L 75.5645 37.0596ZM 85.1621 35.4775C 85.1621 35.0381 84.9951 34.6982 84.6611 34.458C 84.333 34.2119 83.7559 34.001 82.9297 33.8252C 82.1094 33.6494 81.4561 33.4385 80.9697 33.1924C 80.4893 32.9463 80.1318 32.6533 79.8975 32.3135C 79.6689 31.9736 79.5547 31.5693 79.5547 31.1006C 79.5547 30.3213 79.8828 29.6621 80.5391 29.123C 81.2012 28.584 82.0449 28.3145 83.0703 28.3145C 84.1484 28.3145 85.0215 28.5928 85.6895 29.1494C 86.3633 29.7061 86.7002 30.418 86.7002 31.2852L 85.0654 31.2852C 85.0654 30.8398 84.875 30.4561 84.4941 30.1338C 84.1191 29.8115 83.6445 29.6504 83.0703 29.6504C 82.4785 29.6504 82.0156 29.7793 81.6816 30.0371C 81.3477 30.2949 81.1807 30.6318 81.1807 31.0479C 81.1807 31.4404 81.3359 31.7363 81.6465 31.9355C 81.957 32.1348 82.5166 32.3252 83.3252 32.5068C 84.1396 32.6885 84.7988 32.9053 85.3027 33.1572C 85.8066 33.4092 86.1787 33.7139 86.4189 34.0713C 86.665 34.4229 86.7881 34.8535 86.7881 35.3633C 86.7881 36.2129 86.4482 36.8955 85.7686 37.4111C 85.0889 37.9209 84.207 38.1758 83.123 38.1758C 82.3613 38.1758 81.6875 38.041 81.1016 37.7715C 80.5156 37.502 80.0557 37.127 79.7217 36.6465C 79.3936 36.1602 79.2295 35.6357 79.2295 35.0732L 80.8555 35.0732C 80.8848 35.6182 81.1016 36.0518 81.5059 36.374C 81.916 36.6904 82.4551 36.8486 83.123 36.8486C 83.7383 36.8486 84.2305 36.7256 84.5996 36.4795C 84.9746 36.2275 85.1621 35.8936 85.1621 35.4775ZM 91.1123 26.1875L 91.1123 28.4902L 92.8877 28.4902L 92.8877 29.7471L 91.1123 29.7471L 91.1123 35.6445C 91.1123 36.0254 91.1914 36.3125 91.3496 36.5059C 91.5078 36.6934 91.7773 36.7871 92.1582 36.7871C 92.3457 36.7871 92.6035 36.752 92.9316 36.6816L 92.9316 38C 92.5039 38.1172 92.0879 38.1758 91.6836 38.1758C 90.957 38.1758 90.4092 37.9561 90.04 37.5166C 89.6709 37.0771 89.4863 36.4531 89.4863 35.6445L 89.4863 29.7471L 87.7549 29.7471L 87.7549 28.4902L 89.4863 28.4902L 89.4863 26.1875L 91.1123 26.1875ZM 98.7412 38.1758C 97.4521 38.1758 96.4033 37.7539 95.5947 36.9102C 94.7861 36.0605 94.3818 34.9268 94.3818 33.5088L 94.3818 33.21C 94.3818 32.2666 94.5605 31.4258 94.918 30.6875C 95.2812 29.9434 95.7852 29.3633 96.4297 28.9473C 97.0801 28.5254 97.7832 28.3145 98.5391 28.3145C 99.7754 28.3145 100.736 28.7217 101.422 29.5361C 102.107 30.3506 102.45 31.5166 102.45 33.0342L 102.45 33.7109L 96.0078 33.7109C 96.0312 34.6484 96.3037 35.4072 96.8252 35.9873C 97.3525 36.5615 98.0205 36.8486 98.8291 36.8486C 99.4033 36.8486 99.8896 36.7314 100.288 36.4971C 100.687 36.2627 101.035 35.9521 101.334 35.5654L 102.327 36.3389C 101.53 37.5635 100.335 38.1758 98.7412 38.1758ZM 98.5391 29.6504C 97.8828 29.6504 97.332 29.8906 96.8867 30.3711C 96.4414 30.8457 96.166 31.5137 96.0605 32.375L 100.824 32.375L 100.824 32.252C 100.777 31.4258 100.555 30.7871 100.156 30.3359C 99.7578 29.8789 99.2187 29.6504 98.5391 29.6504ZM 108.937 29.9492C 108.69 29.9082 108.424 29.8877 108.137 29.8877C 107.07 29.8877 106.347 30.3418 105.966 31.25L 105.966 38L 104.34 38L 104.34 28.4902L 105.922 28.4902L 105.948 29.5889C 106.481 28.7393 107.237 28.3145 108.216 28.3145C 108.532 28.3145 108.772 28.3555 108.937 28.4375L 108.937 29.9492ZM 115.977 35.4775C 115.977 35.0381 115.81 34.6982 115.476 34.458C 115.147 34.2119 114.57 34.001 113.744 33.8252C 112.924 33.6494 112.271 33.4385 111.784 33.1924C 111.304 32.9463 110.946 32.6533 110.712 32.3135C 110.483 31.9736 110.369 31.5693 110.369 31.1006C 110.369 30.3213 110.697 29.6621 111.354 29.123C 112.016 28.584 112.859 28.3145 113.885 28.3145C 114.963 28.3145 115.836 28.5928 116.504 29.1494C 117.178 29.7061 117.515 30.418 117.515 31.2852L 115.88 31.2852C 115.88 30.8398 115.689 30.4561 115.309 30.1338C 114.934 29.8115 114.459 29.6504 113.885 29.6504C 113.293 29.6504 112.83 29.7793 112.496 30.0371C 112.162 30.2949 111.995 30.6318 111.995 31.0479C 111.995 31.4404 112.15 31.7363 112.461 31.9355C 112.771 32.1348 113.331 32.3252 114.14 32.5068C 114.954 32.6885 115.613 32.9053 116.117 33.1572C 116.621 33.4092 116.993 33.7139 117.233 34.0713C 117.479 34.4229 117.603 34.8535 117.603 35.3633C 117.603 36.2129 117.263 36.8955 116.583 37.4111C 115.903 37.9209 115.021 38.1758 113.938 38.1758C 113.176 38.1758 112.502 38.041 111.916 37.7715C 111.33 37.502 110.87 37.127 110.536 36.6465C 110.208 36.1602 110.044 35.6357 110.044 35.0732L 111.67 35.0732C 111.699 35.6182 111.916 36.0518 112.32 36.374C 112.73 36.6904 113.27 36.8486 113.938 36.8486C 114.553 36.8486 115.045 36.7256 115.414 36.4795C 115.789 36.2275 115.977 35.8936 115.977 35.4775Z"/>
<path id="path2_fill" d="M 3.7168 13.877L 2.65332 20L 0.633789 20L 3.35156 4.35938L 8.57227 4.37012C 10.1836 4.37012 11.4261 4.7998 12.2998 5.65918C 13.1735 6.51139 13.5495 7.64648 13.4277 9.06445C 13.2988 10.5612 12.7008 11.7393 11.6338 12.5986C 10.5739 13.458 9.17383 13.8877 7.43359 13.8877L 3.7168 13.877ZM 4.00684 12.1904L 7.4873 12.2012C 8.58301 12.2012 9.48177 11.9255 10.1836 11.374C 10.8854 10.8226 11.2972 10.0563 11.4189 9.0752C 11.5335 8.19434 11.3509 7.48177 10.8711 6.9375C 10.3913 6.38607 9.69303 6.09603 8.77637 6.06738L 5.07031 6.05664L 4.00684 12.1904ZM 20.2168 8.16211C 21.1908 8.17643 22.0251 8.44141 22.7197 8.95703C 23.4144 9.47266 23.9264 10.1852 24.2559 11.0947C 24.5924 11.9971 24.707 12.9854 24.5996 14.0596L 24.5781 14.2959C 24.4421 15.4274 24.1055 16.4515 23.5684 17.3682C 23.0312 18.2777 22.3366 18.9867 21.4844 19.4951C 20.6322 20.0036 19.6976 20.2435 18.6807 20.2148C 17.7139 20.2005 16.8796 19.9355 16.1777 19.4199C 15.4831 18.9043 14.9746 18.2025 14.6523 17.3145C 14.3301 16.4264 14.2155 15.4489 14.3086 14.3818C 14.416 13.1787 14.7419 12.0973 15.2861 11.1377C 15.8304 10.1781 16.5286 9.43685 17.3809 8.91406C 18.2402 8.38411 19.1855 8.13346 20.2168 8.16211ZM 16.2637 14.3926C 16.2135 14.8438 16.2135 15.3128 16.2637 15.7998C 16.3353 16.6449 16.5859 17.318 17.0156 17.8193C 17.4525 18.3206 18.0326 18.582 18.7559 18.6035C 19.4004 18.625 19.9948 18.4674 20.5391 18.1309C 21.0833 17.7871 21.5417 17.2715 21.9141 16.584C 22.2865 15.8965 22.5264 15.1338 22.6338 14.2959C 22.6911 13.637 22.7018 13.082 22.666 12.6309C 22.5801 11.7643 22.3187 11.0804 21.8818 10.5791C 21.445 10.0778 20.8649 9.81283 20.1416 9.78418C 19.139 9.7627 18.2868 10.1566 17.585 10.9658C 16.8831 11.7751 16.4499 12.835 16.2852 14.1455L 16.2637 14.3926ZM 36.5771 14.2422C 36.4339 15.4238 36.1152 16.4873 35.6211 17.4326C 35.127 18.3779 34.5146 19.0869 33.7842 19.5596C 33.0537 20.0251 32.2445 20.2471 31.3564 20.2256C 30.0101 20.1969 28.9788 19.7422 28.2627 18.8613L 27.2207 24.4688L 25.2764 24.4688L 28.0693 8.37695L 29.8311 8.36621L 29.6162 9.66602C 30.5758 8.63477 31.7253 8.13346 33.0645 8.16211C 34.1816 8.19075 35.0518 8.60254 35.6748 9.39746C 36.2979 10.1924 36.6273 11.2881 36.6631 12.6846C 36.6702 13.1429 36.6523 13.5869 36.6094 14.0166L 36.5771 14.2422ZM 34.665 14.0166L 34.7188 13.1143C 34.7188 12.0687 34.5182 11.2702 34.1172 10.7188C 33.7233 10.1602 33.1504 9.86654 32.3984 9.83789C 31.2741 9.80924 30.3037 10.3428 29.4873 11.4385L 28.5098 17.0137C 28.9466 18.0449 29.7308 18.5749 30.8623 18.6035C 31.8291 18.625 32.6491 18.249 33.3223 17.4756C 34.0026 16.695 34.4502 15.542 34.665 14.0166ZM 45.5254 18.8506C 44.6159 19.7887 43.4593 20.2435 42.0557 20.2148C 40.9456 20.1862 40.1221 19.7887 39.585 19.0225C 39.055 18.2562 38.8581 17.2106 38.9941 15.8857L 40.2402 8.37695L 42.1846 8.37695L 40.9277 15.918C 40.8919 16.2331 40.8848 16.541 40.9062 16.8418C 40.9421 17.3574 41.096 17.762 41.3682 18.0557C 41.6403 18.3493 42.0199 18.5068 42.5068 18.5283C 43.8962 18.5713 44.9704 18.0091 45.7295 16.8418L 47.1904 8.37695L 49.1348 8.37695L 47.1152 20L 45.2783 20L 45.5254 18.8506ZM 52.1318 20L 50.1982 20L 53.0557 3.5L 55 3.5L 52.1318 20ZM 62.4229 20C 62.3727 19.7923 62.3477 19.5882 62.3477 19.3877L 62.3799 18.7754C 61.3128 19.7637 60.1813 20.2435 58.9854 20.2148C 57.9613 20.2005 57.127 19.8783 56.4824 19.248C 55.8451 18.6107 55.555 17.8158 55.6123 16.8633C 55.6839 15.6315 56.221 14.6719 57.2236 13.9844C 58.2334 13.2897 59.5583 12.9424 61.1982 12.9424L 63.2285 12.9531L 63.3574 12.0293C 63.429 11.3346 63.293 10.7868 62.9492 10.3857C 62.6126 9.97754 62.1042 9.76628 61.4238 9.75195C 60.7578 9.73763 60.167 9.90234 59.6514 10.2461C 59.1429 10.5827 58.8314 11.0303 58.7168 11.5889L 56.7617 11.5996C 56.8262 10.9193 57.0911 10.3177 57.5566 9.79492C 58.0221 9.26497 58.6201 8.85677 59.3506 8.57031C 60.0811 8.27669 60.8366 8.13704 61.6172 8.15137C 62.8275 8.18001 63.7692 8.54883 64.4424 9.25781C 65.1156 9.95964 65.3984 10.8942 65.291 12.0615L 64.3457 17.8193L 64.292 18.6465C 64.2777 19.0404 64.3206 19.4307 64.4209 19.8174L 64.3994 20L 62.4229 20ZM 59.3721 18.4961C 59.9951 18.5104 60.5824 18.3636 61.1338 18.0557C 61.6924 17.7406 62.1722 17.3073 62.5732 16.7559L 62.9922 14.3604L 61.5205 14.3496C 60.2959 14.3496 59.3577 14.543 58.7061 14.9297C 58.0544 15.3164 57.6855 15.8643 57.5996 16.5732C 57.5352 17.1175 57.6605 17.5723 57.9756 17.9375C 58.2979 18.2956 58.7633 18.4818 59.3721 18.4961ZM 72.1768 5.5625L 71.6826 8.37695L 73.7988 8.37695L 73.5303 9.91309L 71.4248 9.91309L 70.2109 17.1426C 70.1895 17.3288 70.1859 17.5007 70.2002 17.6582C 70.2503 18.2168 70.5547 18.4961 71.1133 18.4961C 71.3496 18.4961 71.6647 18.4603 72.0586 18.3887L 71.9082 20.0107C 71.4427 20.1396 70.9701 20.2041 70.4902 20.2041C 69.7168 20.1898 69.1367 19.9069 68.75 19.3555C 68.3633 18.7969 68.2129 18.0485 68.2988 17.1104L 69.4805 9.91309L 67.4287 9.91309L 67.6973 8.37695L 69.749 8.37695L 70.2432 5.5625L 72.1768 5.5625ZM 76.2373 20L 74.3037 20L 76.3232 8.37695L 78.2568 8.37695L 76.2373 20ZM 77.8379 4.13379C 78.1673 4.11947 78.4395 4.21973 78.6543 4.43457C 78.8763 4.64225 78.9873 4.91797 78.9873 5.26172C 78.9801 5.59831 78.8691 5.87402 78.6543 6.08887C 78.4466 6.30371 78.1745 6.41829 77.8379 6.43262C 77.5013 6.44694 77.2256 6.35026 77.0107 6.14258C 76.7959 5.9349 76.6921 5.66276 76.6992 5.32617C 76.7064 4.98958 76.8138 4.71029 77.0215 4.48828C 77.2292 4.26628 77.5013 4.14811 77.8379 4.13379ZM 85.873 8.16211C 86.847 8.17643 87.6813 8.44141 88.376 8.95703C 89.0706 9.47266 89.5827 10.1852 89.9121 11.0947C 90.2487 11.9971 90.3633 12.9854 90.2559 14.0596L 90.2344 14.2959C 90.0983 15.4274 89.7617 16.4515 89.2246 17.3682C 88.6875 18.2777 87.9928 18.9867 87.1406 19.4951C 86.2884 20.0036 85.3538 20.2435 84.3369 20.2148C 83.3701 20.2005 82.5358 19.9355 81.834 19.4199C 81.1393 18.9043 80.6309 18.2025 80.3086 17.3145C 79.9863 16.4264 79.8717 15.4489 79.9648 14.3818C 80.0723 13.1787 80.3981 12.0973 80.9424 11.1377C 81.4867 10.1781 82.1849 9.43685 83.0371 8.91406C 83.8965 8.38411 84.8418 8.13346 85.873 8.16211ZM 81.9199 14.3926C 81.8698 14.8438 81.8698 15.3128 81.9199 15.7998C 81.9915 16.6449 82.2422 17.318 82.6719 17.8193C 83.1087 18.3206 83.6888 18.582 84.4121 18.6035C 85.0566 18.625 85.651 18.4674 86.1953 18.1309C 86.7396 17.7871 87.1979 17.2715 87.5703 16.584C 87.9427 15.8965 88.1826 15.1338 88.29 14.2959C 88.3473 13.637 88.3581 13.082 88.3223 12.6309C 88.2363 11.7643 87.9749 11.0804 87.5381 10.5791C 87.1012 10.0778 86.5212 9.81283 85.7979 9.78418C 84.7952 9.7627 83.943 10.1566 83.2412 10.9658C 82.5394 11.7751 82.1061 12.835 81.9414 14.1455L 81.9199 14.3926ZM 95.5625 8.36621L 95.2832 9.83789C 96.3288 8.69206 97.5176 8.13346 98.8496 8.16211C 99.9453 8.19075 100.755 8.57031 101.277 9.30078C 101.8 10.0312 101.993 11.0589 101.857 12.3838L 100.59 20L 98.6455 20L 99.9238 12.3516C 99.9668 12.0007 99.9704 11.6748 99.9346 11.374C 99.8128 10.3714 99.222 9.85938 98.1621 9.83789C 96.9948 9.81641 95.9707 10.4395 95.0898 11.707L 93.6504 20L 91.7061 20L 93.7256 8.37695L 95.5625 8.36621Z"/>
<path id="path3_fill" d="M 9.4209 15.9717C 9.57845 14.8258 8.98405 13.988 7.6377 13.458L 5.7793 12.7812L 5.15625 12.5127C 3.0651 11.5602 2.08757 10.221 2.22363 8.49512C 2.29525 7.62858 2.59245 6.8623 3.11523 6.19629C 3.63802 5.53027 4.3291 5.01823 5.18848 4.66016C 6.05501 4.29492 6.97526 4.12305 7.94922 4.14453C 8.89453 4.16602 9.736 4.37728 10.4736 4.77832C 11.2184 5.17936 11.7842 5.74154 12.1709 6.46484C 12.5576 7.18099 12.7295 7.99023 12.6865 8.89258L 10.6562 8.88184C 10.7279 7.9222 10.513 7.18099 10.0117 6.6582C 9.51042 6.12825 8.79427 5.85612 7.86328 5.8418C 6.88216 5.82747 6.06217 6.05664 5.40332 6.5293C 4.74447 7.00195 4.36491 7.64648 4.26465 8.46289C 4.12142 9.52995 4.77669 10.3392 6.23047 10.8906L 7.83105 11.46L 8.63672 11.8037C 10.6562 12.7347 11.5908 14.1169 11.4404 15.9502C 11.3617 16.8311 11.0645 17.5938 10.5488 18.2383C 10.0332 18.8757 9.33138 19.3698 8.44336 19.7207C 7.5625 20.0716 6.61361 20.2363 5.59668 20.2148C 4.61556 20.2077 3.7168 20 2.90039 19.5918C 2.09115 19.1764 1.47526 18.6107 1.05273 17.8945C 0.630208 17.1784 0.44401 16.3656 0.494141 15.4561L 2.51367 15.4668C 2.44922 16.3978 2.69987 17.139 3.26562 17.6904C 3.83854 18.2347 4.64421 18.514 5.68262 18.5283C 6.72103 18.5426 7.57682 18.3171 8.25 17.8516C 8.92318 17.3861 9.31348 16.7594 9.4209 15.9717ZM 20.2275 20C 20.1774 19.7923 20.1523 19.5882 20.1523 19.3877L 20.1846 18.7754C 19.1175 19.7637 17.986 20.2435 16.79 20.2148C 15.766 20.2005 14.9316 19.8783 14.2871 19.248C 13.6497 18.6107 13.3597 17.8158 13.417 16.8633C 13.4886 15.6315 14.0257 14.6719 15.0283 13.9844C 16.0381 13.2897 17.363 12.9424 19.0029 12.9424L 21.0332 12.9531L 21.1621 12.0293C 21.2337 11.3346 21.0977 10.7868 20.7539 10.3857C 20.4173 9.97754 19.9089 9.76628 19.2285 9.75195C 18.5625 9.73763 17.9717 9.90234 17.4561 10.2461C 16.9476 10.5827 16.6361 11.0303 16.5215 11.5889L 14.5664 11.5996C 14.6309 10.9193 14.8958 10.3177 15.3613 9.79492C 15.8268 9.26497 16.4248 8.85677 17.1553 8.57031C 17.8857 8.27669 18.6413 8.13704 19.4219 8.15137C 20.6322 8.18001 21.5739 8.54883 22.2471 9.25781C 22.9202 9.95964 23.2031 10.8942 23.0957 12.0615L 22.1504 17.8193L 22.0967 18.6465C 22.0824 19.0404 22.1253 19.4307 22.2256 19.8174L 22.2041 20L 20.2275 20ZM 17.1768 18.4961C 17.7998 18.5104 18.387 18.3636 18.9385 18.0557C 19.4971 17.7406 19.9769 17.3073 20.3779 16.7559L 20.7969 14.3604L 19.3252 14.3496C 18.1006 14.3496 17.1624 14.543 16.5107 14.9297C 15.859 15.3164 15.4902 15.8643 15.4043 16.5732C 15.3398 17.1175 15.4652 17.5723 15.7803 17.9375C 16.1025 18.2956 16.568 18.4818 17.1768 18.4961ZM 28.6816 8.36621L 28.4346 9.66602C 29.4085 8.63477 30.5866 8.13346 31.9688 8.16211C 32.7064 8.17643 33.3294 8.34473 33.8379 8.66699C 34.3535 8.98926 34.708 9.44401 34.9014 10.0312C 35.9899 8.75651 37.2754 8.13346 38.7578 8.16211C 39.918 8.19075 40.7738 8.58105 41.3252 9.33301C 41.8766 10.085 42.0807 11.0947 41.9375 12.3623L 40.6592 20L 38.7256 20L 39.9932 12.3408C 40.0361 11.9684 40.0361 11.6283 39.9932 11.3203C 39.8571 10.3464 39.2197 9.84863 38.0811 9.82715C 37.3721 9.81283 36.7275 10.0348 36.1475 10.4932C 35.5745 10.9443 35.2057 11.5387 35.041 12.2764L 33.7197 20L 31.7646 20L 33.0537 12.3516C 33.1468 11.5566 33.0251 10.9443 32.6885 10.5146C 32.359 10.085 31.8434 9.86296 31.1416 9.84863C 29.9313 9.81999 28.9681 10.3714 28.252 11.5029L 26.7803 20L 24.8359 20L 26.8555 8.37695L 28.6816 8.36621ZM 54.1943 14.2422C 54.0511 15.4238 53.7324 16.4873 53.2383 17.4326C 52.7441 18.3779 52.1318 19.0869 51.4014 19.5596C 50.6709 20.0251 49.8617 20.2471 48.9736 20.2256C 47.6273 20.1969 46.596 19.7422 45.8799 18.8613L 44.8379 24.4688L 42.8936 24.4688L 45.6865 8.37695L 47.4482 8.36621L 47.2334 9.66602C 48.193 8.63477 49.3424 8.13346 50.6816 8.16211C 51.7988 8.19075 52.6689 8.60254 53.292 9.39746C 53.915 10.1924 54.2445 11.2881 54.2803 12.6846C 54.2874 13.1429 54.2695 13.5869 54.2266 14.0166L 54.1943 14.2422ZM 52.2822 14.0166L 52.3359 13.1143C 52.3359 12.0687 52.1354 11.2702 51.7344 10.7188C 51.3405 10.1602 50.7676 9.86654 50.0156 9.83789C 48.8913 9.80924 47.9209 10.3428 47.1045 11.4385L 46.127 17.0137C 46.5638 18.0449 47.348 18.5749 48.4795 18.6035C 49.4463 18.625 50.2663 18.249 50.9395 17.4756C 51.6198 16.695 52.0674 15.542 52.2822 14.0166ZM 57.8682 20L 55.9346 20L 58.792 3.5L 60.7363 3.5L 57.8682 20ZM 66.0752 20.2148C 64.6286 20.1862 63.4971 19.6527 62.6807 18.6143C 61.8643 17.5758 61.5205 16.2474 61.6494 14.6289L 61.7031 14.167C 61.8249 13.014 62.165 11.9613 62.7236 11.0088C 63.2894 10.0563 63.9769 9.34017 64.7861 8.86035C 65.5954 8.37337 66.4691 8.14062 67.4072 8.16211C 68.6032 8.19075 69.5413 8.58822 70.2217 9.35449C 70.902 10.1208 71.2744 11.1592 71.3389 12.4697C 71.3604 12.9352 71.346 13.4007 71.2959 13.8662L 71.1777 14.7578L 63.583 14.7578C 63.4541 15.8105 63.626 16.7057 64.0986 17.4434C 64.5785 18.181 65.291 18.5641 66.2363 18.5928C 67.3822 18.6214 68.4421 18.1058 69.416 17.0459L 70.5332 17.9912C 70.0462 18.693 69.416 19.2445 68.6426 19.6455C 67.8763 20.0394 67.0205 20.2292 66.0752 20.2148ZM 67.3105 9.78418C 66.5085 9.7627 65.8066 10.0348 65.2051 10.6006C 64.6107 11.1663 64.138 12.0078 63.7871 13.125L 69.4375 13.1357L 69.4805 12.9639C 69.5951 12.0615 69.4482 11.3132 69.04 10.7188C 68.639 10.1172 68.0625 9.80566 67.3105 9.78418Z"/>
<path id="path4_fill" d="M 28 14C 28 21.732 21.732 28 14 28C 6.26801 28 0 21.732 0 14C 0 6.26801 6.26801 0 14 0C 21.732 0 28 6.26801 28 14Z"/>
<path id="path5_fill" d="M 8.25684 9.82812C 8.06543 10.8581 7.59831 11.6738 6.85547 12.2754C 6.11719 12.877 5.23079 13.1641 4.19629 13.1367C 3.58105 13.123 3.04329 12.9727 2.58301 12.6855C 2.12272 12.3939 1.76497 11.9769 1.50977 11.4346C 1.25456 10.8877 1.11328 10.2839 1.08594 9.62305C 1.06771 9.24935 1.08366 8.88477 1.13379 8.5293L 1.25 7.70898C 1.46419 6.21419 1.98828 5.03613 2.82227 4.1748C 3.66081 3.30892 4.67936 2.88737 5.87793 2.91016C 6.81217 2.92839 7.55273 3.23145 8.09961 3.81934C 8.64648 4.40267 8.93587 5.21387 8.96777 6.25293L 7.68945 6.25293C 7.63021 4.8584 7.08333 4.10645 6.04883 3.99707L 5.82324 3.9834C 4.96191 3.96061 4.24186 4.2819 3.66309 4.94727C 3.08887 5.60807 2.71745 6.5127 2.54883 7.66113L 2.39844 8.69336L 2.35742 9.29492C 2.33008 10.1335 2.47819 10.8011 2.80176 11.2979C 3.12988 11.79 3.61523 12.0452 4.25781 12.0635C 4.95052 12.0863 5.52246 11.9199 5.97363 11.5645C 6.42936 11.209 6.77572 10.637 7.0127 9.84863L 8.25684 9.82812ZM 10.7314 13L 9.50098 13L 11.3193 2.5L 12.5566 2.5L 10.7314 13ZM 17.4512 12.2686C 16.8724 12.8656 16.1364 13.1549 15.2432 13.1367C 14.5368 13.1185 14.0127 12.8656 13.6709 12.3779C 13.3337 11.8903 13.2083 11.2249 13.2949 10.3818L 14.0879 5.60352L 15.3252 5.60352L 14.5254 10.4023C 14.5026 10.6029 14.498 10.7988 14.5117 10.9902C 14.5345 11.3184 14.6325 11.5758 14.8057 11.7627C 14.9788 11.9495 15.2204 12.0498 15.5303 12.0635C 16.4144 12.0908 17.098 11.7331 17.5811 10.9902L 18.5107 5.60352L 19.748 5.60352L 18.4629 13L 17.2939 13L 17.4512 12.2686ZM 24.8955 10.9971C 24.9639 10.4867 24.6836 10.1266 24.0547 9.91699L 22.7695 9.54102C 21.6849 9.16732 21.1608 8.54753 21.1973 7.68164C 21.2292 7.02995 21.5254 6.49674 22.0859 6.08203C 22.651 5.66276 23.3141 5.45768 24.0752 5.4668C 24.8226 5.47591 25.4287 5.69466 25.8936 6.12305C 26.363 6.54688 26.5885 7.10059 26.5703 7.78418L 25.3398 7.77734C 25.349 7.4082 25.2327 7.10742 24.9912 6.875C 24.7497 6.64258 24.4284 6.52181 24.0273 6.5127C 23.599 6.50358 23.2298 6.6084 22.9199 6.82715C 22.6328 7.03223 22.4665 7.30111 22.4209 7.63379C 22.3617 8.06217 22.6237 8.37435 23.207 8.57031L 23.8291 8.74121C 24.6768 8.95996 25.2783 9.24479 25.6338 9.5957C 25.9893 9.94661 26.1533 10.3818 26.126 10.9014C 26.0986 11.3617 25.9482 11.7627 25.6748 12.1045C 25.4014 12.4463 25.0368 12.7083 24.5811 12.8906C 24.1253 13.0684 23.64 13.1504 23.125 13.1367C 22.3411 13.1276 21.694 12.8997 21.1836 12.4531C 20.6732 12.002 20.4271 11.4232 20.4453 10.7168L 21.6826 10.7236C 21.6826 11.1383 21.8148 11.471 22.0791 11.7217C 22.3434 11.9723 22.7057 12.0977 23.166 12.0977C 23.6172 12.1068 24.0068 12.0133 24.335 11.8174C 24.6631 11.6169 24.8499 11.3434 24.8955 10.9971ZM 30.6514 3.8125L 30.3369 5.60352L 31.6836 5.60352L 31.5127 6.58105L 30.1729 6.58105L 29.4004 11.1816C 29.3867 11.3001 29.3844 11.4095 29.3936 11.5098C 29.4255 11.8652 29.6191 12.043 29.9746 12.043C 30.125 12.043 30.3255 12.0202 30.5762 11.9746L 30.4805 13.0068C 30.1842 13.0889 29.8835 13.1299 29.5781 13.1299C 29.0859 13.1208 28.7168 12.9408 28.4707 12.5898C 28.2246 12.2344 28.1289 11.7581 28.1836 11.1611L 28.9355 6.58105L 27.6299 6.58105L 27.8008 5.60352L 29.1064 5.60352L 29.4209 3.8125L 30.6514 3.8125ZM 35.0947 13.1367C 34.1742 13.1185 33.4541 12.779 32.9346 12.1182C 32.415 11.4574 32.1963 10.612 32.2783 9.58203L 32.3125 9.28809C 32.39 8.55436 32.6064 7.88444 32.9619 7.27832C 33.3219 6.6722 33.7594 6.21647 34.2744 5.91113C 34.7894 5.60124 35.3454 5.45312 35.9424 5.4668C 36.7035 5.48503 37.3005 5.73796 37.7334 6.22559C 38.1663 6.71322 38.4033 7.37402 38.4443 8.20801C 38.458 8.50423 38.4489 8.80046 38.417 9.09668L 38.3418 9.66406L 33.5088 9.66406C 33.4268 10.334 33.5361 10.9036 33.8369 11.373C 34.1423 11.8424 34.5957 12.0863 35.1973 12.1045C 35.9264 12.1227 36.6009 11.7946 37.2207 11.1201L 37.9316 11.7217C 37.6217 12.1683 37.2207 12.5192 36.7285 12.7744C 36.2409 13.0251 35.6963 13.1458 35.0947 13.1367ZM 35.8809 6.49902C 35.3704 6.48535 34.9238 6.65853 34.541 7.01855C 34.1628 7.37858 33.862 7.91406 33.6387 8.625L 37.2344 8.63184L 37.2617 8.52246C 37.3346 7.94824 37.2412 7.47201 36.9814 7.09375C 36.7262 6.71094 36.3594 6.5127 35.8809 6.49902ZM 43.7559 6.73145L 43.1748 6.66992C 42.3818 6.66992 41.7575 7.02767 41.3018 7.74316L 40.3926 13L 39.1553 13L 40.4404 5.60352L 41.6367 5.59668L 41.4521 6.45801C 41.9762 5.76986 42.5938 5.4349 43.3047 5.45312C 43.4551 5.45312 43.651 5.4873 43.8926 5.55566L 43.7559 6.73145ZM 51.166 13L 49.9219 13L 51.3848 4.60547L 48.7393 5.53516L 48.9512 4.33203L 52.6426 2.99902L 52.8613 2.99902L 51.166 13Z"/>
<path id="path6_fill" d="M 8.25684 9.82812C 8.06543 10.8581 7.59831 11.6738 6.85547 12.2754C 6.11719 12.877 5.23079 13.1641 4.19629 13.1367C 3.58105 13.123 3.04329 12.9727 2.58301 12.6855C 2.12272 12.3939 1.76497 11.9769 1.50977 11.4346C 1.25456 10.8877 1.11328 10.2839 1.08594 9.62305C 1.06771 9.24935 1.08366 8.88477 1.13379 8.5293L 1.25 7.70898C 1.46419 6.21419 1.98828 5.03613 2.82227 4.1748C 3.66081 3.30892 4.67936 2.88737 5.87793 2.91016C 6.81217 2.92839 7.55273 3.23145 8.09961 3.81934C 8.64648 4.40267 8.93587 5.21387 8.96777 6.25293L 7.68945 6.25293C 7.63021 4.8584 7.08333 4.10645 6.04883 3.99707L 5.82324 3.9834C 4.96191 3.96061 4.24186 4.2819 3.66309 4.94727C 3.08887 5.60807 2.71745 6.5127 2.54883 7.66113L 2.39844 8.69336L 2.35742 9.29492C 2.33008 10.1335 2.47819 10.8011 2.80176 11.2979C 3.12988 11.79 3.61523 12.0452 4.25781 12.0635C 4.95052 12.0863 5.52246 11.9199 5.97363 11.5645C 6.42936 11.209 6.77572 10.637 7.0127 9.84863L 8.25684 9.82812ZM 10.7314 13L 9.50098 13L 11.3193 2.5L 12.5566 2.5L 10.7314 13ZM 17.4512 12.2686C 16.8724 12.8656 16.1364 13.1549 15.2432 13.1367C 14.5368 13.1185 14.0127 12.8656 13.6709 12.3779C 13.3337 11.8903 13.2083 11.2249 13.2949 10.3818L 14.0879 5.60352L 15.3252 5.60352L 14.5254 10.4023C 14.5026 10.6029 14.498 10.7988 14.5117 10.9902C 14.5345 11.3184 14.6325 11.5758 14.8057 11.7627C 14.9788 11.9495 15.2204 12.0498 15.5303 12.0635C 16.4144 12.0908 17.098 11.7331 17.5811 10.9902L 18.5107 5.60352L 19.748 5.60352L 18.4629 13L 17.2939 13L 17.4512 12.2686ZM 24.8955 10.9971C 24.9639 10.4867 24.6836 10.1266 24.0547 9.91699L 22.7695 9.54102C 21.6849 9.16732 21.1608 8.54753 21.1973 7.68164C 21.2292 7.02995 21.5254 6.49674 22.0859 6.08203C 22.651 5.66276 23.3141 5.45768 24.0752 5.4668C 24.8226 5.47591 25.4287 5.69466 25.8936 6.12305C 26.363 6.54688 26.5885 7.10059 26.5703 7.78418L 25.3398 7.77734C 25.349 7.4082 25.2327 7.10742 24.9912 6.875C 24.7497 6.64258 24.4284 6.52181 24.0273 6.5127C 23.599 6.50358 23.2298 6.6084 22.9199 6.82715C 22.6328 7.03223 22.4665 7.30111 22.4209 7.63379C 22.3617 8.06217 22.6237 8.37435 23.207 8.57031L 23.8291 8.74121C 24.6768 8.95996 25.2783 9.24479 25.6338 9.5957C 25.9893 9.94661 26.1533 10.3818 26.126 10.9014C 26.0986 11.3617 25.9482 11.7627 25.6748 12.1045C 25.4014 12.4463 25.0368 12.7083 24.5811 12.8906C 24.1253 13.0684 23.64 13.1504 23.125 13.1367C 22.3411 13.1276 21.694 12.8997 21.1836 12.4531C 20.6732 12.002 20.4271 11.4232 20.4453 10.7168L 21.6826 10.7236C 21.6826 11.1383 21.8148 11.471 22.0791 11.7217C 22.3434 11.9723 22.7057 12.0977 23.166 12.0977C 23.6172 12.1068 24.0068 12.0133 24.335 11.8174C 24.6631 11.6169 24.8499 11.3434 24.8955 10.9971ZM 30.6514 3.8125L 30.3369 5.60352L 31.6836 5.60352L 31.5127 6.58105L 30.1729 6.58105L 29.4004 11.1816C 29.3867 11.3001 29.3844 11.4095 29.3936 11.5098C 29.4255 11.8652 29.6191 12.043 29.9746 12.043C 30.125 12.043 30.3255 12.0202 30.5762 11.9746L 30.4805 13.0068C 30.1842 13.0889 29.8835 13.1299 29.5781 13.1299C 29.0859 13.1208 28.7168 12.9408 28.4707 12.5898C 28.2246 12.2344 28.1289 11.7581 28.1836 11.1611L 28.9355 6.58105L 27.6299 6.58105L 27.8008 5.60352L 29.1064 5.60352L 29.4209 3.8125L 30.6514 3.8125ZM 35.0947 13.1367C 34.1742 13.1185 33.4541 12.779 32.9346 12.1182C 32.415 11.4574 32.1963 10.612 32.2783 9.58203L 32.3125 9.28809C 32.39 8.55436 32.6064 7.88444 32.9619 7.27832C 33.3219 6.6722 33.7594 6.21647 34.2744 5.91113C 34.7894 5.60124 35.3454 5.45312 35.9424 5.4668C 36.7035 5.48503 37.3005 5.73796 37.7334 6.22559C 38.1663 6.71322 38.4033 7.37402 38.4443 8.20801C 38.458 8.50423 38.4489 8.80046 38.417 9.09668L 38.3418 9.66406L 33.5088 9.66406C 33.4268 10.334 33.5361 10.9036 33.8369 11.373C 34.1423 11.8424 34.5957 12.0863 35.1973 12.1045C 35.9264 12.1227 36.6009 11.7946 37.2207 11.1201L 37.9316 11.7217C 37.6217 12.1683 37.2207 12.5192 36.7285 12.7744C 36.2409 13.0251 35.6963 13.1458 35.0947 13.1367ZM 35.8809 6.49902C 35.3704 6.48535 34.9238 6.65853 34.541 7.01855C 34.1628 7.37858 33.862 7.91406 33.6387 8.625L 37.2344 8.63184L 37.2617 8.52246C 37.3346 7.94824 37.2412 7.47201 36.9814 7.09375C 36.7262 6.71094 36.3594 6.5127 35.8809 6.49902ZM 43.7559 6.73145L 43.1748 6.66992C 42.3818 6.66992 41.7575 7.02767 41.3018 7.74316L 40.3926 13L 39.1553 13L 40.4404 5.60352L 41.6367 5.59668L 41.4521 6.45801C 41.9762 5.76986 42.5938 5.4349 43.3047 5.45312C 43.4551 5.45312 43.651 5.4873 43.8926 5.55566L 43.7559 6.73145ZM 53.5312 13L 47.1943 13L 47.3447 12.0361L 51.0156 8.46777L 51.6855 7.80469C 52.4557 7.03451 52.8818 6.32357 52.9639 5.67188C 53.0231 5.17057 52.9251 4.7627 52.6699 4.44824C 52.4147 4.12923 52.0547 3.96061 51.5898 3.94238C 50.9928 3.92415 50.4938 4.09961 50.0928 4.46875C 49.6917 4.83333 49.4479 5.33464 49.3613 5.97266L 48.1377 5.97949C 48.1969 5.36881 48.3838 4.82878 48.6982 4.35938C 49.0173 3.88542 49.4342 3.52311 49.9492 3.27246C 50.4688 3.01725 51.0316 2.89648 51.6377 2.91016C 52.4626 2.92839 53.1165 3.17904 53.5996 3.66211C 54.0872 4.14062 54.2969 4.7627 54.2285 5.52832C 54.151 6.40332 53.6475 7.32389 52.7178 8.29004L 52.0889 8.92578L 48.8896 11.9678L 53.6953 11.9678L 53.5312 13Z"/>
<path id="path7_fill" d="M 8.25684 9.82812C 8.06543 10.8581 7.59831 11.6738 6.85547 12.2754C 6.11719 12.877 5.23079 13.1641 4.19629 13.1367C 3.58105 13.123 3.04329 12.9727 2.58301 12.6855C 2.12272 12.3939 1.76497 11.9769 1.50977 11.4346C 1.25456 10.8877 1.11328 10.2839 1.08594 9.62305C 1.06771 9.24935 1.08366 8.88477 1.13379 8.5293L 1.25 7.70898C 1.46419 6.21419 1.98828 5.03613 2.82227 4.1748C 3.66081 3.30892 4.67936 2.88737 5.87793 2.91016C 6.81217 2.92839 7.55273 3.23145 8.09961 3.81934C 8.64648 4.40267 8.93587 5.21387 8.96777 6.25293L 7.68945 6.25293C 7.63021 4.8584 7.08333 4.10645 6.04883 3.99707L 5.82324 3.9834C 4.96191 3.96061 4.24186 4.2819 3.66309 4.94727C 3.08887 5.60807 2.71745 6.5127 2.54883 7.66113L 2.39844 8.69336L 2.35742 9.29492C 2.33008 10.1335 2.47819 10.8011 2.80176 11.2979C 3.12988 11.79 3.61523 12.0452 4.25781 12.0635C 4.95052 12.0863 5.52246 11.9199 5.97363 11.5645C 6.42936 11.209 6.77572 10.637 7.0127 9.84863L 8.25684 9.82812ZM 10.7314 13L 9.50098 13L 11.3193 2.5L 12.5566 2.5L 10.7314 13ZM 17.4512 12.2686C 16.8724 12.8656 16.1364 13.1549 15.2432 13.1367C 14.5368 13.1185 14.0127 12.8656 13.6709 12.3779C 13.3337 11.8903 13.2083 11.2249 13.2949 10.3818L 14.0879 5.60352L 15.3252 5.60352L 14.5254 10.4023C 14.5026 10.6029 14.498 10.7988 14.5117 10.9902C 14.5345 11.3184 14.6325 11.5758 14.8057 11.7627C 14.9788 11.9495 15.2204 12.0498 15.5303 12.0635C 16.4144 12.0908 17.098 11.7331 17.5811 10.9902L 18.5107 5.60352L 19.748 5.60352L 18.4629 13L 17.2939 13L 17.4512 12.2686ZM 24.8955 10.9971C 24.9639 10.4867 24.6836 10.1266 24.0547 9.91699L 22.7695 9.54102C 21.6849 9.16732 21.1608 8.54753 21.1973 7.68164C 21.2292 7.02995 21.5254 6.49674 22.0859 6.08203C 22.651 5.66276 23.3141 5.45768 24.0752 5.4668C 24.8226 5.47591 25.4287 5.69466 25.8936 6.12305C 26.363 6.54688 26.5885 7.10059 26.5703 7.78418L 25.3398 7.77734C 25.349 7.4082 25.2327 7.10742 24.9912 6.875C 24.7497 6.64258 24.4284 6.52181 24.0273 6.5127C 23.599 6.50358 23.2298 6.6084 22.9199 6.82715C 22.6328 7.03223 22.4665 7.30111 22.4209 7.63379C 22.3617 8.06217 22.6237 8.37435 23.207 8.57031L 23.8291 8.74121C 24.6768 8.95996 25.2783 9.24479 25.6338 9.5957C 25.9893 9.94661 26.1533 10.3818 26.126 10.9014C 26.0986 11.3617 25.9482 11.7627 25.6748 12.1045C 25.4014 12.4463 25.0368 12.7083 24.5811 12.8906C 24.1253 13.0684 23.64 13.1504 23.125 13.1367C 22.3411 13.1276 21.694 12.8997 21.1836 12.4531C 20.6732 12.002 20.4271 11.4232 20.4453 10.7168L 21.6826 10.7236C 21.6826 11.1383 21.8148 11.471 22.0791 11.7217C 22.3434 11.9723 22.7057 12.0977 23.166 12.0977C 23.6172 12.1068 24.0068 12.0133 24.335 11.8174C 24.6631 11.6169 24.8499 11.3434 24.8955 10.9971ZM 30.6514 3.8125L 30.3369 5.60352L 31.6836 5.60352L 31.5127 6.58105L 30.1729 6.58105L 29.4004 11.1816C 29.3867 11.3001 29.3844 11.4095 29.3936 11.5098C 29.4255 11.8652 29.6191 12.043 29.9746 12.043C 30.125 12.043 30.3255 12.0202 30.5762 11.9746L 30.4805 13.0068C 30.1842 13.0889 29.8835 13.1299 29.5781 13.1299C 29.0859 13.1208 28.7168 12.9408 28.4707 12.5898C 28.2246 12.2344 28.1289 11.7581 28.1836 11.1611L 28.9355 6.58105L 27.6299 6.58105L 27.8008 5.60352L 29.1064 5.60352L 29.4209 3.8125L 30.6514 3.8125ZM 35.0947 13.1367C 34.1742 13.1185 33.4541 12.779 32.9346 12.1182C 32.415 11.4574 32.1963 10.612 32.2783 9.58203L 32.3125 9.28809C 32.39 8.55436 32.6064 7.88444 32.9619 7.27832C 33.3219 6.6722 33.7594 6.21647 34.2744 5.91113C 34.7894 5.60124 35.3454 5.45312 35.9424 5.4668C 36.7035 5.48503 37.3005 5.73796 37.7334 6.22559C 38.1663 6.71322 38.4033 7.37402 38.4443 8.20801C 38.458 8.50423 38.4489 8.80046 38.417 9.09668L 38.3418 9.66406L 33.5088 9.66406C 33.4268 10.334 33.5361 10.9036 33.8369 11.373C 34.1423 11.8424 34.5957 12.0863 35.1973 12.1045C 35.9264 12.1227 36.6009 11.7946 37.2207 11.1201L 37.9316 11.7217C 37.6217 12.1683 37.2207 12.5192 36.7285 12.7744C 36.2409 13.0251 35.6963 13.1458 35.0947 13.1367ZM 35.8809 6.49902C 35.3704 6.48535 34.9238 6.65853 34.541 7.01855C 34.1628 7.37858 33.862 7.91406 33.6387 8.625L 37.2344 8.63184L 37.2617 8.52246C 37.3346 7.94824 37.2412 7.47201 36.9814 7.09375C 36.7262 6.71094 36.3594 6.5127 35.8809 6.49902ZM 43.7559 6.73145L 43.1748 6.66992C 42.3818 6.66992 41.7575 7.02767 41.3018 7.74316L 40.3926 13L 39.1553 13L 40.4404 5.60352L 41.6367 5.59668L 41.4521 6.45801C 41.9762 5.76986 42.5938 5.4349 43.3047 5.45312C 43.4551 5.45312 43.651 5.4873 43.8926 5.55566L 43.7559 6.73145ZM 49.8809 7.4082L 50.7012 7.41504C 51.3027 7.41504 51.8086 7.25781 52.2188 6.94336C 52.6335 6.62435 52.8704 6.19368 52.9297 5.65137C 52.9889 5.12272 52.891 4.70801 52.6357 4.40723C 52.3805 4.10189 52.0091 3.94466 51.5215 3.93555C 51.002 3.92643 50.5599 4.0791 50.1953 4.39355C 49.8353 4.70345 49.6143 5.12272 49.5322 5.65137L 48.3086 5.6582C 48.3861 4.83789 48.7347 4.17253 49.3545 3.66211C 49.9788 3.14714 50.7217 2.89421 51.583 2.90332C 52.417 2.92155 53.071 3.18359 53.5449 3.68945C 54.0234 4.19076 54.2308 4.85384 54.167 5.67871C 54.126 6.14811 53.946 6.5765 53.627 6.96387C 53.3079 7.35124 52.8659 7.67253 52.3008 7.92773C 52.752 8.11003 53.0892 8.39941 53.3125 8.7959C 53.5358 9.18783 53.6292 9.64811 53.5928 10.1768C 53.5199 11.0745 53.1621 11.7969 52.5195 12.3438C 51.8815 12.8906 51.1045 13.1549 50.1885 13.1367C 49.3363 13.1185 48.6572 12.8542 48.1514 12.3438C 47.6455 11.8333 47.4108 11.1748 47.4473 10.3682L 48.6846 10.375C 48.6572 10.8854 48.7803 11.2979 49.0537 11.6123C 49.3271 11.9222 49.7236 12.0863 50.2432 12.1045C 50.8265 12.1227 51.3118 11.9564 51.6992 11.6055C 52.0866 11.2546 52.3076 10.7852 52.3623 10.1973C 52.4124 9.65495 52.2894 9.2334 51.9932 8.93262C 51.6969 8.62728 51.2549 8.46549 50.667 8.44727L 49.7168 8.44043L 49.8809 7.4082Z"/>
<path id="path8_fill" d="M 8.25684 9.82812C 8.06543 10.8581 7.59831 11.6738 6.85547 12.2754C 6.11719 12.877 5.23079 13.1641 4.19629 13.1367C 3.58105 13.123 3.04329 12.9727 2.58301 12.6855C 2.12272 12.3939 1.76497 11.9769 1.50977 11.4346C 1.25456 10.8877 1.11328 10.2839 1.08594 9.62305C 1.06771 9.24935 1.08366 8.88477 1.13379 8.5293L 1.25 7.70898C 1.46419 6.21419 1.98828 5.03613 2.82227 4.1748C 3.66081 3.30892 4.67936 2.88737 5.87793 2.91016C 6.81217 2.92839 7.55273 3.23145 8.09961 3.81934C 8.64648 4.40267 8.93587 5.21387 8.96777 6.25293L 7.68945 6.25293C 7.63021 4.8584 7.08333 4.10645 6.04883 3.99707L 5.82324 3.9834C 4.96191 3.96061 4.24186 4.2819 3.66309 4.94727C 3.08887 5.60807 2.71745 6.5127 2.54883 7.66113L 2.39844 8.69336L 2.35742 9.29492C 2.33008 10.1335 2.47819 10.8011 2.80176 11.2979C 3.12988 11.79 3.61523 12.0452 4.25781 12.0635C 4.95052 12.0863 5.52246 11.9199 5.97363 11.5645C 6.42936 11.209 6.77572 10.637 7.0127 9.84863L 8.25684 9.82812ZM 10.7314 13L 9.50098 13L 11.3193 2.5L 12.5566 2.5L 10.7314 13ZM 17.4512 12.2686C 16.8724 12.8656 16.1364 13.1549 15.2432 13.1367C 14.5368 13.1185 14.0127 12.8656 13.6709 12.3779C 13.3337 11.8903 13.2083 11.2249 13.2949 10.3818L 14.0879 5.60352L 15.3252 5.60352L 14.5254 10.4023C 14.5026 10.6029 14.498 10.7988 14.5117 10.9902C 14.5345 11.3184 14.6325 11.5758 14.8057 11.7627C 14.9788 11.9495 15.2204 12.0498 15.5303 12.0635C 16.4144 12.0908 17.098 11.7331 17.5811 10.9902L 18.5107 5.60352L 19.748 5.60352L 18.4629 13L 17.2939 13L 17.4512 12.2686ZM 24.8955 10.9971C 24.9639 10.4867 24.6836 10.1266 24.0547 9.91699L 22.7695 9.54102C 21.6849 9.16732 21.1608 8.54753 21.1973 7.68164C 21.2292 7.02995 21.5254 6.49674 22.0859 6.08203C 22.651 5.66276 23.3141 5.45768 24.0752 5.4668C 24.8226 5.47591 25.4287 5.69466 25.8936 6.12305C 26.363 6.54688 26.5885 7.10059 26.5703 7.78418L 25.3398 7.77734C 25.349 7.4082 25.2327 7.10742 24.9912 6.875C 24.7497 6.64258 24.4284 6.52181 24.0273 6.5127C 23.599 6.50358 23.2298 6.6084 22.9199 6.82715C 22.6328 7.03223 22.4665 7.30111 22.4209 7.63379C 22.3617 8.06217 22.6237 8.37435 23.207 8.57031L 23.8291 8.74121C 24.6768 8.95996 25.2783 9.24479 25.6338 9.5957C 25.9893 9.94661 26.1533 10.3818 26.126 10.9014C 26.0986 11.3617 25.9482 11.7627 25.6748 12.1045C 25.4014 12.4463 25.0368 12.7083 24.5811 12.8906C 24.1253 13.0684 23.64 13.1504 23.125 13.1367C 22.3411 13.1276 21.694 12.8997 21.1836 12.4531C 20.6732 12.002 20.4271 11.4232 20.4453 10.7168L 21.6826 10.7236C 21.6826 11.1383 21.8148 11.471 22.0791 11.7217C 22.3434 11.9723 22.7057 12.0977 23.166 12.0977C 23.6172 12.1068 24.0068 12.0133 24.335 11.8174C 24.6631 11.6169 24.8499 11.3434 24.8955 10.9971ZM 30.6514 3.8125L 30.3369 5.60352L 31.6836 5.60352L 31.5127 6.58105L 30.1729 6.58105L 29.4004 11.1816C 29.3867 11.3001 29.3844 11.4095 29.3936 11.5098C 29.4255 11.8652 29.6191 12.043 29.9746 12.043C 30.125 12.043 30.3255 12.0202 30.5762 11.9746L 30.4805 13.0068C 30.1842 13.0889 29.8835 13.1299 29.5781 13.1299C 29.0859 13.1208 28.7168 12.9408 28.4707 12.5898C 28.2246 12.2344 28.1289 11.7581 28.1836 11.1611L 28.9355 6.58105L 27.6299 6.58105L 27.8008 5.60352L 29.1064 5.60352L 29.4209 3.8125L 30.6514 3.8125ZM 35.0947 13.1367C 34.1742 13.1185 33.4541 12.779 32.9346 12.1182C 32.415 11.4574 32.1963 10.612 32.2783 9.58203L 32.3125 9.28809C 32.39 8.55436 32.6064 7.88444 32.9619 7.27832C 33.3219 6.6722 33.7594 6.21647 34.2744 5.91113C 34.7894 5.60124 35.3454 5.45312 35.9424 5.4668C 36.7035 5.48503 37.3005 5.73796 37.7334 6.22559C 38.1663 6.71322 38.4033 7.37402 38.4443 8.20801C 38.458 8.50423 38.4489 8.80046 38.417 9.09668L 38.3418 9.66406L 33.5088 9.66406C 33.4268 10.334 33.5361 10.9036 33.8369 11.373C 34.1423 11.8424 34.5957 12.0863 35.1973 12.1045C 35.9264 12.1227 36.6009 11.7946 37.2207 11.1201L 37.9316 11.7217C 37.6217 12.1683 37.2207 12.5192 36.7285 12.7744C 36.2409 13.0251 35.6963 13.1458 35.0947 13.1367ZM 35.8809 6.49902C 35.3704 6.48535 34.9238 6.65853 34.541 7.01855C 34.1628 7.37858 33.862 7.91406 33.6387 8.625L 37.2344 8.63184L 37.2617 8.52246C 37.3346 7.94824 37.2412 7.47201 36.9814 7.09375C 36.7262 6.71094 36.3594 6.5127 35.8809 6.49902ZM 43.7559 6.73145L 43.1748 6.66992C 42.3818 6.66992 41.7575 7.02767 41.3018 7.74316L 40.3926 13L 39.1553 13L 40.4404 5.60352L 41.6367 5.59668L 41.4521 6.45801C 41.9762 5.76986 42.5938 5.4349 43.3047 5.45312C 43.4551 5.45312 43.651 5.4873 43.8926 5.55566L 43.7559 6.73145ZM 52.8955 9.65723L 54.2354 9.65723L 54.0508 10.6895L 52.7178 10.6895L 52.3145 13L 51.0703 13L 51.4736 10.6895L 47.0713 10.6895L 47.2148 9.87598L 52.6836 3.04688L 54.0371 3.04688L 52.8955 9.65723ZM 48.6982 9.65723L 51.6514 9.65723L 52.54 4.7627L 52.3418 5.0498L 48.6982 9.65723Z"/>
<path id="path9_fill" d="M 8.25684 9.82812C 8.06543 10.8581 7.59831 11.6738 6.85547 12.2754C 6.11719 12.877 5.23079 13.1641 4.19629 13.1367C 3.58105 13.123 3.04329 12.9727 2.58301 12.6855C 2.12272 12.3939 1.76497 11.9769 1.50977 11.4346C 1.25456 10.8877 1.11328 10.2839 1.08594 9.62305C 1.06771 9.24935 1.08366 8.88477 1.13379 8.5293L 1.25 7.70898C 1.46419 6.21419 1.98828 5.03613 2.82227 4.1748C 3.66081 3.30892 4.67936 2.88737 5.87793 2.91016C 6.81217 2.92839 7.55273 3.23145 8.09961 3.81934C 8.64648 4.40267 8.93587 5.21387 8.96777 6.25293L 7.68945 6.25293C 7.63021 4.8584 7.08333 4.10645 6.04883 3.99707L 5.82324 3.9834C 4.96191 3.96061 4.24186 4.2819 3.66309 4.94727C 3.08887 5.60807 2.71745 6.5127 2.54883 7.66113L 2.39844 8.69336L 2.35742 9.29492C 2.33008 10.1335 2.47819 10.8011 2.80176 11.2979C 3.12988 11.79 3.61523 12.0452 4.25781 12.0635C 4.95052 12.0863 5.52246 11.9199 5.97363 11.5645C 6.42936 11.209 6.77572 10.637 7.0127 9.84863L 8.25684 9.82812ZM 10.7314 13L 9.50098 13L 11.3193 2.5L 12.5566 2.5L 10.7314 13ZM 17.4512 12.2686C 16.8724 12.8656 16.1364 13.1549 15.2432 13.1367C 14.5368 13.1185 14.0127 12.8656 13.6709 12.3779C 13.3337 11.8903 13.2083 11.2249 13.2949 10.3818L 14.0879 5.60352L 15.3252 5.60352L 14.5254 10.4023C 14.5026 10.6029 14.498 10.7988 14.5117 10.9902C 14.5345 11.3184 14.6325 11.5758 14.8057 11.7627C 14.9788 11.9495 15.2204 12.0498 15.5303 12.0635C 16.4144 12.0908 17.098 11.7331 17.5811 10.9902L 18.5107 5.60352L 19.748 5.60352L 18.4629 13L 17.2939 13L 17.4512 12.2686ZM 24.8955 10.9971C 24.9639 10.4867 24.6836 10.1266 24.0547 9.91699L 22.7695 9.54102C 21.6849 9.16732 21.1608 8.54753 21.1973 7.68164C 21.2292 7.02995 21.5254 6.49674 22.0859 6.08203C 22.651 5.66276 23.3141 5.45768 24.0752 5.4668C 24.8226 5.47591 25.4287 5.69466 25.8936 6.12305C 26.363 6.54688 26.5885 7.10059 26.5703 7.78418L 25.3398 7.77734C 25.349 7.4082 25.2327 7.10742 24.9912 6.875C 24.7497 6.64258 24.4284 6.52181 24.0273 6.5127C 23.599 6.50358 23.2298 6.6084 22.9199 6.82715C 22.6328 7.03223 22.4665 7.30111 22.4209 7.63379C 22.3617 8.06217 22.6237 8.37435 23.207 8.57031L 23.8291 8.74121C 24.6768 8.95996 25.2783 9.24479 25.6338 9.5957C 25.9893 9.94661 26.1533 10.3818 26.126 10.9014C 26.0986 11.3617 25.9482 11.7627 25.6748 12.1045C 25.4014 12.4463 25.0368 12.7083 24.5811 12.8906C 24.1253 13.0684 23.64 13.1504 23.125 13.1367C 22.3411 13.1276 21.694 12.8997 21.1836 12.4531C 20.6732 12.002 20.4271 11.4232 20.4453 10.7168L 21.6826 10.7236C 21.6826 11.1383 21.8148 11.471 22.0791 11.7217C 22.3434 11.9723 22.7057 12.0977 23.166 12.0977C 23.6172 12.1068 24.0068 12.0133 24.335 11.8174C 24.6631 11.6169 24.8499 11.3434 24.8955 10.9971ZM 30.6514 3.8125L 30.3369 5.60352L 31.6836 5.60352L 31.5127 6.58105L 30.1729 6.58105L 29.4004 11.1816C 29.3867 11.3001 29.3844 11.4095 29.3936 11.5098C 29.4255 11.8652 29.6191 12.043 29.9746 12.043C 30.125 12.043 30.3255 12.0202 30.5762 11.9746L 30.4805 13.0068C 30.1842 13.0889 29.8835 13.1299 29.5781 13.1299C 29.0859 13.1208 28.7168 12.9408 28.4707 12.5898C 28.2246 12.2344 28.1289 11.7581 28.1836 11.1611L 28.9355 6.58105L 27.6299 6.58105L 27.8008 5.60352L 29.1064 5.60352L 29.4209 3.8125L 30.6514 3.8125ZM 35.0947 13.1367C 34.1742 13.1185 33.4541 12.779 32.9346 12.1182C 32.415 11.4574 32.1963 10.612 32.2783 9.58203L 32.3125 9.28809C 32.39 8.55436 32.6064 7.88444 32.9619 7.27832C 33.3219 6.6722 33.7594 6.21647 34.2744 5.91113C 34.7894 5.60124 35.3454 5.45312 35.9424 5.4668C 36.7035 5.48503 37.3005 5.73796 37.7334 6.22559C 38.1663 6.71322 38.4033 7.37402 38.4443 8.20801C 38.458 8.50423 38.4489 8.80046 38.417 9.09668L 38.3418 9.66406L 33.5088 9.66406C 33.4268 10.334 33.5361 10.9036 33.8369 11.373C 34.1423 11.8424 34.5957 12.0863 35.1973 12.1045C 35.9264 12.1227 36.6009 11.7946 37.2207 11.1201L 37.9316 11.7217C 37.6217 12.1683 37.2207 12.5192 36.7285 12.7744C 36.2409 13.0251 35.6963 13.1458 35.0947 13.1367ZM 35.8809 6.49902C 35.3704 6.48535 34.9238 6.65853 34.541 7.01855C 34.1628 7.37858 33.862 7.91406 33.6387 8.625L 37.2344 8.63184L 37.2617 8.52246C 37.3346 7.94824 37.2412 7.47201 36.9814 7.09375C 36.7262 6.71094 36.3594 6.5127 35.8809 6.49902ZM 43.7559 6.73145L 43.1748 6.66992C 42.3818 6.66992 41.7575 7.02767 41.3018 7.74316L 40.3926 13L 39.1553 13L 40.4404 5.60352L 41.6367 5.59668L 41.4521 6.45801C 41.9762 5.76986 42.5938 5.4349 43.3047 5.45312C 43.4551 5.45312 43.651 5.4873 43.8926 5.55566L 43.7559 6.73145ZM 48.5342 7.98926L 49.7988 3.04688L 54.7617 3.04688L 54.5771 4.21582L 50.6807 4.21582L 49.915 6.93652C 50.4163 6.6403 50.9587 6.49674 51.542 6.50586C 52.3669 6.51497 53.0003 6.82715 53.4424 7.44238C 53.8844 8.05306 54.0645 8.83236 53.9824 9.78027C 53.8958 10.8011 53.5335 11.6214 52.8955 12.2412C 52.2575 12.861 51.4622 13.1618 50.5098 13.1436C 49.7168 13.1344 49.0765 12.8792 48.5889 12.3779C 48.1012 11.8766 47.8438 11.209 47.8164 10.375L 48.9717 10.375C 49.0036 10.9219 49.1585 11.3457 49.4365 11.6465C 49.7145 11.9473 50.0905 12.1022 50.5645 12.1113C 51.1478 12.1296 51.6377 11.9222 52.0342 11.4893C 52.4352 11.0563 52.6722 10.4889 52.7451 9.78711C 52.8089 9.17188 52.7018 8.66602 52.4238 8.26953C 52.1458 7.86849 51.738 7.65885 51.2002 7.64062C 50.8675 7.63151 50.5713 7.68164 50.3115 7.79102C 50.0563 7.90039 49.8011 8.05762 49.5459 8.2627L 48.5342 7.98926Z"/>
<path id="path10_fill" d="M 8.25684 9.82812C 8.06543 10.8581 7.59831 11.6738 6.85547 12.2754C 6.11719 12.877 5.23079 13.1641 4.19629 13.1367C 3.58105 13.123 3.04329 12.9727 2.58301 12.6855C 2.12272 12.3939 1.76497 11.9769 1.50977 11.4346C 1.25456 10.8877 1.11328 10.2839 1.08594 9.62305C 1.06771 9.24935 1.08366 8.88477 1.13379 8.5293L 1.25 7.70898C 1.46419 6.21419 1.98828 5.03613 2.82227 4.1748C 3.66081 3.30892 4.67936 2.88737 5.87793 2.91016C 6.81217 2.92839 7.55273 3.23145 8.09961 3.81934C 8.64648 4.40267 8.93587 5.21387 8.96777 6.25293L 7.68945 6.25293C 7.63021 4.8584 7.08333 4.10645 6.04883 3.99707L 5.82324 3.9834C 4.96191 3.96061 4.24186 4.2819 3.66309 4.94727C 3.08887 5.60807 2.71745 6.5127 2.54883 7.66113L 2.39844 8.69336L 2.35742 9.29492C 2.33008 10.1335 2.47819 10.8011 2.80176 11.2979C 3.12988 11.79 3.61523 12.0452 4.25781 12.0635C 4.95052 12.0863 5.52246 11.9199 5.97363 11.5645C 6.42936 11.209 6.77572 10.637 7.0127 9.84863L 8.25684 9.82812ZM 10.7314 13L 9.50098 13L 11.3193 2.5L 12.5566 2.5L 10.7314 13ZM 17.4512 12.2686C 16.8724 12.8656 16.1364 13.1549 15.2432 13.1367C 14.5368 13.1185 14.0127 12.8656 13.6709 12.3779C 13.3337 11.8903 13.2083 11.2249 13.2949 10.3818L 14.0879 5.60352L 15.3252 5.60352L 14.5254 10.4023C 14.5026 10.6029 14.498 10.7988 14.5117 10.9902C 14.5345 11.3184 14.6325 11.5758 14.8057 11.7627C 14.9788 11.9495 15.2204 12.0498 15.5303 12.0635C 16.4144 12.0908 17.098 11.7331 17.5811 10.9902L 18.5107 5.60352L 19.748 5.60352L 18.4629 13L 17.2939 13L 17.4512 12.2686ZM 24.8955 10.9971C 24.9639 10.4867 24.6836 10.1266 24.0547 9.91699L 22.7695 9.54102C 21.6849 9.16732 21.1608 8.54753 21.1973 7.68164C 21.2292 7.02995 21.5254 6.49674 22.0859 6.08203C 22.651 5.66276 23.3141 5.45768 24.0752 5.4668C 24.8226 5.47591 25.4287 5.69466 25.8936 6.12305C 26.363 6.54688 26.5885 7.10059 26.5703 7.78418L 25.3398 7.77734C 25.349 7.4082 25.2327 7.10742 24.9912 6.875C 24.7497 6.64258 24.4284 6.52181 24.0273 6.5127C 23.599 6.50358 23.2298 6.6084 22.9199 6.82715C 22.6328 7.03223 22.4665 7.30111 22.4209 7.63379C 22.3617 8.06217 22.6237 8.37435 23.207 8.57031L 23.8291 8.74121C 24.6768 8.95996 25.2783 9.24479 25.6338 9.5957C 25.9893 9.94661 26.1533 10.3818 26.126 10.9014C 26.0986 11.3617 25.9482 11.7627 25.6748 12.1045C 25.4014 12.4463 25.0368 12.7083 24.5811 12.8906C 24.1253 13.0684 23.64 13.1504 23.125 13.1367C 22.3411 13.1276 21.694 12.8997 21.1836 12.4531C 20.6732 12.002 20.4271 11.4232 20.4453 10.7168L 21.6826 10.7236C 21.6826 11.1383 21.8148 11.471 22.0791 11.7217C 22.3434 11.9723 22.7057 12.0977 23.166 12.0977C 23.6172 12.1068 24.0068 12.0133 24.335 11.8174C 24.6631 11.6169 24.8499 11.3434 24.8955 10.9971ZM 30.6514 3.8125L 30.3369 5.60352L 31.6836 5.60352L 31.5127 6.58105L 30.1729 6.58105L 29.4004 11.1816C 29.3867 11.3001 29.3844 11.4095 29.3936 11.5098C 29.4255 11.8652 29.6191 12.043 29.9746 12.043C 30.125 12.043 30.3255 12.0202 30.5762 11.9746L 30.4805 13.0068C 30.1842 13.0889 29.8835 13.1299 29.5781 13.1299C 29.0859 13.1208 28.7168 12.9408 28.4707 12.5898C 28.2246 12.2344 28.1289 11.7581 28.1836 11.1611L 28.9355 6.58105L 27.6299 6.58105L 27.8008 5.60352L 29.1064 5.60352L 29.4209 3.8125L 30.6514 3.8125ZM 35.0947 13.1367C 34.1742 13.1185 33.4541 12.779 32.9346 12.1182C 32.415 11.4574 32.1963 10.612 32.2783 9.58203L 32.3125 9.28809C 32.39 8.55436 32.6064 7.88444 32.9619 7.27832C 33.3219 6.6722 33.7594 6.21647 34.2744 5.91113C 34.7894 5.60124 35.3454 5.45312 35.9424 5.4668C 36.7035 5.48503 37.3005 5.73796 37.7334 6.22559C 38.1663 6.71322 38.4033 7.37402 38.4443 8.20801C 38.458 8.50423 38.4489 8.80046 38.417 9.09668L 38.3418 9.66406L 33.5088 9.66406C 33.4268 10.334 33.5361 10.9036 33.8369 11.373C 34.1423 11.8424 34.5957 12.0863 35.1973 12.1045C 35.9264 12.1227 36.6009 11.7946 37.2207 11.1201L 37.9316 11.7217C 37.6217 12.1683 37.2207 12.5192 36.7285 12.7744C 36.2409 13.0251 35.6963 13.1458 35.0947 13.1367ZM 35.8809 6.49902C 35.3704 6.48535 34.9238 6.65853 34.541 7.01855C 34.1628 7.37858 33.862 7.91406 33.6387 8.625L 37.2344 8.63184L 37.2617 8.52246C 37.3346 7.94824 37.2412 7.47201 36.9814 7.09375C 36.7262 6.71094 36.3594 6.5127 35.8809 6.49902ZM 43.7559 6.73145L 43.1748 6.66992C 42.3818 6.66992 41.7575 7.02767 41.3018 7.74316L 40.3926 13L 39.1553 13L 40.4404 5.60352L 41.6367 5.59668L 41.4521 6.45801C 41.9762 5.76986 42.5938 5.4349 43.3047 5.45312C 43.4551 5.45312 43.651 5.4873 43.8926 5.55566L 43.7559 6.73145ZM 53.5654 3.0332L 53.4561 4.10645L 53.2168 4.10645C 52.3053 4.12467 51.526 4.40723 50.8789 4.9541C 50.2318 5.50098 49.7305 6.30762 49.375 7.37402C 49.9948 6.75423 50.7194 6.45345 51.5488 6.47168C 52.0729 6.48079 52.5218 6.62663 52.8955 6.90918C 53.2692 7.18717 53.5426 7.57454 53.7158 8.07129C 53.8936 8.56348 53.9551 9.10807 53.9004 9.70508C 53.8092 10.7122 53.4469 11.5439 52.8135 12.2002C 52.1846 12.8519 51.4098 13.1641 50.4893 13.1367C 49.751 13.1185 49.1449 12.8473 48.6709 12.3232C 48.1969 11.7992 47.9258 11.0973 47.8574 10.2178C 47.821 9.73926 47.8779 9.09212 48.0283 8.27637C 48.3428 6.5765 48.9626 5.27767 49.8877 4.37988C 50.8174 3.4821 51.9977 3.0332 53.4287 3.0332L 53.5654 3.0332ZM 51.2822 7.51758C 50.8402 7.50846 50.4255 7.63607 50.0381 7.90039C 49.6507 8.16471 49.3522 8.50195 49.1426 8.91211L 49.0947 9.37012L 49.0811 9.92383C 49.0811 10.2975 49.138 10.6598 49.252 11.0107C 49.3659 11.3617 49.5345 11.6283 49.7578 11.8105C 49.9811 11.9928 50.2432 12.0863 50.5439 12.0908C 51.0954 12.1136 51.5671 11.9085 51.959 11.4756C 52.3555 11.0426 52.5924 10.473 52.6699 9.7666C 52.7155 9.35645 52.6904 8.98047 52.5947 8.63867C 52.499 8.29688 52.3395 8.02799 52.1162 7.83203C 51.8975 7.63151 51.6195 7.52669 51.2822 7.51758Z"/>
</defs>
</svg>
