<svg width="698" height="160" viewBox="0 0 698 160" version="1.1" xmlns="http://www.w3.org/2000/svg" xmlns:xlink="http://www.w3.org/1999/xlink">
<title>s1m1_Simple_random_sampling_v2</title>
<desc>Created using Figma</desc>
<g id="Canvas" transform="translate(2212 -60)">
<rect x="-2212" y="60" width="698" height="160" fill="#FFFFFF"/>
<g id="3, 5">
<use xlink:href="#path0_fill" transform="translate(-1772 129)"/>
</g>
<g id="Arrow">
<use xlink:href="#path1_stroke" transform="matrix(1 0 4.33681e-19 1 -1987 114)"/>
</g>
<g id="Simple random sampling">
<use xlink:href="#path2_fill" transform="translate(-1968 76)"/>
</g>
<g id="Rectangle 2">
<use xlink:href="#path3_fill" transform="translate(-2212 60)" fill="#C4C4C4"/>
<mask id="mask0_outline_ins">
<use xlink:href="#path3_fill" fill="white" transform="translate(-2212 60)"/>
</mask>
<g mask="url(#mask0_outline_ins)">
<use xlink:href="#path4_stroke_2x" transform="translate(-2212 60)"/>
</g>
</g>
<g id="Rectangle 2.1">
<use xlink:href="#path3_fill" transform="translate(-2149 60)" fill="#C4C4C4"/>
<mask id="mask1_outline_ins">
<use xlink:href="#path3_fill" fill="white" transform="translate(-2149 60)"/>
</mask>
<g mask="url(#mask1_outline_ins)">
<use xlink:href="#path4_stroke_2x" transform="translate(-2149 60)"/>
</g>
</g>
<g id="Rectangle 2.2">
<use xlink:href="#path3_fill" transform="translate(-2086 60)" fill="#6FCF97"/>
<mask id="mask2_outline_ins">
<use xlink:href="#path3_fill" fill="white" transform="translate(-2086 60)"/>
</mask>
<g mask="url(#mask2_outline_ins)">
<use xlink:href="#path4_stroke_2x" transform="translate(-2086 60)"/>
</g>
</g>
<g id="Rectangle 2.6">
<use xlink:href="#path3_fill" transform="translate(-1642 81)" fill="#6FCF97"/>
<mask id="mask3_outline_ins">
<use xlink:href="#path3_fill" fill="white" transform="translate(-1642 81)"/>
</mask>
<g mask="url(#mask3_outline_ins)">
<use xlink:href="#path4_stroke_2x" transform="translate(-1642 81)"/>
</g>
</g>
<g id="Rectangle 2.7">
<use xlink:href="#path3_fill" transform="translate(-1579 81)" fill="#6FCF97"/>
<mask id="mask4_outline_ins">
<use xlink:href="#path3_fill" fill="white" transform="translate(-1579 81)"/>
</mask>
<g mask="url(#mask4_outline_ins)">
<use xlink:href="#path4_stroke_2x" transform="translate(-1579 81)"/>
</g>
</g>
<g id="Rectangle 2.3">
<use xlink:href="#path3_fill" transform="translate(-2212 122)" fill="#C4C4C4"/>
<mask id="mask5_outline_ins">
<use xlink:href="#path3_fill" fill="white" transform="translate(-2212 122)"/>
</mask>
<g mask="url(#mask5_outline_ins)">
<use xlink:href="#path4_stroke_2x" transform="translate(-2212 122)"/>
</g>
</g>
<g id="Rectangle 2.4">
<use xlink:href="#path3_fill" transform="translate(-2149 122)" fill="#6FCF97"/>
<mask id="mask6_outline_ins">
<use xlink:href="#path3_fill" fill="white" transform="translate(-2149 122)"/>
</mask>
<g mask="url(#mask6_outline_ins)">
<use xlink:href="#path4_stroke_2x" transform="translate(-2149 122)"/>
</g>
</g>
<g id="Rectangle 2.5">
<use xlink:href="#path3_fill" transform="translate(-2086 122)" fill="#C4C4C4"/>
<mask id="mask7_outline_ins">
<use xlink:href="#path3_fill" fill="white" transform="translate(-2086 122)"/>
</mask>
<g mask="url(#mask7_outline_ins)">
<use xlink:href="#path4_stroke_2x" transform="translate(-2086 122)"/>
</g>
</g>
<g id="1">
<use xlink:href="#path5_fill" transform="translate(-2187 78)"/>
</g>
<g id="2">
<use xlink:href="#path6_fill" transform="translate(-2124 78)"/>
</g>
<g id="3">
<use xlink:href="#path7_fill" transform="translate(-2060 78)"/>
</g>
<g id="3">
<use xlink:href="#path8_fill" transform="translate(-1617 100)"/>
</g>
<g id="4">
<use xlink:href="#path9_fill" transform="translate(-2187 140)"/>
</g>
<g id="5">
<use xlink:href="#path10_fill" transform="translate(-2124 140)"/>
</g>
<g id="5">
<use xlink:href="#path11_fill" transform="translate(-1554 100)"/>
</g>
<g id="6">
<use xlink:href="#path12_fill" transform="translate(-2060 141)"/>
</g>
<g id="Component 3">
<g id="Component 2">
<g id="Group">
<g id="Canvas">
<g id="Component 4">
<g id="Ellipse 2">
<g id="Ellipse 2">
<g id="Vector">
<use xlink:href="#path13_fill" transform="matrix(-0.396286 0.918127 -0.917658 -0.39737 -1906.41 151.462)" fill="#333333"/>
</g>
</g>
</g>
<g id="Component 3">
<g id="Rectangle">
<mask id="mask8_alpha" mask-type="alpha">
<g id="mask0 outline ins">
<g id="Vector">
<use xlink:href="#path14_fill" transform="matrix(0.687697 -0.725997 0.724883 0.688872 -1930 133.379)" fill="#FFFFFF"/>
</g>
</g>
</mask>
<g id="Group" mask="url(#mask8_alpha)">
<g id="Vector">
<use xlink:href="#path15_fill" transform="matrix(0.687697 -0.725997 0.724883 0.688872 -1931.56 133.428)" fill="#333333"/>
</g>
</g>
</g>
<g id="Ellipse">
<g id="Vector">
<use xlink:href="#path16_fill" transform="matrix(0.999131 -0.0416741 0.0415394 0.999137 -1916.45 130.267)" fill="#333333"/>
</g>
</g>
<g id="Ellipse 2">
<g id="Ellipse 2">
<g id="Vector">
<use xlink:href="#path13_fill" transform="matrix(-0.396286 0.918127 -0.917658 -0.39737 -1902.02 144)" fill="#333333"/>
</g>
</g>
</g>
<g id="Line">
<g id="Line">
<g id="Vector">
<use xlink:href="#path17_fill" transform="matrix(-0.0415394 -0.999137 0.999131 -0.0416741 -1913.07 160.1)"/>
</g>
</g>
</g>
<g id="Line">
<g id="Line">
<g id="Vector">
<use xlink:href="#path17_fill" transform="matrix(-0.0415394 -0.999137 0.999131 -0.0416741 -1929.29 150.5)"/>
</g>
</g>
</g>
<g id="Line">
<g id="Line">
<g id="Vector">
<use xlink:href="#path17_fill" transform="matrix(-0.0415394 -0.999137 0.999131 -0.0416741 -1896.85 149.147)"/>
</g>
</g>
</g>
<g id="Line 2">
<g id="Vector">
<use xlink:href="#path18_fill" transform="matrix(0.828694 -0.559701 0.558455 0.829535 -1912.7 159.355)"/>
</g>
</g>
<g id="Line 3">
<g id="Vector">
<use xlink:href="#path19_fill" transform="matrix(0.860515 0.509425 -0.508202 0.861238 -1928.85 149.763)"/>
</g>
</g>
<g id="Ellipse 2">
<g id="Ellipse 2">
<g id="Vector">
<use xlink:href="#path13_fill" transform="matrix(-0.396286 0.918127 -0.917658 -0.39737 -1897.22 136.092)" fill="#333333"/>
</g>
</g>
</g>
<g id="Ellipse 2">
<g id="Ellipse 2">
<g id="Vector">
<use xlink:href="#path20_fill" transform="matrix(-0.455199 -0.89039 0.889791 -0.45637 -1926.04 142.853)" fill="#333333"/>
</g>
</g>
</g>
<g id="Ellipse 2">
<g id="Ellipse 2">
<g id="Vector">
<use xlink:href="#path21_fill" transform="matrix(-0.551715 -0.834033 0.833208 -0.552959 -1917.06 156.116)" fill="#333333"/>
</g>
</g>
</g>
</g>
</g>
</g>
</g>
</g>
<g id="x 2">
<use xlink:href="#path22_fill" transform="translate(-1886 127)"/>
</g>
</g>
<g id="Arrow 2">
<use xlink:href="#path23_stroke" transform="translate(-1846 143)"/>
</g>
<g id="Population">
<use xlink:href="#path24_fill" transform="translate(-2177 193)"/>
</g>
<g id="Sample">
<use xlink:href="#path25_fill" transform="translate(-1618 154)"/>
</g>
</g>
<defs>
<path id="path0_fill" d="M 4.57031 12.4141L 6.19922 12.4141C 7.22266 12.3984 8.02734 12.1289 8.61328 11.6055C 9.19922 11.082 9.49219 10.375 9.49219 9.48438C 9.49219 7.48437 8.49609 6.48438 6.50391 6.48438C 5.56641 6.48438 4.81641 6.75391 4.25391 7.29297C 3.69922 7.82422 3.42188 8.53125 3.42188 9.41406L 1.25391 9.41406C 1.25391 8.0625 1.74609 6.94141 2.73047 6.05078C 3.72266 5.15234 4.98047 4.70312 6.50391 4.70312C 8.11328 4.70312 9.375 5.12891 10.2891 5.98047C 11.2031 6.83203 11.6602 8.01562 11.6602 9.53125C 11.6602 10.2734 11.418 10.9922 10.9336 11.6875C 10.457 12.3828 9.80469 12.9023 8.97656 13.2461C 9.91406 13.543 10.6367 14.0352 11.1445 14.7227C 11.6602 15.4102 11.918 16.25 11.918 17.2422C 11.918 18.7734 11.418 19.9883 10.418 20.8867C 9.41797 21.7852 8.11719 22.2344 6.51562 22.2344C 4.91406 22.2344 3.60938 21.8008 2.60156 20.9336C 1.60156 20.0664 1.10156 18.9219 1.10156 17.5L 3.28125 17.5C 3.28125 18.3984 3.57422 19.1172 4.16016 19.6562C 4.74609 20.1953 5.53125 20.4648 6.51562 20.4648C 7.5625 20.4648 8.36328 20.1914 8.91797 19.6445C 9.47266 19.0977 9.75 18.3125 9.75 17.2891C 9.75 16.2969 9.44531 15.5352 8.83594 15.0039C 8.22656 14.4727 7.34766 14.1992 6.19922 14.1836L 4.57031 14.1836L 4.57031 12.4141ZM 15.0469 25.3984L 13.8164 24.5547C 14.5508 23.5312 14.9336 22.4766 14.9648 21.3906L 14.9648 19.4336L 17.0859 19.4336L 17.0859 21.1328C 17.0859 21.9219 16.8906 22.7109 16.5 23.5C 16.1172 24.2891 15.6328 24.9219 15.0469 25.3984ZM 26.5547 13.4453L 27.4219 4.9375L 36.1641 4.9375L 36.1641 6.94141L 29.2617 6.94141L 28.7461 11.5938C 29.582 11.1016 30.5312 10.8555 31.5938 10.8555C 33.1484 10.8555 34.3828 11.3711 35.2969 12.4023C 36.2109 13.4258 36.668 14.8125 36.668 16.5625C 36.668 18.3203 36.1914 19.707 35.2383 20.7227C 34.293 21.7305 32.9688 22.2344 31.2656 22.2344C 29.7578 22.2344 28.5273 21.8164 27.5742 20.9805C 26.6211 20.1445 26.0781 18.9883 25.9453 17.5117L 27.9961 17.5117C 28.1289 18.4883 28.4766 19.2266 29.0391 19.7266C 29.6016 20.2188 30.3438 20.4648 31.2656 20.4648C 32.2734 20.4648 33.0625 20.1211 33.6328 19.4336C 34.2109 18.7461 34.5 17.7969 34.5 16.5859C 34.5 15.4453 34.1875 14.5312 33.5625 13.8438C 32.9453 13.1484 32.1211 12.8008 31.0898 12.8008C 30.1445 12.8008 29.4023 13.0078 28.8633 13.4219L 28.2891 13.8906L 26.5547 13.4453Z"/>
<path id="path1_stroke" d="M 314.061 1.06066C 314.646 0.474874 314.646 -0.474874 314.061 -1.06066L 304.515 -10.6066C 303.929 -11.1924 302.979 -11.1924 302.393 -10.6066C 301.808 -10.0208 301.808 -9.07107 302.393 -8.48528L 310.879 0L 302.393 8.48528C 301.808 9.07107 301.808 10.0208 302.393 10.6066C 302.979 11.1924 303.929 11.1924 304.515 10.6066L 314.061 1.06066ZM 0 1.5L 313 1.5L 313 -1.5L 0 -1.5L 0 1.5Z"/>
<path id="path2_fill" d="M 7.00781 14.3945C 5.07812 13.8398 3.67188 13.1602 2.78906 12.3555C 1.91406 11.543 1.47656 10.543 1.47656 9.35547C 1.47656 8.01172 2.01172 6.90234 3.08203 6.02734C 4.16016 5.14453 5.55859 4.70312 7.27734 4.70312C 8.44922 4.70312 9.49219 4.92969 10.4062 5.38281C 11.3281 5.83594 12.0391 6.46094 12.5391 7.25781C 13.0469 8.05469 13.3008 8.92578 13.3008 9.87109L 11.0391 9.87109C 11.0391 8.83984 10.7109 8.03125 10.0547 7.44531C 9.39844 6.85156 8.47266 6.55469 7.27734 6.55469C 6.16797 6.55469 5.30078 6.80078 4.67578 7.29297C 4.05859 7.77734 3.75 8.45312 3.75 9.32031C 3.75 10.0156 4.04297 10.6055 4.62891 11.0898C 5.22266 11.5664 6.22656 12.0039 7.64062 12.4023C 9.0625 12.8008 10.1719 13.2422 10.9688 13.7266C 11.7734 14.2031 12.3672 14.7617 12.75 15.4023C 13.1406 16.043 13.3359 16.7969 13.3359 17.6641C 13.3359 19.0469 12.7969 20.1562 11.7188 20.9922C 10.6406 21.8203 9.19922 22.2344 7.39453 22.2344C 6.22266 22.2344 5.12891 22.0117 4.11328 21.5664C 3.09766 21.1133 2.3125 20.4961 1.75781 19.7148C 1.21094 18.9336 0.9375 18.0469 0.9375 17.0547L 3.19922 17.0547C 3.19922 18.0859 3.57812 18.9023 4.33594 19.5039C 5.10156 20.0977 6.12109 20.3945 7.39453 20.3945C 8.58203 20.3945 9.49219 20.1523 10.125 19.668C 10.7578 19.1836 11.0742 18.5234 11.0742 17.6875C 11.0742 16.8516 10.7812 16.207 10.1953 15.7539C 9.60938 15.293 8.54688 14.8398 7.00781 14.3945ZM 18.2461 22L 16.0781 22L 16.0781 9.32031L 18.2461 9.32031L 18.2461 22ZM 15.9023 5.95703C 15.9023 5.60547 16.0078 5.30859 16.2188 5.06641C 16.4375 4.82422 16.7578 4.70312 17.1797 4.70312C 17.6016 4.70312 17.9219 4.82422 18.1406 5.06641C 18.3594 5.30859 18.4688 5.60547 18.4688 5.95703C 18.4688 6.30859 18.3594 6.60156 18.1406 6.83594C 17.9219 7.07031 17.6016 7.1875 17.1797 7.1875C 16.7578 7.1875 16.4375 7.07031 16.2188 6.83594C 16.0078 6.60156 15.9023 6.30859 15.9023 5.95703ZM 23.7656 9.32031L 23.8242 10.7266C 24.7539 9.63281 26.0078 9.08594 27.5859 9.08594C 29.3594 9.08594 30.5664 9.76562 31.207 11.125C 31.6289 10.5156 32.1758 10.0234 32.8477 9.64844C 33.5273 9.27344 34.3281 9.08594 35.25 9.08594C 38.0312 9.08594 39.4453 10.5586 39.4922 13.5039L 39.4922 22L 37.3242 22L 37.3242 13.6328C 37.3242 12.7266 37.1172 12.0508 36.7031 11.6055C 36.2891 11.1523 35.5938 10.9258 34.6172 10.9258C 33.8125 10.9258 33.1445 11.168 32.6133 11.6523C 32.082 12.1289 31.7734 12.7734 31.6875 13.5859L 31.6875 22L 29.5078 22L 29.5078 13.6914C 29.5078 11.8477 28.6055 10.9258 26.8008 10.9258C 25.3789 10.9258 24.4062 11.5312 23.8828 12.7422L 23.8828 22L 21.7148 22L 21.7148 9.32031L 23.7656 9.32031ZM 53.4844 15.8008C 53.4844 17.7305 53.043 19.2852 52.1602 20.4648C 51.2773 21.6445 50.082 22.2344 48.5742 22.2344C 47.0352 22.2344 45.8242 21.7461 44.9414 20.7695L 44.9414 26.875L 42.7734 26.875L 42.7734 9.32031L 44.7539 9.32031L 44.8594 10.7266C 45.7422 9.63281 46.9688 9.08594 48.5391 9.08594C 50.0625 9.08594 51.2656 9.66016 52.1484 10.8086C 53.0391 11.957 53.4844 13.5547 53.4844 15.6016L 53.4844 15.8008ZM 51.3164 15.5547C 51.3164 14.125 51.0117 12.9961 50.4023 12.168C 49.793 11.3398 48.957 10.9258 47.8945 10.9258C 46.582 10.9258 45.5977 11.5078 44.9414 12.6719L 44.9414 18.7305C 45.5898 19.8867 46.582 20.4648 47.918 20.4648C 48.957 20.4648 49.7812 20.0547 50.3906 19.2344C 51.0078 18.4062 51.3164 17.1797 51.3164 15.5547ZM 58.6055 22L 56.4375 22L 56.4375 4L 58.6055 4L 58.6055 22ZM 67.3477 22.2344C 65.6289 22.2344 64.2305 21.6719 63.1523 20.5469C 62.0742 19.4141 61.5352 17.9023 61.5352 16.0117L 61.5352 15.6133C 61.5352 14.3555 61.7734 13.2344 62.25 12.25C 62.7344 11.2578 63.4062 10.4844 64.2656 9.92969C 65.1328 9.36719 66.0703 9.08594 67.0781 9.08594C 68.7266 9.08594 70.0078 9.62891 70.9219 10.7148C 71.8359 11.8008 72.293 13.3555 72.293 15.3789L 72.293 16.2812L 63.7031 16.2812C 63.7344 17.5312 64.0977 18.543 64.793 19.3164C 65.4961 20.082 66.3867 20.4648 67.4648 20.4648C 68.2305 20.4648 68.8789 20.3086 69.4102 19.9961C 69.9414 19.6836 70.4062 19.2695 70.8047 18.7539L 72.1289 19.7852C 71.0664 21.418 69.4727 22.2344 67.3477 22.2344ZM 67.0781 10.8672C 66.2031 10.8672 65.4688 11.1875 64.875 11.8281C 64.2812 12.4609 63.9141 13.3516 63.7734 14.5L 70.125 14.5L 70.125 14.3359C 70.0625 13.2344 69.7656 12.3828 69.2344 11.7812C 68.7031 11.1719 67.9844 10.8672 67.0781 10.8672ZM 87.5508 12.4961C 87.0898 12.4336 86.6836 12.4023 86.332 12.4023C 85.0508 12.4023 84.2109 12.8359 83.8125 13.7031L 83.8125 22L 80.4258 22L 80.4258 9.32031L 83.625 9.32031L 83.7188 10.832C 84.3984 9.66797 85.3398 9.08594 86.543 9.08594C 86.918 9.08594 87.2695 9.13672 87.5977 9.23828L 87.5508 12.4961ZM 96.1875 22C 96.0312 21.6953 95.918 21.3164 95.8477 20.8633C 95.0273 21.7773 93.9609 22.2344 92.6484 22.2344C 91.4062 22.2344 90.375 21.875 89.5547 21.1562C 88.7422 20.4375 88.3359 19.5312 88.3359 18.4375C 88.3359 17.0938 88.832 16.0625 89.8242 15.3438C 90.8242 14.625 92.2656 14.2617 94.1484 14.2539L 95.707 14.2539L 95.707 13.5273C 95.707 12.9414 95.5547 12.4727 95.25 12.1211C 94.9531 11.7695 94.4805 11.5938 93.832 11.5938C 93.2617 11.5938 92.8125 11.7305 92.4844 12.0039C 92.1641 12.2773 92.0039 12.6523 92.0039 13.1289L 88.6172 13.1289C 88.6172 12.3945 88.8438 11.7148 89.2969 11.0898C 89.75 10.4648 90.3906 9.97656 91.2188 9.625C 92.0469 9.26562 92.9766 9.08594 94.0078 9.08594C 95.5703 9.08594 96.8086 9.48047 97.7227 10.2695C 98.6445 11.0508 99.1055 12.1523 99.1055 13.5742L 99.1055 19.0703C 99.1133 20.2734 99.2812 21.1836 99.6094 21.8008L 99.6094 22L 96.1875 22ZM 93.3867 19.6445C 93.8867 19.6445 94.3477 19.5352 94.7695 19.3164C 95.1914 19.0898 95.5039 18.7891 95.707 18.4141L 95.707 16.2344L 94.4414 16.2344C 92.7461 16.2344 91.8438 16.8203 91.7344 17.9922L 91.7227 18.1914C 91.7227 18.6133 91.8711 18.9609 92.168 19.2344C 92.4648 19.5078 92.8711 19.6445 93.3867 19.6445ZM 104.824 9.32031L 104.93 10.7852C 105.836 9.65234 107.051 9.08594 108.574 9.08594C 109.918 9.08594 110.918 9.48047 111.574 10.2695C 112.23 11.0586 112.566 12.2383 112.582 13.8086L 112.582 22L 109.195 22L 109.195 13.8906C 109.195 13.1719 109.039 12.6523 108.727 12.332C 108.414 12.0039 107.895 11.8398 107.168 11.8398C 106.215 11.8398 105.5 12.2461 105.023 13.0586L 105.023 22L 101.637 22L 101.637 9.32031L 104.824 9.32031ZM 114.633 15.5664C 114.633 13.5898 115.074 12.0156 115.957 10.8438C 116.848 9.67188 118.062 9.08594 119.602 9.08594C 120.836 9.08594 121.855 9.54688 122.66 10.4688L 122.66 4L 126.059 4L 126.059 22L 123 22L 122.836 20.6523C 121.992 21.707 120.906 22.2344 119.578 22.2344C 118.086 22.2344 116.887 21.6484 115.98 20.4766C 115.082 19.2969 114.633 17.6602 114.633 15.5664ZM 118.02 15.8125C 118.02 17 118.227 17.9102 118.641 18.543C 119.055 19.1758 119.656 19.4922 120.445 19.4922C 121.492 19.4922 122.23 19.0508 122.66 18.168L 122.66 13.1641C 122.238 12.2812 121.508 11.8398 120.469 11.8398C 118.836 11.8398 118.02 13.1641 118.02 15.8125ZM 128.156 15.543C 128.156 14.2852 128.398 13.1641 128.883 12.1797C 129.367 11.1953 130.062 10.4336 130.969 9.89453C 131.883 9.35547 132.941 9.08594 134.145 9.08594C 135.855 9.08594 137.25 9.60938 138.328 10.6562C 139.414 11.7031 140.02 13.125 140.145 14.9219L 140.168 15.7891C 140.168 17.7344 139.625 19.2969 138.539 20.4766C 137.453 21.6484 135.996 22.2344 134.168 22.2344C 132.34 22.2344 130.879 21.6484 129.785 20.4766C 128.699 19.3047 128.156 17.7109 128.156 15.6953L 128.156 15.543ZM 131.543 15.7891C 131.543 16.9922 131.77 17.9141 132.223 18.5547C 132.676 19.1875 133.324 19.5039 134.168 19.5039C 134.988 19.5039 135.629 19.1914 136.09 18.5664C 136.551 17.9336 136.781 16.9258 136.781 15.543C 136.781 14.3633 136.551 13.4492 136.09 12.8008C 135.629 12.1523 134.98 11.8281 134.145 11.8281C 133.316 11.8281 132.676 12.1523 132.223 12.8008C 131.77 13.4414 131.543 14.4375 131.543 15.7891ZM 145.43 9.32031L 145.535 10.7383C 146.434 9.63672 147.648 9.08594 149.18 9.08594C 150.812 9.08594 151.934 9.73047 152.543 11.0195C 153.434 9.73047 154.703 9.08594 156.352 9.08594C 157.727 9.08594 158.75 9.48828 159.422 10.293C 160.094 11.0898 160.43 12.293 160.43 13.9023L 160.43 22L 157.031 22L 157.031 13.9141C 157.031 13.1953 156.891 12.6719 156.609 12.3438C 156.328 12.0078 155.832 11.8398 155.121 11.8398C 154.105 11.8398 153.402 12.3242 153.012 13.293L 153.023 22L 149.637 22L 149.637 13.9258C 149.637 13.1914 149.492 12.6602 149.203 12.332C 148.914 12.0039 148.422 11.8398 147.727 11.8398C 146.766 11.8398 146.07 12.2383 145.641 13.0352L 145.641 22L 142.254 22L 142.254 9.32031L 145.43 9.32031ZM 176.719 18.6367C 176.719 18.0508 176.496 17.5977 176.051 17.2773C 175.613 16.9492 174.844 16.668 173.742 16.4336C 172.648 16.1992 171.777 15.918 171.129 15.5898C 170.488 15.2617 170.012 14.8711 169.699 14.418C 169.395 13.9648 169.242 13.4258 169.242 12.8008C 169.242 11.7617 169.68 10.8828 170.555 10.1641C 171.438 9.44531 172.562 9.08594 173.93 9.08594C 175.367 9.08594 176.531 9.45703 177.422 10.1992C 178.32 10.9414 178.77 11.8906 178.77 13.0469L 176.59 13.0469C 176.59 12.4531 176.336 11.9414 175.828 11.5117C 175.328 11.082 174.695 10.8672 173.93 10.8672C 173.141 10.8672 172.523 11.0391 172.078 11.3828C 171.633 11.7266 171.41 12.1758 171.41 12.7305C 171.41 13.2539 171.617 13.6484 172.031 13.9141C 172.445 14.1797 173.191 14.4336 174.27 14.6758C 175.355 14.918 176.234 15.207 176.906 15.543C 177.578 15.8789 178.074 16.2852 178.395 16.7617C 178.723 17.2305 178.887 17.8047 178.887 18.4844C 178.887 19.6172 178.434 20.5273 177.527 21.2148C 176.621 21.8945 175.445 22.2344 174 22.2344C 172.984 22.2344 172.086 22.0547 171.305 21.6953C 170.523 21.3359 169.91 20.8359 169.465 20.1953C 169.027 19.5469 168.809 18.8477 168.809 18.0977L 170.977 18.0977C 171.016 18.8242 171.305 19.4023 171.844 19.832C 172.391 20.2539 173.109 20.4648 174 20.4648C 174.82 20.4648 175.477 20.3008 175.969 19.9727C 176.469 19.6367 176.719 19.1914 176.719 18.6367ZM 189.539 22C 189.414 21.75 189.312 21.3047 189.234 20.6641C 188.227 21.7109 187.023 22.2344 185.625 22.2344C 184.375 22.2344 183.348 21.8828 182.543 21.1797C 181.746 20.4688 181.348 19.5703 181.348 18.4844C 181.348 17.1641 181.848 16.1406 182.848 15.4141C 183.855 14.6797 185.27 14.3125 187.09 14.3125L 189.199 14.3125L 189.199 13.3164C 189.199 12.5586 188.973 11.957 188.52 11.5117C 188.066 11.0586 187.398 10.832 186.516 10.832C 185.742 10.832 185.094 11.0273 184.57 11.418C 184.047 11.8086 183.785 12.2812 183.785 12.8359L 181.605 12.8359C 181.605 12.2031 181.828 11.5938 182.273 11.0078C 182.727 10.4141 183.336 9.94531 184.102 9.60156C 184.875 9.25781 185.723 9.08594 186.645 9.08594C 188.105 9.08594 189.25 9.45312 190.078 10.1875C 190.906 10.9141 191.336 11.918 191.367 13.1992L 191.367 19.0352C 191.367 20.1992 191.516 21.125 191.812 21.8125L 191.812 22L 189.539 22ZM 185.941 20.3477C 186.621 20.3477 187.266 20.1719 187.875 19.8203C 188.484 19.4688 188.926 19.0117 189.199 18.4492L 189.199 15.8477L 187.5 15.8477C 184.844 15.8477 183.516 16.625 183.516 18.1797C 183.516 18.8594 183.742 19.3906 184.195 19.7734C 184.648 20.1562 185.23 20.3477 185.941 20.3477ZM 196.805 9.32031L 196.863 10.7266C 197.793 9.63281 199.047 9.08594 200.625 9.08594C 202.398 9.08594 203.605 9.76562 204.246 11.125C 204.668 10.5156 205.215 10.0234 205.887 9.64844C 206.566 9.27344 207.367 9.08594 208.289 9.08594C 211.07 9.08594 212.484 10.5586 212.531 13.5039L 212.531 22L 210.363 22L 210.363 13.6328C 210.363 12.7266 210.156 12.0508 209.742 11.6055C 209.328 11.1523 208.633 10.9258 207.656 10.9258C 206.852 10.9258 206.184 11.168 205.652 11.6523C 205.121 12.1289 204.812 12.7734 204.727 13.5859L 204.727 22L 202.547 22L 202.547 13.6914C 202.547 11.8477 201.645 10.9258 199.84 10.9258C 198.418 10.9258 197.445 11.5312 196.922 12.7422L 196.922 22L 194.754 22L 194.754 9.32031L 196.805 9.32031ZM 226.523 15.8008C 226.523 17.7305 226.082 19.2852 225.199 20.4648C 224.316 21.6445 223.121 22.2344 221.613 22.2344C 220.074 22.2344 218.863 21.7461 217.98 20.7695L 217.98 26.875L 215.812 26.875L 215.812 9.32031L 217.793 9.32031L 217.898 10.7266C 218.781 9.63281 220.008 9.08594 221.578 9.08594C 223.102 9.08594 224.305 9.66016 225.188 10.8086C 226.078 11.957 226.523 13.5547 226.523 15.6016L 226.523 15.8008ZM 224.355 15.5547C 224.355 14.125 224.051 12.9961 223.441 12.168C 222.832 11.3398 221.996 10.9258 220.934 10.9258C 219.621 10.9258 218.637 11.5078 217.98 12.6719L 217.98 18.7305C 218.629 19.8867 219.621 20.4648 220.957 20.4648C 221.996 20.4648 222.82 20.0547 223.43 19.2344C 224.047 18.4062 224.355 17.1797 224.355 15.5547ZM 231.645 22L 229.477 22L 229.477 4L 231.645 4L 231.645 22ZM 237.48 22L 235.312 22L 235.312 9.32031L 237.48 9.32031L 237.48 22ZM 235.137 5.95703C 235.137 5.60547 235.242 5.30859 235.453 5.06641C 235.672 4.82422 235.992 4.70312 236.414 4.70312C 236.836 4.70312 237.156 4.82422 237.375 5.06641C 237.594 5.30859 237.703 5.60547 237.703 5.95703C 237.703 6.30859 237.594 6.60156 237.375 6.83594C 237.156 7.07031 236.836 7.1875 236.414 7.1875C 235.992 7.1875 235.672 7.07031 235.453 6.83594C 235.242 6.60156 235.137 6.30859 235.137 5.95703ZM 243.012 9.32031L 243.082 10.9141C 244.051 9.69531 245.316 9.08594 246.879 9.08594C 249.559 9.08594 250.91 10.5977 250.934 13.6211L 250.934 22L 248.766 22L 248.766 13.6094C 248.758 12.6953 248.547 12.0195 248.133 11.582C 247.727 11.1445 247.09 10.9258 246.223 10.9258C 245.52 10.9258 244.902 11.1133 244.371 11.4883C 243.84 11.8633 243.426 12.3555 243.129 12.9648L 243.129 22L 240.961 22L 240.961 9.32031L 243.012 9.32031ZM 253.688 15.5547C 253.688 13.5781 254.145 12.0078 255.059 10.8438C 255.973 9.67188 257.184 9.08594 258.691 9.08594C 260.238 9.08594 261.445 9.63281 262.312 10.7266L 262.418 9.32031L 264.398 9.32031L 264.398 21.6953C 264.398 23.3359 263.91 24.6289 262.934 25.5742C 261.965 26.5195 260.66 26.9922 259.02 26.9922C 258.105 26.9922 257.211 26.7969 256.336 26.4062C 255.461 26.0156 254.793 25.4805 254.332 24.8008L 255.457 23.5C 256.387 24.6484 257.523 25.2227 258.867 25.2227C 259.922 25.2227 260.742 24.9258 261.328 24.332C 261.922 23.7383 262.219 22.9023 262.219 21.8242L 262.219 20.7344C 261.352 21.7344 260.168 22.2344 258.668 22.2344C 257.184 22.2344 255.98 21.6367 255.059 20.4414C 254.145 19.2461 253.688 17.6172 253.688 15.5547ZM 255.867 15.8008C 255.867 17.2305 256.16 18.3555 256.746 19.1758C 257.332 19.9883 258.152 20.3945 259.207 20.3945C 260.574 20.3945 261.578 19.7734 262.219 18.5312L 262.219 12.7422C 261.555 11.5312 260.559 10.9258 259.23 10.9258C 258.176 10.9258 257.352 11.3359 256.758 12.1562C 256.164 12.9766 255.867 14.1914 255.867 15.8008Z"/>
<path id="path3_fill" d="M 0 0L 65 0L 65 65L 0 65L 0 0Z"/>
<path id="path4_stroke_2x" d="M 0 0L 0 -1L -1 -1L -1 0L 0 0ZM 65 0L 66 0L 66 -1L 65 -1L 65 0ZM 65 65L 65 66L 66 66L 66 65L 65 65ZM 0 65L -1 65L -1 66L 0 66L 0 65ZM 0 1L 65 1L 65 -1L 0 -1L 0 1ZM 64 0L 64 65L 66 65L 66 0L 64 0ZM 65 64L 0 64L 0 66L 65 66L 65 64ZM 1 65L 1 0L -1 0L -1 65L 1 65Z"/>
<path id="path5_fill" d="M 8.54297 22L 6.36328 22L 6.36328 7.55078L 1.99219 9.15625L 1.99219 7.1875L 8.20312 4.85547L 8.54297 4.85547L 8.54297 22Z"/>
<path id="path6_fill" d="M 12.5977 22L 1.41797 22L 1.41797 20.4414L 7.32422 13.8789C 8.19922 12.8867 8.80078 12.082 9.12891 11.4648C 9.46484 10.8398 9.63281 10.1953 9.63281 9.53125C 9.63281 8.64062 9.36328 7.91016 8.82422 7.33984C 8.28516 6.76953 7.56641 6.48438 6.66797 6.48438C 5.58984 6.48438 4.75 6.79297 4.14844 7.41016C 3.55469 8.01953 3.25781 8.87109 3.25781 9.96484L 1.08984 9.96484C 1.08984 8.39453 1.59375 7.125 2.60156 6.15625C 3.61719 5.1875 4.97266 4.70312 6.66797 4.70312C 8.25391 4.70312 9.50781 5.12109 10.4297 5.95703C 11.3516 6.78516 11.8125 7.89062 11.8125 9.27344C 11.8125 10.9531 10.7422 12.9531 8.60156 15.2734L 4.03125 20.2305L 12.5977 20.2305L 12.5977 22Z"/>
<path id="path7_fill" d="M 4.57031 12.4141L 6.19922 12.4141C 7.22266 12.3984 8.02734 12.1289 8.61328 11.6055C 9.19922 11.082 9.49219 10.375 9.49219 9.48438C 9.49219 7.48437 8.49609 6.48438 6.50391 6.48438C 5.56641 6.48438 4.81641 6.75391 4.25391 7.29297C 3.69922 7.82422 3.42188 8.53125 3.42188 9.41406L 1.25391 9.41406C 1.25391 8.0625 1.74609 6.94141 2.73047 6.05078C 3.72266 5.15234 4.98047 4.70312 6.50391 4.70312C 8.11328 4.70312 9.375 5.12891 10.2891 5.98047C 11.2031 6.83203 11.6602 8.01562 11.6602 9.53125C 11.6602 10.2734 11.418 10.9922 10.9336 11.6875C 10.457 12.3828 9.80469 12.9023 8.97656 13.2461C 9.91406 13.543 10.6367 14.0352 11.1445 14.7227C 11.6602 15.4102 11.918 16.25 11.918 17.2422C 11.918 18.7734 11.418 19.9883 10.418 20.8867C 9.41797 21.7852 8.11719 22.2344 6.51562 22.2344C 4.91406 22.2344 3.60938 21.8008 2.60156 20.9336C 1.60156 20.0664 1.10156 18.9219 1.10156 17.5L 3.28125 17.5C 3.28125 18.3984 3.57422 19.1172 4.16016 19.6562C 4.74609 20.1953 5.53125 20.4648 6.51562 20.4648C 7.5625 20.4648 8.36328 20.1914 8.91797 19.6445C 9.47266 19.0977 9.75 18.3125 9.75 17.2891C 9.75 16.2969 9.44531 15.5352 8.83594 15.0039C 8.22656 14.4727 7.34766 14.1992 6.19922 14.1836L 4.57031 14.1836L 4.57031 12.4141Z"/>
<path id="path8_fill" d="M 4.57031 12.4141L 6.19922 12.4141C 7.22266 12.3984 8.02734 12.1289 8.61328 11.6055C 9.19922 11.082 9.49219 10.375 9.49219 9.48438C 9.49219 7.48438 8.49609 6.48438 6.50391 6.48438C 5.56641 6.48438 4.81641 6.75391 4.25391 7.29297C 3.69922 7.82422 3.42188 8.53125 3.42188 9.41406L 1.25391 9.41406C 1.25391 8.0625 1.74609 6.94141 2.73047 6.05078C 3.72266 5.15234 4.98047 4.70312 6.50391 4.70312C 8.11328 4.70312 9.375 5.12891 10.2891 5.98047C 11.2031 6.83203 11.6602 8.01562 11.6602 9.53125C 11.6602 10.2734 11.418 10.9922 10.9336 11.6875C 10.457 12.3828 9.80469 12.9023 8.97656 13.2461C 9.91406 13.543 10.6367 14.0352 11.1445 14.7227C 11.6602 15.4102 11.918 16.25 11.918 17.2422C 11.918 18.7734 11.418 19.9883 10.418 20.8867C 9.41797 21.7852 8.11719 22.2344 6.51562 22.2344C 4.91406 22.2344 3.60938 21.8008 2.60156 20.9336C 1.60156 20.0664 1.10156 18.9219 1.10156 17.5L 3.28125 17.5C 3.28125 18.3984 3.57422 19.1172 4.16016 19.6562C 4.74609 20.1953 5.53125 20.4648 6.51562 20.4648C 7.5625 20.4648 8.36328 20.1914 8.91797 19.6445C 9.47266 19.0977 9.75 18.3125 9.75 17.2891C 9.75 16.2969 9.44531 15.5352 8.83594 15.0039C 8.22656 14.4727 7.34766 14.1992 6.19922 14.1836L 4.57031 14.1836L 4.57031 12.4141Z"/>
<path id="path9_fill" d="M 10.5703 16.2695L 12.9375 16.2695L 12.9375 18.0391L 10.5703 18.0391L 10.5703 22L 8.39062 22L 8.39062 18.0391L 0.621094 18.0391L 0.621094 16.7617L 8.26172 4.9375L 10.5703 4.9375L 10.5703 16.2695ZM 3.08203 16.2695L 8.39062 16.2695L 8.39062 7.90234L 8.13281 8.37109L 3.08203 16.2695Z"/>
<path id="path10_fill" d="M 2.41406 13.4453L 3.28125 4.9375L 12.0234 4.9375L 12.0234 6.94141L 5.12109 6.94141L 4.60547 11.5938C 5.44141 11.1016 6.39062 10.8555 7.45312 10.8555C 9.00781 10.8555 10.2422 11.3711 11.1562 12.4023C 12.0703 13.4258 12.5273 14.8125 12.5273 16.5625C 12.5273 18.3203 12.0508 19.707 11.0977 20.7227C 10.1523 21.7305 8.82812 22.2344 7.125 22.2344C 5.61719 22.2344 4.38672 21.8164 3.43359 20.9805C 2.48047 20.1445 1.9375 18.9883 1.80469 17.5117L 3.85547 17.5117C 3.98828 18.4883 4.33594 19.2266 4.89844 19.7266C 5.46094 20.2188 6.20312 20.4648 7.125 20.4648C 8.13281 20.4648 8.92188 20.1211 9.49219 19.4336C 10.0703 18.7461 10.3594 17.7969 10.3594 16.5859C 10.3594 15.4453 10.0469 14.5312 9.42188 13.8438C 8.80469 13.1484 7.98047 12.8008 6.94922 12.8008C 6.00391 12.8008 5.26172 13.0078 4.72266 13.4219L 4.14844 13.8906L 2.41406 13.4453Z"/>
<path id="path11_fill" d="M 2.41406 13.4453L 3.28125 4.9375L 12.0234 4.9375L 12.0234 6.94141L 5.12109 6.94141L 4.60547 11.5938C 5.44141 11.1016 6.39062 10.8555 7.45312 10.8555C 9.00781 10.8555 10.2422 11.3711 11.1562 12.4023C 12.0703 13.4258 12.5273 14.8125 12.5273 16.5625C 12.5273 18.3203 12.0508 19.707 11.0977 20.7227C 10.1523 21.7305 8.82812 22.2344 7.125 22.2344C 5.61719 22.2344 4.38672 21.8164 3.43359 20.9805C 2.48047 20.1445 1.9375 18.9883 1.80469 17.5117L 3.85547 17.5117C 3.98828 18.4883 4.33594 19.2266 4.89844 19.7266C 5.46094 20.2188 6.20312 20.4648 7.125 20.4648C 8.13281 20.4648 8.92187 20.1211 9.49219 19.4336C 10.0703 18.7461 10.3594 17.7969 10.3594 16.5859C 10.3594 15.4453 10.0469 14.5313 9.42188 13.8438C 8.80469 13.1484 7.98047 12.8008 6.94922 12.8008C 6.00391 12.8008 5.26172 13.0078 4.72266 13.4219L 4.14844 13.8906L 2.41406 13.4453Z"/>
<path id="path12_fill" d="M 9.92578 4.92578L 9.92578 6.76562L 9.52734 6.76562C 7.83984 6.79688 6.49609 7.29687 5.49609 8.26562C 4.49609 9.23438 3.91797 10.5977 3.76172 12.3555C 4.66016 11.3242 5.88672 10.8086 7.44141 10.8086C 8.92578 10.8086 10.1094 11.332 10.9922 12.3789C 11.8828 13.4258 12.3281 14.7773 12.3281 16.4336C 12.3281 18.1914 11.8477 19.5977 10.8867 20.6523C 9.93359 21.707 8.65234 22.2344 7.04297 22.2344C 5.41016 22.2344 4.08594 21.6094 3.07031 20.3594C 2.05469 19.1016 1.54688 17.4844 1.54688 15.5078L 1.54688 14.6758C 1.54688 11.5352 2.21484 9.13672 3.55078 7.48047C 4.89453 5.81641 6.89062 4.96484 9.53906 4.92578L 9.92578 4.92578ZM 7.07812 12.6133C 6.33594 12.6133 5.65234 12.8359 5.02734 13.2812C 4.40234 13.7266 3.96875 14.2852 3.72656 14.957L 3.72656 15.7539C 3.72656 17.1602 4.04297 18.293 4.67578 19.1523C 5.30859 20.0117 6.09766 20.4414 7.04297 20.4414C 8.01953 20.4414 8.78516 20.082 9.33984 19.3633C 9.90234 18.6445 10.1836 17.7031 10.1836 16.5391C 10.1836 15.3672 9.89844 14.4219 9.32812 13.7031C 8.76562 12.9766 8.01562 12.6133 7.07812 12.6133Z"/>
<path id="path13_fill" d="M 5.13264 1.70898C 5.13264 2.65283 3.98366 3.41796 2.56632 3.41796C 1.14898 3.41796 0 2.65283 0 1.70898C 0 0.765137 1.14898 0 2.56632 0C 3.98366 0 5.13264 0.765137 5.13264 1.70898Z"/>
<path id="path14_fill" d="M 0 0L 19.3935 3.95058L 23.9375 23.212L 4.21508 19.6007L 0 0Z"/>
<path id="path15_fill" d="M 1.11084 1.09878L 1.28151 0.261053L 2.91259e-08 -2.88625e-08L 0.274939 1.2785L 1.11084 1.09878ZM 20.5043 5.04935L 21.3365 4.85307L 21.2109 4.3208L 20.675 4.21163L 20.5043 5.04935ZM 25.0483 24.3108L 24.8943 25.1517L 26.1808 25.3873L 25.8805 24.1145L 25.0483 24.3108ZM 5.32592 20.6995L 4.49002 20.8792L 4.61009 21.4375L 5.1719 21.5404L 5.32592 20.6995ZM 0.940157 1.9365L 20.3336 5.88706L 20.675 4.21163L 1.28151 0.261053L 0.940157 1.9365ZM 19.6722 5.24564L 24.2162 24.5071L 25.8805 24.1145L 21.3365 4.85307L 19.6722 5.24564ZM 25.2024 23.4699L 5.47994 19.8585L 5.1719 21.5404L 24.8943 25.1517L 25.2024 23.4699ZM 6.1618 20.5197L 1.94673 0.91905L 0.274939 1.2785L 4.49002 20.8792L 6.1618 20.5197Z"/>
<path id="path16_fill" d="M 5.12565 1.71131C 5.12565 2.65644 3.97823 3.42262 2.56282 3.42262C 1.14741 3.42262 0 2.65644 0 1.71131C 0 0.76618 1.14741 0 2.56282 0C 3.97823 0 5.12565 0.76618 5.12565 1.71131Z"/>
<path id="path17_fill" d="M 0 0.854275L 17.1131 0.854275L 17.1131 0L 0 0L 0 0.854275Z"/>
<path id="path18_fill" d="M 0 0.855226L 19.5698 0.855226L 19.5698 0L 0 0L 0 0.855226Z"/>
<path id="path19_fill" d="M 0 0.8553L 18.8456 0.8553L 18.8456 0L 0 0L 0 0.8553Z"/>
<path id="path20_fill" d="M 5.13222 1.70912C 5.13222 2.65304 3.98334 3.41824 2.56611 3.41824C 1.14889 3.41824 0 2.65304 0 1.70912C 0 0.765199 1.14889 0 2.56611 0C 3.98334 0 5.13222 0.765199 5.13222 1.70912Z"/>
<path id="path21_fill" d="M 5.13141 1.70939C 5.13141 2.65346 3.98271 3.41878 2.56571 3.41878C 1.14871 3.41878 0 2.65346 0 1.70939C 0 0.76532 1.14871 0 2.56571 0C 3.98271 0 5.13141 0.76532 5.13141 1.70939Z"/>
<path id="path22_fill" d="M 6.22656 13.9492L 9.03906 9.32031L 11.5703 9.32031L 7.42188 15.5898L 11.6992 22L 9.19141 22L 6.26172 17.2539L 3.33203 22L 0.8125 22L 5.08984 15.5898L 0.941406 9.32031L 3.44922 9.32031L 6.22656 13.9492ZM 30.7891 22L 19.6094 22L 19.6094 20.4414L 25.5156 13.8789C 26.3906 12.8867 26.9922 12.082 27.3203 11.4648C 27.6563 10.8398 27.8242 10.1953 27.8242 9.53125C 27.8242 8.64062 27.5547 7.91016 27.0156 7.33984C 26.4766 6.76953 25.7578 6.48438 24.8594 6.48438C 23.7812 6.48438 22.9414 6.79297 22.3398 7.41016C 21.7461 8.01953 21.4492 8.87109 21.4492 9.96484L 19.2812 9.96484C 19.2812 8.39453 19.7852 7.125 20.793 6.15625C 21.8086 5.1875 23.1641 4.70312 24.8594 4.70312C 26.4453 4.70312 27.6992 5.12109 28.6211 5.95703C 29.543 6.78516 30.0039 7.89062 30.0039 9.27344C 30.0039 10.9531 28.9336 12.9531 26.793 15.2734L 22.2227 20.2305L 30.7891 20.2305L 30.7891 22Z"/>
<path id="path23_stroke" d="M 61.0607 1.06066C 61.6464 0.474874 61.6464 -0.474874 61.0607 -1.06066L 51.5147 -10.6066C 50.9289 -11.1924 49.9792 -11.1924 49.3934 -10.6066C 48.8076 -10.0208 48.8076 -9.07107 49.3934 -8.48528L 57.8787 0L 49.3934 8.48528C 48.8076 9.07107 48.8076 10.0208 49.3934 10.6066C 49.9792 11.1924 50.9289 11.1924 51.5147 10.6066L 61.0607 1.06066ZM 0 1.5L 60 1.5L 60 -1.5L 0 -1.5L 0 1.5Z"/>
<path id="path24_fill" d="M 5.03906 15.9883L 5.03906 22L 1.52344 22L 1.52344 4.9375L 8.17969 4.9375C 9.46094 4.9375 10.5859 5.17188 11.5547 5.64062C 12.5312 6.10938 13.2812 6.77734 13.8047 7.64453C 14.3281 8.50391 14.5898 9.48438 14.5898 10.5859C 14.5898 12.2578 14.0156 13.5781 12.8672 14.5469C 11.7266 15.5078 10.1445 15.9883 8.12109 15.9883L 5.03906 15.9883ZM 5.03906 13.1406L 8.17969 13.1406C 9.10938 13.1406 9.81641 12.9219 10.3008 12.4844C 10.793 12.0469 11.0391 11.4219 11.0391 10.6094C 11.0391 9.77344 10.793 9.09766 10.3008 8.58203C 9.80859 8.06641 9.12891 7.80078 8.26172 7.78516L 5.03906 7.78516L 5.03906 13.1406ZM 16.1016 15.543C 16.1016 14.2852 16.3438 13.1641 16.8281 12.1797C 17.3125 11.1953 18.0078 10.4336 18.9141 9.89453C 19.8281 9.35547 20.8867 9.08594 22.0898 9.08594C 23.8008 9.08594 25.1953 9.60938 26.2734 10.6562C 27.3594 11.7031 27.9648 13.125 28.0898 14.9219L 28.1133 15.7891C 28.1133 17.7344 27.5703 19.2969 26.4844 20.4766C 25.3984 21.6484 23.9414 22.2344 22.1133 22.2344C 20.2852 22.2344 18.8242 21.6484 17.7305 20.4766C 16.6445 19.3047 16.1016 17.7109 16.1016 15.6953L 16.1016 15.543ZM 19.4883 15.7891C 19.4883 16.9922 19.7148 17.9141 20.168 18.5547C 20.6211 19.1875 21.2695 19.5039 22.1133 19.5039C 22.9336 19.5039 23.5742 19.1914 24.0352 18.5664C 24.4961 17.9336 24.7266 16.9258 24.7266 15.543C 24.7266 14.3633 24.4961 13.4492 24.0352 12.8008C 23.5742 12.1523 22.9258 11.8281 22.0898 11.8281C 21.2617 11.8281 20.6211 12.1523 20.168 12.8008C 19.7148 13.4414 19.4883 14.4375 19.4883 15.7891ZM 41.6133 15.7773C 41.6133 17.7305 41.168 19.2969 40.2773 20.4766C 39.3945 21.6484 38.1992 22.2344 36.6914 22.2344C 35.4102 22.2344 34.375 21.7891 33.5859 20.8984L 33.5859 26.875L 30.1992 26.875L 30.1992 9.32031L 33.3398 9.32031L 33.457 10.5625C 34.2773 9.57812 35.3477 9.08594 36.668 9.08594C 38.2305 9.08594 39.4453 9.66406 40.3125 10.8203C 41.1797 11.9766 41.6133 13.5703 41.6133 15.6016L 41.6133 15.7773ZM 38.2266 15.5312C 38.2266 14.3516 38.0156 13.4414 37.5938 12.8008C 37.1797 12.1602 36.5742 11.8398 35.7773 11.8398C 34.7148 11.8398 33.9844 12.2461 33.5859 13.0586L 33.5859 18.25C 34 19.0859 34.7383 19.5039 35.8008 19.5039C 37.418 19.5039 38.2266 18.1797 38.2266 15.5312ZM 51.3164 20.7109C 50.4805 21.7266 49.3242 22.2344 47.8477 22.2344C 46.4883 22.2344 45.4492 21.8438 44.7305 21.0625C 44.0195 20.2812 43.6562 19.1367 43.6406 17.6289L 43.6406 9.32031L 47.0273 9.32031L 47.0273 17.5117C 47.0273 18.832 47.6289 19.4922 48.832 19.4922C 49.9805 19.4922 50.7695 19.0938 51.1992 18.2969L 51.1992 9.32031L 54.5977 9.32031L 54.5977 22L 51.4102 22L 51.3164 20.7109ZM 60.7266 22L 57.3281 22L 57.3281 4L 60.7266 4L 60.7266 22ZM 70.875 22C 70.7188 21.6953 70.6055 21.3164 70.5352 20.8633C 69.7148 21.7773 68.6484 22.2344 67.3359 22.2344C 66.0938 22.2344 65.0625 21.875 64.2422 21.1562C 63.4297 20.4375 63.0234 19.5312 63.0234 18.4375C 63.0234 17.0938 63.5195 16.0625 64.5117 15.3438C 65.5117 14.625 66.9531 14.2617 68.8359 14.2539L 70.3945 14.2539L 70.3945 13.5273C 70.3945 12.9414 70.2422 12.4727 69.9375 12.1211C 69.6406 11.7695 69.168 11.5938 68.5195 11.5938C 67.9492 11.5938 67.5 11.7305 67.1719 12.0039C 66.8516 12.2773 66.6914 12.6523 66.6914 13.1289L 63.3047 13.1289C 63.3047 12.3945 63.5312 11.7148 63.9844 11.0898C 64.4375 10.4648 65.0781 9.97656 65.9062 9.625C 66.7344 9.26562 67.6641 9.08594 68.6953 9.08594C 70.2578 9.08594 71.4961 9.48047 72.4102 10.2695C 73.332 11.0508 73.793 12.1523 73.793 13.5742L 73.793 19.0703C 73.8008 20.2734 73.9688 21.1836 74.2969 21.8008L 74.2969 22L 70.875 22ZM 68.0742 19.6445C 68.5742 19.6445 69.0352 19.5352 69.457 19.3164C 69.8789 19.0898 70.1914 18.7891 70.3945 18.4141L 70.3945 16.2344L 69.1289 16.2344C 67.4336 16.2344 66.5312 16.8203 66.4219 17.9922L 66.4102 18.1914C 66.4102 18.6133 66.5586 18.9609 66.8555 19.2344C 67.1523 19.5078 67.5586 19.6445 68.0742 19.6445ZM 80.4492 6.20312L 80.4492 9.32031L 82.6172 9.32031L 82.6172 11.8047L 80.4492 11.8047L 80.4492 18.1328C 80.4492 18.6016 80.5391 18.9375 80.7188 19.1406C 80.8984 19.3438 81.2422 19.4453 81.75 19.4453C 82.125 19.4453 82.457 19.418 82.7461 19.3633L 82.7461 21.9297C 82.082 22.1328 81.3984 22.2344 80.6953 22.2344C 78.3203 22.2344 77.1094 21.0352 77.0625 18.6367L 77.0625 11.8047L 75.2109 11.8047L 75.2109 9.32031L 77.0625 9.32031L 77.0625 6.20312L 80.4492 6.20312ZM 88.0781 22L 84.6797 22L 84.6797 9.32031L 88.0781 9.32031L 88.0781 22ZM 84.4805 6.03906C 84.4805 5.53125 84.6484 5.11328 84.9844 4.78516C 85.3281 4.45703 85.793 4.29297 86.3789 4.29297C 86.957 4.29297 87.418 4.45703 87.7617 4.78516C 88.1055 5.11328 88.2773 5.53125 88.2773 6.03906C 88.2773 6.55469 88.1016 6.97656 87.75 7.30469C 87.4062 7.63281 86.9492 7.79688 86.3789 7.79688C 85.8086 7.79688 85.3477 7.63281 84.9961 7.30469C 84.6523 6.97656 84.4805 6.55469 84.4805 6.03906ZM 90.3516 15.543C 90.3516 14.2852 90.5938 13.1641 91.0781 12.1797C 91.5625 11.1953 92.2578 10.4336 93.1641 9.89453C 94.0781 9.35547 95.1367 9.08594 96.3398 9.08594C 98.0508 9.08594 99.4453 9.60938 100.523 10.6562C 101.609 11.7031 102.215 13.125 102.34 14.9219L 102.363 15.7891C 102.363 17.7344 101.82 19.2969 100.734 20.4766C 99.6484 21.6484 98.1914 22.2344 96.3633 22.2344C 94.5352 22.2344 93.0742 21.6484 91.9805 20.4766C 90.8945 19.3047 90.3516 17.7109 90.3516 15.6953L 90.3516 15.543ZM 93.7383 15.7891C 93.7383 16.9922 93.9648 17.9141 94.418 18.5547C 94.8711 19.1875 95.5195 19.5039 96.3633 19.5039C 97.1836 19.5039 97.8242 19.1914 98.2852 18.5664C 98.7461 17.9336 98.9766 16.9258 98.9766 15.543C 98.9766 14.3633 98.7461 13.4492 98.2852 12.8008C 97.8242 12.1523 97.1758 11.8281 96.3398 11.8281C 95.5117 11.8281 94.8711 12.1523 94.418 12.8008C 93.9648 13.4414 93.7383 14.4375 93.7383 15.7891ZM 107.566 9.32031L 107.672 10.7852C 108.578 9.65234 109.793 9.08594 111.316 9.08594C 112.66 9.08594 113.66 9.48047 114.316 10.2695C 114.973 11.0586 115.309 12.2383 115.324 13.8086L 115.324 22L 111.938 22L 111.938 13.8906C 111.938 13.1719 111.781 12.6523 111.469 12.332C 111.156 12.0039 110.637 11.8398 109.91 11.8398C 108.957 11.8398 108.242 12.2461 107.766 13.0586L 107.766 22L 104.379 22L 104.379 9.32031L 107.566 9.32031Z"/>
<path id="path25_fill" d="M 10.3711 17.5234C 10.3711 16.8594 10.1367 16.3516 9.66797 16C 9.19922 15.6406 8.35547 15.2656 7.13672 14.875C 5.91797 14.4766 4.95312 14.0859 4.24219 13.7031C 2.30469 12.6562 1.33594 11.2461 1.33594 9.47266C 1.33594 8.55078 1.59375 7.73047 2.10938 7.01172C 2.63281 6.28516 3.37891 5.71875 4.34766 5.3125C 5.32422 4.90625 6.41797 4.70312 7.62891 4.70312C 8.84766 4.70312 9.93359 4.92578 10.8867 5.37109C 11.8398 5.80859 12.5781 6.42969 13.1016 7.23438C 13.6328 8.03906 13.8984 8.95312 13.8984 9.97656L 10.3828 9.97656C 10.3828 9.19531 10.1367 8.58984 9.64453 8.16016C 9.15234 7.72266 8.46094 7.50391 7.57031 7.50391C 6.71094 7.50391 6.04297 7.6875 5.56641 8.05469C 5.08984 8.41406 4.85156 8.89062 4.85156 9.48438C 4.85156 10.0391 5.12891 10.5039 5.68359 10.8789C 6.24609 11.2539 7.07031 11.6055 8.15625 11.9336C 10.1562 12.5352 11.6133 13.2812 12.5273 14.1719C 13.4414 15.0625 13.8984 16.1719 13.8984 17.5C 13.8984 18.9766 13.3398 20.1367 12.2227 20.9805C 11.1055 21.8164 9.60156 22.2344 7.71094 22.2344C 6.39844 22.2344 5.20312 21.9961 4.125 21.5195C 3.04688 21.0352 2.22266 20.375 1.65234 19.5391C 1.08984 18.7031 0.808594 17.7344 0.808594 16.6328L 4.33594 16.6328C 4.33594 18.5156 5.46094 19.457 7.71094 19.457C 8.54688 19.457 9.19922 19.2891 9.66797 18.9531C 10.1367 18.6094 10.3711 18.1328 10.3711 17.5234ZM 23.4141 22C 23.2578 21.6953 23.1445 21.3164 23.0742 20.8633C 22.2539 21.7773 21.1875 22.2344 19.875 22.2344C 18.6328 22.2344 17.6016 21.875 16.7812 21.1562C 15.9688 20.4375 15.5625 19.5312 15.5625 18.4375C 15.5625 17.0938 16.0586 16.0625 17.0508 15.3438C 18.0508 14.625 19.4922 14.2617 21.375 14.2539L 22.9336 14.2539L 22.9336 13.5273C 22.9336 12.9414 22.7812 12.4727 22.4766 12.1211C 22.1797 11.7695 21.707 11.5938 21.0586 11.5938C 20.4883 11.5938 20.0391 11.7305 19.7109 12.0039C 19.3906 12.2773 19.2305 12.6523 19.2305 13.1289L 15.8438 13.1289C 15.8438 12.3945 16.0703 11.7148 16.5234 11.0898C 16.9766 10.4648 17.6172 9.97656 18.4453 9.625C 19.2734 9.26562 20.2031 9.08594 21.2344 9.08594C 22.7969 9.08594 24.0352 9.48047 24.9492 10.2695C 25.8711 11.0508 26.332 12.1523 26.332 13.5742L 26.332 19.0703C 26.3398 20.2734 26.5078 21.1836 26.8359 21.8008L 26.8359 22L 23.4141 22ZM 20.6133 19.6445C 21.1133 19.6445 21.5742 19.5352 21.9961 19.3164C 22.418 19.0898 22.7305 18.7891 22.9336 18.4141L 22.9336 16.2344L 21.668 16.2344C 19.9727 16.2344 19.0703 16.8203 18.9609 17.9922L 18.9492 18.1914C 18.9492 18.6133 19.0977 18.9609 19.3945 19.2344C 19.6914 19.5078 20.0977 19.6445 20.6133 19.6445ZM 32.1094 9.32031L 32.2148 10.7383C 33.1133 9.63672 34.3281 9.08594 35.8594 9.08594C 37.4922 9.08594 38.6133 9.73047 39.2227 11.0195C 40.1133 9.73047 41.3828 9.08594 43.0312 9.08594C 44.4062 9.08594 45.4297 9.48828 46.1016 10.293C 46.7734 11.0898 47.1094 12.293 47.1094 13.9023L 47.1094 22L 43.7109 22L 43.7109 13.9141C 43.7109 13.1953 43.5703 12.6719 43.2891 12.3438C 43.0078 12.0078 42.5117 11.8398 41.8008 11.8398C 40.7852 11.8398 40.082 12.3242 39.6914 13.293L 39.7031 22L 36.3164 22L 36.3164 13.9258C 36.3164 13.1914 36.1719 12.6602 35.8828 12.332C 35.5938 12.0039 35.1016 11.8398 34.4062 11.8398C 33.4453 11.8398 32.75 12.2383 32.3203 13.0352L 32.3203 22L 28.9336 22L 28.9336 9.32031L 32.1094 9.32031ZM 61.1367 15.7773C 61.1367 17.7305 60.6914 19.2969 59.8008 20.4766C 58.918 21.6484 57.7227 22.2344 56.2148 22.2344C 54.9336 22.2344 53.8984 21.7891 53.1094 20.8984L 53.1094 26.875L 49.7227 26.875L 49.7227 9.32031L 52.8633 9.32031L 52.9805 10.5625C 53.8008 9.57812 54.8711 9.08594 56.1914 9.08594C 57.7539 9.08594 58.9688 9.66406 59.8359 10.8203C 60.7031 11.9766 61.1367 13.5703 61.1367 15.6016L 61.1367 15.7773ZM 57.75 15.5312C 57.75 14.3516 57.5391 13.4414 57.1172 12.8008C 56.7031 12.1602 56.0977 11.8398 55.3008 11.8398C 54.2383 11.8398 53.5078 12.2461 53.1094 13.0586L 53.1094 18.25C 53.5234 19.0859 54.2617 19.5039 55.3242 19.5039C 56.9414 19.5039 57.75 18.1797 57.75 15.5312ZM 66.8203 22L 63.4219 22L 63.4219 4L 66.8203 4L 66.8203 22ZM 75.457 22.2344C 73.5977 22.2344 72.082 21.6641 70.9102 20.5234C 69.7461 19.3828 69.1641 17.8633 69.1641 15.9648L 69.1641 15.6367C 69.1641 14.3633 69.4102 13.2266 69.9023 12.2266C 70.3945 11.2188 71.0898 10.4453 71.9883 9.90625C 72.8945 9.35938 73.9258 9.08594 75.082 9.08594C 76.8164 9.08594 78.1797 9.63281 79.1719 10.7266C 80.1719 11.8203 80.6719 13.3711 80.6719 15.3789L 80.6719 16.7617L 72.5977 16.7617C 72.707 17.5898 73.0352 18.2539 73.582 18.7539C 74.1367 19.2539 74.8359 19.5039 75.6797 19.5039C 76.9844 19.5039 78.0039 19.0312 78.7383 18.0859L 80.4023 19.9492C 79.8945 20.668 79.207 21.2305 78.3398 21.6367C 77.4727 22.0352 76.5117 22.2344 75.457 22.2344ZM 75.0703 11.8281C 74.3984 11.8281 73.8516 12.0547 73.4297 12.5078C 73.0156 12.9609 72.75 13.6094 72.6328 14.4531L 77.3438 14.4531L 77.3438 14.1836C 77.3281 13.4336 77.125 12.8555 76.7344 12.4492C 76.3438 12.0352 75.7891 11.8281 75.0703 11.8281Z"/>
</defs>
</svg>
