<svg width="580" height="304" viewBox="0 0 580 304" fill="none" xmlns="http://www.w3.org/2000/svg">
<rect width="580" height="304" fill="white"/>
<circle id="Ellipse" cx="8" cy="8" r="8" transform="translate(49 133)" fill="#009E73"/>
<circle id="Ellipse_2" cx="8" cy="8" r="8" transform="translate(49 162)" fill="#009E73"/>
<circle id="Ellipse_3" cx="8" cy="8" r="8" transform="translate(133 201)" fill="black"/>
<circle id="Ellipse_4" cx="8" cy="8" r="8" transform="translate(129 237)" fill="black"/>
<circle id="Ellipse_5" cx="8" cy="8" r="8" transform="translate(133 128)" fill="#009E73"/>
<circle id="Ellipse_6" cx="8" cy="8" r="8" transform="translate(452 114)" fill="#009E73"/>
<circle id="Ellipse_7" cx="8" cy="8" r="8" transform="translate(480 114)" fill="#009E73"/>
<circle id="Ellipse_8" cx="8" cy="8" r="8" transform="translate(508 114)" fill="#009E73"/>
<circle id="Ellipse_9" cx="8" cy="8" r="8" transform="translate(536 114)" fill="#009E73"/>
<circle id="Ellipse_10" cx="8" cy="8" r="8" transform="translate(564 114)" fill="#009E73"/>
<circle id="Ellipse_11" cx="8" cy="8" r="8" transform="translate(101 179)" fill="#009E73"/>
<circle id="Ellipse_12" cx="8" cy="8" r="8" transform="translate(109 216)" fill="#009E73"/>
<circle id="Ellipse_13" cx="8" cy="8" r="8" transform="translate(41 179)" fill="#D55E00"/>
<circle id="Ellipse_14" cx="8" cy="8" r="8" transform="translate(76 200)" fill="#D55E00"/>
<circle id="Ellipse_15" cx="8" cy="8" r="8" transform="translate(452 238)" fill="#D55E00"/>
<circle id="Ellipse_16" cx="8" cy="8" r="8" transform="translate(81 146)" fill="#D55E00"/>
<circle id="Ellipse_17" cx="8" cy="8" r="8" transform="translate(21 214)" fill="black"/>
<circle id="Ellipse_18" cx="8" cy="8" r="8" transform="translate(97 114)" fill="#D55E00"/>
<circle id="Ellipse_19" cx="8" cy="8" r="8" transform="translate(25 154)" fill="black"/>
<circle id="Ellipse_20" cx="8" cy="8" r="8" transform="translate(109 146)" fill="#56B4E9"/>
<circle id="Ellipse_21" cx="8" cy="8" r="8" transform="translate(452 144)" fill="#56B4E9"/>
<circle id="Ellipse_22" cx="8" cy="8" r="8" transform="translate(480 144)" fill="#56B4E9"/>
<circle id="Ellipse_23" cx="8" cy="8" r="8" transform="translate(480 144)" fill="#56B4E9"/>
<circle id="Ellipse_24" cx="8" cy="8" r="8" transform="translate(156 189)" fill="#56B4E9"/>
<circle id="Ellipse_25" cx="8" cy="8" r="8" transform="translate(73 171)" fill="black"/>
<circle id="Ellipse_26" cx="8" cy="8" r="8" transform="translate(49 206)" fill="#CC79A7"/>
<circle id="Ellipse_27" cx="8" cy="8" r="8" transform="translate(101 245)" fill="#CC79A7"/>
<circle id="Ellipse_28" cx="8" cy="8" r="8" transform="translate(133 172)" fill="#56B4E9"/>
<circle id="Ellipse_29" cx="8" cy="8" r="8" transform="translate(9 188)" fill="#56B4E9"/>
<circle id="Ellipse_30" cx="8" cy="8" r="8" transform="translate(41 238)" fill="#56B4E9"/>
<circle id="Ellipse_31" cx="8" cy="8" r="8" transform="translate(73 229)" fill="#D55E00"/>
<circle id="Ellipse_32" cx="8" cy="8" r="8" transform="translate(149 222)" fill="#CC79A7"/>
<circle id="Ellipse_33" cx="8" cy="8" r="8" transform="translate(164 162)" fill="#CC79A7"/>
<circle id="Ellipse_34" cx="8" cy="8" r="8" transform="translate(73 121)" fill="#CC79A7"/>
<circle id="Ellipse_35" cx="8" cy="8" r="8" transform="translate(452 172)" fill="#CC79A7"/>
<circle id="Ellipse_36" cx="8" cy="8" r="8" transform="translate(480 172)" fill="#CC79A7"/>
<path id="Arrow" d="M158.707 0.707107C159.098 0.316583 159.098 -0.316583 158.707 -0.707107L152.343 -7.07107C151.953 -7.46159 151.319 -7.46159 150.929 -7.07107C150.538 -6.68054 150.538 -6.04738 150.929 -5.65685L156.586 0L150.929 5.65685C150.538 6.04738 150.538 6.68054 150.929 7.07107C151.319 7.46159 151.953 7.46159 152.343 7.07107L158.707 0.707107ZM0 1H158V-1H0V1Z" transform="translate(216 181)" fill="black"/>
<path id="Simple random sampling" d="M14.4453 12.0156C14.4453 11.5729 14.2891 11.2344 13.9766 11C13.6641 10.7604 13.1016 10.5104 12.2891 10.25C11.4766 9.98438 10.8333 9.72396 10.3594 9.46875C9.06771 8.77083 8.42188 7.83073 8.42188 6.64844C8.42188 6.03385 8.59375 5.48698 8.9375 5.00781C9.28646 4.52344 9.78385 4.14583 10.4297 3.875C11.0807 3.60417 11.8099 3.46875 12.6172 3.46875C13.4297 3.46875 14.1536 3.61719 14.7891 3.91406C15.4245 4.20573 15.9167 4.61979 16.2656 5.15625C16.6198 5.69271 16.7969 6.30208 16.7969 6.98438H14.4531C14.4531 6.46354 14.2891 6.0599 13.9609 5.77344C13.6328 5.48177 13.1719 5.33594 12.5781 5.33594C12.0052 5.33594 11.5599 5.45833 11.2422 5.70312C10.9245 5.94271 10.7656 6.26042 10.7656 6.65625C10.7656 7.02604 10.9505 7.33594 11.3203 7.58594C11.6953 7.83594 12.2448 8.07031 12.9688 8.28906C14.3021 8.6901 15.2734 9.1875 15.8828 9.78125C16.4922 10.375 16.7969 11.1146 16.7969 12C16.7969 12.9844 16.4245 13.7578 15.6797 14.3203C14.9349 14.8776 13.9323 15.1562 12.6719 15.1562C11.7969 15.1562 11 14.9974 10.2812 14.6797C9.5625 14.3568 9.01302 13.9167 8.63281 13.3594C8.25781 12.8021 8.07031 12.1562 8.07031 11.4219H10.4219C10.4219 12.6771 11.1719 13.3047 12.6719 13.3047C13.2292 13.3047 13.6641 13.1927 13.9766 12.9688C14.2891 12.7396 14.4453 12.4219 14.4453 12.0156ZM20.625 15H18.3594V6.54688H20.625V15ZM18.2266 4.35938C18.2266 4.02083 18.3385 3.74219 18.5625 3.52344C18.7917 3.30469 19.1016 3.19531 19.4922 3.19531C19.8776 3.19531 20.1849 3.30469 20.4141 3.52344C20.6432 3.74219 20.7578 4.02083 20.7578 4.35938C20.7578 4.70312 20.6406 4.98438 20.4062 5.20312C20.1771 5.42188 19.8724 5.53125 19.4922 5.53125C19.112 5.53125 18.8047 5.42188 18.5703 5.20312C18.3411 4.98438 18.2266 4.70312 18.2266 4.35938ZM24.6094 6.54688L24.6797 7.49219C25.2786 6.75781 26.0885 6.39062 27.1094 6.39062C28.1979 6.39062 28.9453 6.82031 29.3516 7.67969C29.9453 6.82031 30.7917 6.39062 31.8906 6.39062C32.8073 6.39062 33.4896 6.65885 33.9375 7.19531C34.3854 7.72656 34.6094 8.52865 34.6094 9.60156V15H32.3438V9.60938C32.3438 9.13021 32.25 8.78125 32.0625 8.5625C31.875 8.33854 31.5443 8.22656 31.0703 8.22656C30.3932 8.22656 29.9245 8.54948 29.6641 9.19531L29.6719 15H27.4141V9.61719C27.4141 9.1276 27.3177 8.77344 27.125 8.55469C26.9323 8.33594 26.6042 8.22656 26.1406 8.22656C25.5 8.22656 25.0365 8.49219 24.75 9.02344V15H22.4922V6.54688H24.6094ZM43.9609 10.8516C43.9609 12.1536 43.6641 13.1979 43.0703 13.9844C42.4818 14.7656 41.6849 15.1562 40.6797 15.1562C39.8255 15.1562 39.1354 14.8594 38.6094 14.2656V18.25H36.3516V6.54688H38.4453L38.5234 7.375C39.0703 6.71875 39.7839 6.39062 40.6641 6.39062C41.7057 6.39062 42.5156 6.77604 43.0938 7.54688C43.6719 8.31771 43.9609 9.38021 43.9609 10.7344V10.8516ZM41.7031 10.6875C41.7031 9.90104 41.5625 9.29427 41.2812 8.86719C41.0052 8.4401 40.6016 8.22656 40.0703 8.22656C39.362 8.22656 38.875 8.4974 38.6094 9.03906V12.5C38.8854 13.0573 39.3776 13.3359 40.0859 13.3359C41.1641 13.3359 41.7031 12.4531 41.7031 10.6875ZM47.75 15H45.4844V3H47.75V15ZM53.5078 15.1562C52.2682 15.1562 51.2578 14.776 50.4766 14.0156C49.7005 13.2552 49.3125 12.2422 49.3125 10.9766V10.7578C49.3125 9.90885 49.4766 9.15104 49.8047 8.48438C50.1328 7.8125 50.5964 7.29688 51.1953 6.9375C51.7995 6.57292 52.487 6.39062 53.2578 6.39062C54.4141 6.39062 55.3229 6.75521 55.9844 7.48438C56.651 8.21354 56.9844 9.2474 56.9844 10.5859V11.5078H51.6016C51.6745 12.0599 51.8932 12.5026 52.2578 12.8359C52.6276 13.1693 53.0938 13.3359 53.6562 13.3359C54.526 13.3359 55.2057 13.0208 55.6953 12.3906L56.8047 13.6328C56.4661 14.112 56.0078 14.487 55.4297 14.7578C54.8516 15.0234 54.2109 15.1562 53.5078 15.1562ZM53.25 8.21875C52.8021 8.21875 52.4375 8.36979 52.1562 8.67188C51.8802 8.97396 51.7031 9.40625 51.625 9.96875H54.7656V9.78906C54.7552 9.28906 54.6198 8.90365 54.3594 8.63281C54.099 8.35677 53.7292 8.21875 53.25 8.21875ZM67.0078 8.66406C66.7005 8.6224 66.4297 8.60156 66.1953 8.60156C65.3411 8.60156 64.7812 8.89062 64.5156 9.46875V15H62.2578V6.54688H64.3906L64.4531 7.55469C64.9062 6.77865 65.5339 6.39062 66.3359 6.39062C66.5859 6.39062 66.8203 6.42448 67.0391 6.49219L67.0078 8.66406ZM72.7656 15C72.6615 14.7969 72.5859 14.5443 72.5391 14.2422C71.9922 14.8516 71.2812 15.1562 70.4062 15.1562C69.5781 15.1562 68.8906 14.9167 68.3438 14.4375C67.8021 13.9583 67.5312 13.3542 67.5312 12.625C67.5312 11.7292 67.862 11.0417 68.5234 10.5625C69.1901 10.0833 70.151 9.84115 71.4062 9.83594H72.4453V9.35156C72.4453 8.96094 72.3438 8.64844 72.1406 8.41406C71.9427 8.17969 71.6276 8.0625 71.1953 8.0625C70.8151 8.0625 70.5156 8.15365 70.2969 8.33594C70.0833 8.51823 69.9766 8.76823 69.9766 9.08594H67.7188C67.7188 8.59635 67.8698 8.14323 68.1719 7.72656C68.474 7.3099 68.901 6.98438 69.4531 6.75C70.0052 6.51042 70.625 6.39062 71.3125 6.39062C72.3542 6.39062 73.1797 6.65365 73.7891 7.17969C74.4036 7.70052 74.7109 8.4349 74.7109 9.38281V13.0469C74.7161 13.849 74.8281 14.4557 75.0469 14.8672V15H72.7656ZM70.8984 13.4297C71.2318 13.4297 71.5391 13.3568 71.8203 13.2109C72.1016 13.0599 72.3099 12.8594 72.4453 12.6094V11.1562H71.6016C70.4714 11.1562 69.8698 11.5469 69.7969 12.3281L69.7891 12.4609C69.7891 12.7422 69.888 12.974 70.0859 13.1562C70.2839 13.3385 70.5547 13.4297 70.8984 13.4297ZM78.5234 6.54688L78.5938 7.52344C79.1979 6.76823 80.0078 6.39062 81.0234 6.39062C81.9193 6.39062 82.5859 6.65365 83.0234 7.17969C83.4609 7.70573 83.6849 8.49219 83.6953 9.53906V15H81.4375V9.59375C81.4375 9.11458 81.3333 8.76823 81.125 8.55469C80.9167 8.33594 80.5703 8.22656 80.0859 8.22656C79.4505 8.22656 78.974 8.4974 78.6562 9.03906V15H76.3984V6.54688H78.5234ZM85.0625 10.7109C85.0625 9.39323 85.3568 8.34375 85.9453 7.5625C86.5391 6.78125 87.349 6.39062 88.375 6.39062C89.1979 6.39062 89.8776 6.69792 90.4141 7.3125V3H92.6797V15H90.6406L90.5312 14.1016C89.9688 14.8047 89.2448 15.1562 88.3594 15.1562C87.3646 15.1562 86.5651 14.7656 85.9609 13.9844C85.362 13.1979 85.0625 12.1068 85.0625 10.7109ZM87.3203 10.875C87.3203 11.6667 87.4583 12.2734 87.7344 12.6953C88.0104 13.1172 88.4115 13.3281 88.9375 13.3281C89.6354 13.3281 90.1276 13.0339 90.4141 12.4453V9.10938C90.1328 8.52083 89.6458 8.22656 88.9531 8.22656C87.8646 8.22656 87.3203 9.10938 87.3203 10.875ZM94.0781 10.6953C94.0781 9.85677 94.2396 9.10938 94.5625 8.45312C94.8854 7.79688 95.349 7.28906 95.9531 6.92969C96.5625 6.57031 97.2682 6.39062 98.0703 6.39062C99.2109 6.39062 100.141 6.73958 100.859 7.4375C101.583 8.13542 101.987 9.08333 102.07 10.2812L102.086 10.8594C102.086 12.1562 101.724 13.1979 101 13.9844C100.276 14.7656 99.3047 15.1562 98.0859 15.1562C96.8672 15.1562 95.8932 14.7656 95.1641 13.9844C94.4401 13.2031 94.0781 12.1406 94.0781 10.7969V10.6953ZM96.3359 10.8594C96.3359 11.6615 96.487 12.276 96.7891 12.7031C97.0911 13.125 97.5234 13.3359 98.0859 13.3359C98.6328 13.3359 99.0599 13.1276 99.3672 12.7109C99.6745 12.2891 99.8281 11.6172 99.8281 10.6953C99.8281 9.90885 99.6745 9.29948 99.3672 8.86719C99.0599 8.4349 98.6276 8.21875 98.0703 8.21875C97.5182 8.21875 97.0911 8.4349 96.7891 8.86719C96.487 9.29427 96.3359 9.95833 96.3359 10.8594ZM105.594 6.54688L105.664 7.49219C106.263 6.75781 107.073 6.39062 108.094 6.39062C109.182 6.39062 109.93 6.82031 110.336 7.67969C110.93 6.82031 111.776 6.39062 112.875 6.39062C113.792 6.39062 114.474 6.65885 114.922 7.19531C115.37 7.72656 115.594 8.52865 115.594 9.60156V15H113.328V9.60938C113.328 9.13021 113.234 8.78125 113.047 8.5625C112.859 8.33854 112.529 8.22656 112.055 8.22656C111.378 8.22656 110.909 8.54948 110.648 9.19531L110.656 15H108.398V9.61719C108.398 9.1276 108.302 8.77344 108.109 8.55469C107.917 8.33594 107.589 8.22656 107.125 8.22656C106.484 8.22656 106.021 8.49219 105.734 9.02344V15H103.477V6.54688H105.594ZM34.2969 31.6641C34.2969 31.388 34.1589 31.1719 33.8828 31.0156C33.612 30.8542 33.1745 30.7109 32.5703 30.5859C30.5599 30.1641 29.5547 29.3099 29.5547 28.0234C29.5547 27.2734 29.8646 26.6484 30.4844 26.1484C31.1094 25.6432 31.9245 25.3906 32.9297 25.3906C34.0026 25.3906 34.8594 25.6432 35.5 26.1484C36.1458 26.6536 36.4688 27.3099 36.4688 28.1172H34.2109C34.2109 27.7943 34.1068 27.5286 33.8984 27.3203C33.6901 27.1068 33.3646 27 32.9219 27C32.5417 27 32.2474 27.0859 32.0391 27.2578C31.8307 27.4297 31.7266 27.6484 31.7266 27.9141C31.7266 28.1641 31.8438 28.3672 32.0781 28.5234C32.3177 28.6745 32.7188 28.8073 33.2812 28.9219C33.8438 29.0312 34.3177 29.1562 34.7031 29.2969C35.8958 29.7344 36.4922 30.4922 36.4922 31.5703C36.4922 32.3411 36.1615 32.9661 35.5 33.4453C34.8385 33.9193 33.9844 34.1562 32.9375 34.1562C32.2292 34.1562 31.599 34.0312 31.0469 33.7812C30.5 33.526 30.0703 33.1797 29.7578 32.7422C29.4453 32.2995 29.2891 31.8229 29.2891 31.3125H31.4297C31.4505 31.7135 31.599 32.0208 31.875 32.2344C32.151 32.4479 32.5208 32.5547 32.9844 32.5547C33.4167 32.5547 33.7422 32.474 33.9609 32.3125C34.1849 32.1458 34.2969 31.9297 34.2969 31.6641ZM42.8516 34C42.7474 33.7969 42.6719 33.5443 42.625 33.2422C42.0781 33.8516 41.3672 34.1562 40.4922 34.1562C39.6641 34.1562 38.9766 33.9167 38.4297 33.4375C37.888 32.9583 37.6172 32.3542 37.6172 31.625C37.6172 30.7292 37.9479 30.0417 38.6094 29.5625C39.276 29.0833 40.237 28.8411 41.4922 28.8359H42.5312V28.3516C42.5312 27.9609 42.4297 27.6484 42.2266 27.4141C42.0286 27.1797 41.7135 27.0625 41.2812 27.0625C40.901 27.0625 40.6016 27.1536 40.3828 27.3359C40.1693 27.5182 40.0625 27.7682 40.0625 28.0859H37.8047C37.8047 27.5964 37.9557 27.1432 38.2578 26.7266C38.5599 26.3099 38.987 25.9844 39.5391 25.75C40.0911 25.5104 40.7109 25.3906 41.3984 25.3906C42.4401 25.3906 43.2656 25.6536 43.875 26.1797C44.4896 26.7005 44.7969 27.4349 44.7969 28.3828V32.0469C44.8021 32.849 44.9141 33.4557 45.1328 33.8672V34H42.8516ZM40.9844 32.4297C41.3177 32.4297 41.625 32.3568 41.9062 32.2109C42.1875 32.0599 42.3958 31.8594 42.5312 31.6094V30.1562H41.6875C40.5573 30.1562 39.9557 30.5469 39.8828 31.3281L39.875 31.4609C39.875 31.7422 39.974 31.974 40.1719 32.1562C40.3698 32.3385 40.6406 32.4297 40.9844 32.4297ZM48.6484 25.5469L48.7188 26.4922C49.3177 25.7578 50.1276 25.3906 51.1484 25.3906C52.237 25.3906 52.9844 25.8203 53.3906 26.6797C53.9844 25.8203 54.8307 25.3906 55.9297 25.3906C56.8464 25.3906 57.5286 25.6589 57.9766 26.1953C58.4245 26.7266 58.6484 27.5286 58.6484 28.6016V34H56.3828V28.6094C56.3828 28.1302 56.2891 27.7812 56.1016 27.5625C55.9141 27.3385 55.5833 27.2266 55.1094 27.2266C54.4323 27.2266 53.9635 27.5495 53.7031 28.1953L53.7109 34H51.4531V28.6172C51.4531 28.1276 51.3568 27.7734 51.1641 27.5547C50.9714 27.3359 50.6432 27.2266 50.1797 27.2266C49.5391 27.2266 49.0755 27.4922 48.7891 28.0234V34H46.5312V25.5469H48.6484ZM68 29.8516C68 31.1536 67.7031 32.1979 67.1094 32.9844C66.5208 33.7656 65.724 34.1562 64.7188 34.1562C63.8646 34.1562 63.1745 33.8594 62.6484 33.2656V37.25H60.3906V25.5469H62.4844L62.5625 26.375C63.1094 25.7188 63.8229 25.3906 64.7031 25.3906C65.7448 25.3906 66.5547 25.776 67.1328 26.5469C67.7109 27.3177 68 28.3802 68 29.7344V29.8516ZM65.7422 29.6875C65.7422 28.901 65.6016 28.2943 65.3203 27.8672C65.0443 27.4401 64.6406 27.2266 64.1094 27.2266C63.401 27.2266 62.9141 27.4974 62.6484 28.0391V31.5C62.9245 32.0573 63.4167 32.3359 64.125 32.3359C65.2031 32.3359 65.7422 31.4531 65.7422 29.6875ZM71.7891 34H69.5234V22H71.7891V34ZM76.0391 34H73.7734V25.5469H76.0391V34ZM73.6406 23.3594C73.6406 23.0208 73.7526 22.7422 73.9766 22.5234C74.2057 22.3047 74.5156 22.1953 74.9062 22.1953C75.2917 22.1953 75.599 22.3047 75.8281 22.5234C76.0573 22.7422 76.1719 23.0208 76.1719 23.3594C76.1719 23.7031 76.0547 23.9844 75.8203 24.2031C75.5911 24.4219 75.2865 24.5312 74.9062 24.5312C74.526 24.5312 74.2188 24.4219 73.9844 24.2031C73.7552 23.9844 73.6406 23.7031 73.6406 23.3594ZM79.9844 25.5469L80.0547 26.5234C80.6589 25.7682 81.4688 25.3906 82.4844 25.3906C83.3802 25.3906 84.0469 25.6536 84.4844 26.1797C84.9219 26.7057 85.1458 27.4922 85.1562 28.5391V34H82.8984V28.5938C82.8984 28.1146 82.7943 27.7682 82.5859 27.5547C82.3776 27.3359 82.0312 27.2266 81.5469 27.2266C80.9115 27.2266 80.4349 27.4974 80.1172 28.0391V34H77.8594V25.5469H79.9844ZM86.5469 29.7109C86.5469 28.4141 86.8542 27.3698 87.4688 26.5781C88.0885 25.7865 88.9219 25.3906 89.9688 25.3906C90.8958 25.3906 91.6172 25.7083 92.1328 26.3438L92.2266 25.5469H94.2734V33.7188C94.2734 34.4583 94.1042 35.1016 93.7656 35.6484C93.4323 36.1953 92.9609 36.612 92.3516 36.8984C91.7422 37.1849 91.0286 37.3281 90.2109 37.3281C89.5911 37.3281 88.987 37.2031 88.3984 36.9531C87.8099 36.7083 87.3646 36.3906 87.0625 36L88.0625 34.625C88.625 35.2552 89.3073 35.5703 90.1094 35.5703C90.7083 35.5703 91.1745 35.4089 91.5078 35.0859C91.8411 34.7682 92.0078 34.3151 92.0078 33.7266V33.2734C91.487 33.862 90.8021 34.1562 89.9531 34.1562C88.9375 34.1562 88.1146 33.7604 87.4844 32.9688C86.8594 32.1719 86.5469 31.1172 86.5469 29.8047V29.7109ZM88.8047 29.875C88.8047 30.6406 88.9583 31.2422 89.2656 31.6797C89.5729 32.112 89.9948 32.3281 90.5312 32.3281C91.2188 32.3281 91.7109 32.0703 92.0078 31.5547V28C91.7057 27.4844 91.2188 27.2266 90.5469 27.2266C90.0052 27.2266 89.5781 27.4479 89.2656 27.8906C88.9583 28.3333 88.8047 28.9948 88.8047 29.875Z" transform="translate(233 185)" fill="black"/>
<path id="G" d="M15.3438 19.8438C14.7109 20.6016 13.8164 21.1914 12.6602 21.6133C11.5039 22.0273 10.2227 22.2344 8.81641 22.2344C7.33984 22.2344 6.04297 21.9141 4.92578 21.2734C3.81641 20.625 2.95703 19.6875 2.34766 18.4609C1.74609 17.2344 1.4375 15.793 1.42188 14.1367V12.9766C1.42188 11.2734 1.70703 9.80078 2.27734 8.55859C2.85547 7.30859 3.68359 6.35547 4.76172 5.69922C5.84766 5.03516 7.11719 4.70312 8.57031 4.70312C10.5938 4.70312 12.1758 5.1875 13.3164 6.15625C14.457 7.11719 15.1328 8.51953 15.3438 10.3633H11.9219C11.7656 9.38672 11.418 8.67187 10.8789 8.21875C10.3477 7.76563 9.61328 7.53906 8.67578 7.53906C7.48047 7.53906 6.57031 7.98828 5.94531 8.88672C5.32031 9.78516 5.00391 11.1211 4.99609 12.8945V13.9844C4.99609 15.7734 5.33594 17.125 6.01562 18.0391C6.69531 18.9531 7.69141 19.4102 9.00391 19.4102C10.3242 19.4102 11.2656 19.1289 11.8281 18.5664V15.625H8.62891V13.0352H15.3438V19.8438Z" transform="translate(423 108)" fill="black"/>
<path id="F" d="M12.2148 15.0273H5.46484V22H1.94922V4.9375H13.0586V7.78516H5.46484V12.1914H12.2148V15.0273Z" transform="translate(423 138)" fill="black"/>
<path id="C" d="M15.0664 16.3164C14.9336 18.1523 14.2539 19.5977 13.0273 20.6523C11.8086 21.707 10.1992 22.2344 8.19922 22.2344C6.01172 22.2344 4.28906 21.5 3.03125 20.0312C1.78125 18.5547 1.15625 16.5313 1.15625 13.9609V12.918C1.15625 11.2773 1.44531 9.83203 2.02344 8.58203C2.60156 7.33203 3.42578 6.375 4.49609 5.71094C5.57422 5.03906 6.82422 4.70312 8.24609 4.70312C10.2148 4.70312 11.8008 5.23047 13.0039 6.28516C14.207 7.33984 14.9023 8.82031 15.0898 10.7266H11.5742C11.4883 9.625 11.1797 8.82812 10.6484 8.33594C10.125 7.83594 9.32422 7.58594 8.24609 7.58594C7.07422 7.58594 6.19531 8.00781 5.60938 8.85156C5.03125 9.6875 4.73438 10.9883 4.71875 12.7539V14.043C4.71875 15.8867 4.99609 17.2344 5.55078 18.0859C6.11328 18.9375 6.99609 19.3633 8.19922 19.3633C9.28516 19.3633 10.0938 19.1172 10.625 18.625C11.1641 18.125 11.4727 17.3555 11.5508 16.3164H15.0664Z" transform="translate(421 168)" fill="black"/>
<path id="G/F" d="M15.2812 19.8438C14.6484 20.6016 13.7539 21.1914 12.5977 21.6133C11.4414 22.0273 10.1602 22.2344 8.75391 22.2344C7.27734 22.2344 5.98047 21.9141 4.86328 21.2734C3.75391 20.625 2.89453 19.6875 2.28516 18.4609C1.68359 17.2344 1.375 15.793 1.35938 14.1367V12.9766C1.35938 11.2734 1.64453 9.80078 2.21484 8.55859C2.79297 7.30859 3.62109 6.35547 4.69922 5.69922C5.78516 5.03516 7.05469 4.70312 8.50781 4.70312C10.5313 4.70312 12.1133 5.1875 13.2539 6.15625C14.3945 7.11719 15.0703 8.51953 15.2812 10.3633H11.8594C11.7031 9.38672 11.3555 8.67187 10.8164 8.21875C10.2852 7.76563 9.55078 7.53906 8.61328 7.53906C7.41797 7.53906 6.50781 7.98828 5.88281 8.88672C5.25781 9.78516 4.94141 11.1211 4.93359 12.8945V13.9844C4.93359 15.7734 5.27344 17.125 5.95312 18.0391C6.63281 18.9531 7.62891 19.4102 8.94141 19.4102C10.2617 19.4102 11.2031 19.1289 11.7656 18.5664V15.625H8.56641V13.0352H15.2812V19.8438ZM18.9844 23.4648H16.4648L22.7461 4.9375H25.2656L18.9844 23.4648ZM37.3828 15.0273H30.6328V22H27.1172V4.9375H38.2266V7.78516H30.6328V12.1914H37.3828V15.0273Z" transform="translate(398 202)" fill="black"/>
<path id="F/C" d="M11.875 15.0273H5.125V22H1.60938V4.9375H12.7188V7.78516H5.125V12.1914H11.875V15.0273ZM15.6016 23.4648H13.082L19.3633 4.9375H21.8828L15.6016 23.4648ZM37.1289 16.3164C36.9961 18.1523 36.3164 19.5977 35.0898 20.6523C33.8711 21.707 32.2617 22.2344 30.2617 22.2344C28.0742 22.2344 26.3516 21.5 25.0938 20.0312C23.8437 18.5547 23.2188 16.5313 23.2188 13.9609V12.918C23.2188 11.2773 23.5078 9.83203 24.0859 8.58203C24.6641 7.33203 25.4883 6.375 26.5586 5.71094C27.6367 5.03906 28.8867 4.70312 30.3086 4.70312C32.2773 4.70312 33.8633 5.23047 35.0664 6.28516C36.2695 7.33984 36.9648 8.82031 37.1523 10.7266H33.6367C33.5508 9.625 33.2422 8.82812 32.7109 8.33594C32.1875 7.83594 31.3867 7.58594 30.3086 7.58594C29.1367 7.58594 28.2578 8.00781 27.6719 8.85156C27.0937 9.6875 26.7969 10.9883 26.7812 12.7539V14.043C26.7812 15.8867 27.0586 17.2344 27.6133 18.0859C28.1758 18.9375 29.0586 19.3633 30.2617 19.3633C31.3477 19.3633 32.1563 19.1172 32.6875 18.625C33.2266 18.125 33.5352 17.3555 33.6133 16.3164H37.1289Z" transform="translate(399 233)" fill="black"/>
<ellipse id="Ellipse_37" cx="4.91429" cy="4.51948" rx="4.91429" ry="4.51948" transform="translate(306 23)" fill="#009E73"/>
<ellipse id="Ellipse_38" cx="4.91429" cy="4.51948" rx="4.91429" ry="4.51948" transform="translate(306 94)" fill="#D55E00"/>
<ellipse id="Ellipse_39" cx="4.91429" cy="4.51948" rx="4.91429" ry="4.51948" transform="translate(306 76)" fill="black"/>
<ellipse id="Ellipse_40" cx="4.91429" cy="4.51948" rx="4.91429" ry="4.51948" transform="translate(306 40)" fill="#56B4E9"/>
<ellipse id="Ellipse_41" cx="4.91429" cy="4.51948" rx="4.91429" ry="4.51948" transform="translate(306 57)" fill="#CC79A7"/>
<path id="G_2" d="M8.6433 9.92188C8.3269 10.3008 7.87963 10.5957 7.30151 10.8066C6.72338 11.0137 6.08276 11.1172 5.37963 11.1172C4.64135 11.1172 3.99291 10.957 3.43432 10.6367C2.87963 10.3125 2.44994 9.84375 2.14526 9.23047C1.84448 8.61719 1.69018 7.89648 1.68237 7.06836V6.48828C1.68237 5.63672 1.82494 4.90039 2.1101 4.2793C2.39916 3.6543 2.81323 3.17773 3.35229 2.84961C3.89526 2.51758 4.53002 2.35156 5.25658 2.35156C6.2683 2.35156 7.05932 2.59375 7.62963 3.07812C8.19994 3.55859 8.53783 4.25977 8.6433 5.18164H6.93237C6.85424 4.69336 6.68041 4.33594 6.41088 4.10938C6.14526 3.88281 5.77807 3.76953 5.30932 3.76953C4.71166 3.76953 4.25658 3.99414 3.94408 4.44336C3.63158 4.89258 3.47338 5.56055 3.46948 6.44727V6.99219C3.46948 7.88672 3.6394 8.5625 3.97924 9.01953C4.31908 9.47656 4.81713 9.70508 5.47338 9.70508C6.13354 9.70508 6.60424 9.56445 6.88549 9.2832V7.8125H5.28588V6.51758H8.6433V9.92188Z" transform="translate(288.357 21)" fill="black"/>
<path id="F_2" d="M6.90742 7.51367H3.53242V11H1.77461V2.46875H7.3293V3.89258H3.53242V6.0957H6.90742V7.51367Z" transform="translate(288.357 37.9481)" fill="black"/>
<path id="C_2" d="M8.44749 8.1582C8.38108 9.07617 8.04124 9.79883 7.42796 10.3262C6.81858 10.8535 6.0139 11.1172 5.0139 11.1172C3.92015 11.1172 3.05882 10.75 2.42991 10.0156C1.80491 9.27734 1.49241 8.26563 1.49241 6.98047V6.45898C1.49241 5.63867 1.63694 4.91602 1.926 4.29102C2.21507 3.66602 2.62718 3.1875 3.16233 2.85547C3.7014 2.51953 4.3264 2.35156 5.03733 2.35156C6.02171 2.35156 6.81468 2.61523 7.41624 3.14258C8.0178 3.66992 8.36546 4.41016 8.45921 5.36328H6.7014C6.65843 4.8125 6.50413 4.41406 6.2385 4.16797C5.97679 3.91797 5.5764 3.79297 5.03733 3.79297C4.4514 3.79297 4.01194 4.00391 3.71897 4.42578C3.42991 4.84375 3.28147 5.49414 3.27366 6.37695V7.02148C3.27366 7.94336 3.41233 8.61719 3.68968 9.04297C3.97093 9.46875 4.41233 9.68164 5.0139 9.68164C5.55686 9.68164 5.96116 9.55859 6.22679 9.3125C6.49632 9.0625 6.65061 8.67773 6.68968 8.1582H8.44749Z" transform="translate(287.129 54.8961)" fill="black"/>
<path id="G/F_2" d="M9.8692 9.92188C9.55279 10.3008 9.10552 10.5957 8.5274 10.8066C7.94927 11.0137 7.30865 11.1172 6.60552 11.1172C5.86724 11.1172 5.21881 10.957 4.66021 10.6367C4.10552 10.3125 3.67584 9.84375 3.37115 9.23047C3.07037 8.61719 2.91607 7.89648 2.90826 7.06836V6.48828C2.90826 5.63672 3.05084 4.90039 3.33599 4.2793C3.62506 3.6543 4.03912 3.17773 4.57818 2.84961C5.12115 2.51758 5.75591 2.35156 6.48248 2.35156C7.4942 2.35156 8.28521 2.59375 8.85552 3.07812C9.42584 3.55859 9.76373 4.25977 9.8692 5.18164H8.15826C8.08013 4.69336 7.90631 4.33594 7.63677 4.10938C7.37115 3.88281 7.00396 3.76953 6.53521 3.76953C5.93756 3.76953 5.48248 3.99414 5.16998 4.44336C4.85748 4.89258 4.69927 5.56055 4.69537 6.44727V6.99219C4.69537 7.88672 4.86529 8.5625 5.20513 9.01953C5.54498 9.47656 6.04302 9.70508 6.69927 9.70508C7.35943 9.70508 7.83013 9.56445 8.11138 9.2832V7.8125H6.51177V6.51758H9.8692V9.92188ZM11.7208 11.7324H10.461L13.6016 2.46875H14.8614L11.7208 11.7324ZM20.92 7.51367H17.545V11H15.7872V2.46875H21.3419V3.89258H17.545V6.0957H20.92V7.51367Z" transform="translate(273 74.1039)" fill="black"/>
<path id="F/C_2" d="M8.10893 7.51367H4.73393V11H2.97612V2.46875H8.5308V3.89258H4.73393V6.0957H8.10893V7.51367ZM9.97221 11.7324H8.71244L11.8531 2.46875H13.1128L9.97221 11.7324ZM20.7359 8.1582C20.6695 9.07617 20.3296 9.79883 19.7164 10.3262C19.107 10.8535 18.3023 11.1172 17.3023 11.1172C16.2085 11.1172 15.3472 10.75 14.7183 10.0156C14.0933 9.27734 13.7808 8.26563 13.7808 6.98047V6.45898C13.7808 5.63867 13.9253 4.91602 14.2144 4.29102C14.5035 3.66602 14.9156 3.1875 15.4507 2.85547C15.9898 2.51953 16.6148 2.35156 17.3257 2.35156C18.3101 2.35156 19.1031 2.61523 19.7046 3.14258C20.3062 3.66992 20.6539 4.41016 20.7476 5.36328H18.9898C18.9468 4.8125 18.7925 4.41406 18.5269 4.16797C18.2652 3.91797 17.8648 3.79297 17.3257 3.79297C16.7398 3.79297 16.3003 4.00391 16.0074 4.42578C15.7183 4.84375 15.5699 5.49414 15.5621 6.37695V7.02148C15.5621 7.94336 15.7007 8.61719 15.9781 9.04297C16.2593 9.46875 16.7007 9.68164 17.3023 9.68164C17.8453 9.68164 18.2496 9.55859 18.5152 9.3125C18.7847 9.0625 18.939 8.67773 18.9781 8.1582H20.7359Z" transform="translate(273.614 91.6169)" fill="black"/>
<path id="Population (25 players)" d="M3.9375 12.4912V17H1.30078V4.20312H6.29297C7.25391 4.20312 8.09766 4.37891 8.82422 4.73047C9.55664 5.08203 10.1191 5.58301 10.5117 6.2334C10.9043 6.87793 11.1006 7.61328 11.1006 8.43945C11.1006 9.69336 10.6699 10.6836 9.80859 11.4102C8.95312 12.1309 7.7666 12.4912 6.24902 12.4912H3.9375ZM3.9375 10.3555H6.29297C6.99023 10.3555 7.52051 10.1914 7.88379 9.86328C8.25293 9.53516 8.4375 9.06641 8.4375 8.45703C8.4375 7.83008 8.25293 7.32324 7.88379 6.93652C7.51465 6.5498 7.00488 6.35059 6.35449 6.33887H3.9375V10.3555ZM12.2344 12.1572C12.2344 11.2139 12.416 10.373 12.7793 9.63477C13.1426 8.89648 13.6641 8.3252 14.3438 7.9209C15.0293 7.5166 15.8232 7.31445 16.7256 7.31445C18.0088 7.31445 19.0547 7.70703 19.8633 8.49219C20.6777 9.27734 21.1318 10.3438 21.2256 11.6914L21.2432 12.3418C21.2432 13.8008 20.8359 14.9727 20.0215 15.8574C19.207 16.7363 18.1143 17.1758 16.7432 17.1758C15.3721 17.1758 14.2764 16.7363 13.4561 15.8574C12.6416 14.9785 12.2344 13.7832 12.2344 12.2715V12.1572ZM14.7744 12.3418C14.7744 13.2441 14.9443 13.9355 15.2842 14.416C15.624 14.8906 16.1104 15.1279 16.7432 15.1279C17.3584 15.1279 17.8389 14.8936 18.1846 14.4248C18.5303 13.9502 18.7031 13.1943 18.7031 12.1572C18.7031 11.2725 18.5303 10.5869 18.1846 10.1006C17.8389 9.61426 17.3525 9.37109 16.7256 9.37109C16.1045 9.37109 15.624 9.61426 15.2842 10.1006C14.9443 10.5811 14.7744 11.3281 14.7744 12.3418ZM31.3682 12.333C31.3682 13.7979 31.0342 14.9727 30.3662 15.8574C29.7041 16.7363 28.8076 17.1758 27.6768 17.1758C26.7158 17.1758 25.9395 16.8418 25.3477 16.1738V20.6562H22.8076V7.49023H25.1631L25.251 8.42188C25.8662 7.68359 26.6689 7.31445 27.6592 7.31445C28.8311 7.31445 29.7422 7.74805 30.3926 8.61523C31.043 9.48242 31.3682 10.6777 31.3682 12.2012V12.333ZM28.8281 12.1484C28.8281 11.2637 28.6699 10.5811 28.3535 10.1006C28.043 9.62012 27.5889 9.37988 26.9912 9.37988C26.1943 9.37988 25.6465 9.68457 25.3477 10.2939V14.1875C25.6582 14.8145 26.2119 15.1279 27.0088 15.1279C28.2217 15.1279 28.8281 14.1348 28.8281 12.1484ZM38.6455 16.0332C38.0186 16.7949 37.1514 17.1758 36.0439 17.1758C35.0244 17.1758 34.2451 16.8828 33.7061 16.2969C33.1729 15.7109 32.9004 14.8525 32.8887 13.7217V7.49023H35.4287V13.6338C35.4287 14.624 35.8799 15.1191 36.7822 15.1191C37.6436 15.1191 38.2354 14.8203 38.5576 14.2227V7.49023H41.1064V17H38.7158L38.6455 16.0332ZM45.7031 17H43.1543V3.5H45.7031V17ZM53.3145 17C53.1973 16.7715 53.1123 16.4873 53.0596 16.1475C52.4443 16.833 51.6445 17.1758 50.6602 17.1758C49.7285 17.1758 48.9551 16.9062 48.3398 16.3672C47.7305 15.8281 47.4258 15.1484 47.4258 14.3281C47.4258 13.3203 47.7979 12.5469 48.542 12.0078C49.292 11.4688 50.373 11.1963 51.7852 11.1904H52.9541V10.6455C52.9541 10.2061 52.8398 9.85449 52.6113 9.59082C52.3887 9.32715 52.0342 9.19531 51.5479 9.19531C51.1201 9.19531 50.7832 9.29785 50.5371 9.50293C50.2969 9.70801 50.1768 9.98926 50.1768 10.3467H47.6367C47.6367 9.7959 47.8066 9.28613 48.1465 8.81738C48.4863 8.34863 48.9668 7.98242 49.5879 7.71875C50.209 7.44922 50.9062 7.31445 51.6797 7.31445C52.8516 7.31445 53.7803 7.61035 54.4658 8.20215C55.1572 8.78809 55.5029 9.61426 55.5029 10.6807V14.8027C55.5088 15.7051 55.6348 16.3877 55.8809 16.8506V17H53.3145ZM51.2139 15.2334C51.5889 15.2334 51.9346 15.1514 52.251 14.9873C52.5674 14.8174 52.8018 14.5918 52.9541 14.3105V12.6758H52.0049C50.7334 12.6758 50.0566 13.1152 49.9746 13.9941L49.9658 14.1436C49.9658 14.46 50.0771 14.7207 50.2998 14.9258C50.5225 15.1309 50.8271 15.2334 51.2139 15.2334ZM60.4951 5.15234V7.49023H62.1211V9.35352H60.4951V14.0996C60.4951 14.4512 60.5625 14.7031 60.6973 14.8555C60.832 15.0078 61.0898 15.084 61.4707 15.084C61.752 15.084 62.001 15.0635 62.2178 15.0225V16.9473C61.7197 17.0996 61.207 17.1758 60.6797 17.1758C58.8984 17.1758 57.9902 16.2764 57.9551 14.4775V9.35352H56.5664V7.49023H57.9551V5.15234H60.4951ZM66.2168 17H63.668V7.49023H66.2168V17ZM63.5186 5.0293C63.5186 4.64844 63.6445 4.33496 63.8965 4.08887C64.1543 3.84277 64.5029 3.71973 64.9424 3.71973C65.376 3.71973 65.7217 3.84277 65.9795 4.08887C66.2373 4.33496 66.3662 4.64844 66.3662 5.0293C66.3662 5.41602 66.2344 5.73242 65.9707 5.97852C65.7129 6.22461 65.3701 6.34766 64.9424 6.34766C64.5146 6.34766 64.1689 6.22461 63.9053 5.97852C63.6475 5.73242 63.5186 5.41602 63.5186 5.0293ZM67.9219 12.1572C67.9219 11.2139 68.1035 10.373 68.4668 9.63477C68.8301 8.89648 69.3516 8.3252 70.0312 7.9209C70.7168 7.5166 71.5107 7.31445 72.4131 7.31445C73.6963 7.31445 74.7422 7.70703 75.5508 8.49219C76.3652 9.27734 76.8193 10.3438 76.9131 11.6914L76.9307 12.3418C76.9307 13.8008 76.5234 14.9727 75.709 15.8574C74.8945 16.7363 73.8018 17.1758 72.4307 17.1758C71.0596 17.1758 69.9639 16.7363 69.1436 15.8574C68.3291 14.9785 67.9219 13.7832 67.9219 12.2715V12.1572ZM70.4619 12.3418C70.4619 13.2441 70.6318 13.9355 70.9717 14.416C71.3115 14.8906 71.7979 15.1279 72.4307 15.1279C73.0459 15.1279 73.5264 14.8936 73.8721 14.4248C74.2178 13.9502 74.3906 13.1943 74.3906 12.1572C74.3906 11.2725 74.2178 10.5869 73.8721 10.1006C73.5264 9.61426 73.04 9.37109 72.4131 9.37109C71.792 9.37109 71.3115 9.61426 70.9717 10.1006C70.6318 10.5811 70.4619 11.3281 70.4619 12.3418ZM80.833 7.49023L80.9121 8.58887C81.5918 7.73926 82.5029 7.31445 83.6455 7.31445C84.6533 7.31445 85.4033 7.61035 85.8955 8.20215C86.3877 8.79395 86.6396 9.67871 86.6514 10.8564V17H84.1113V10.918C84.1113 10.3789 83.9941 9.98926 83.7598 9.74902C83.5254 9.50293 83.1357 9.37988 82.5908 9.37988C81.876 9.37988 81.3398 9.68457 80.9824 10.2939V17H78.4424V7.49023H80.833ZM93.1816 11.7969C93.1816 10.4551 93.3604 9.17773 93.7178 7.96484C94.0752 6.75195 94.6025 5.67969 95.2998 4.74805C95.9971 3.81055 96.7529 3.16016 97.5674 2.79688L98.0596 4.16797C97.2041 4.80078 96.5361 5.7793 96.0557 7.10352C95.5752 8.42773 95.335 9.97461 95.335 11.7441V12.0166C95.335 13.792 95.5723 15.3447 96.0469 16.6748C96.5215 18.0049 97.1924 18.998 98.0596 19.6543L97.5674 20.999C96.7705 20.6416 96.0264 20.0088 95.335 19.1006C94.6494 18.1982 94.125 17.1553 93.7617 15.9717C93.3984 14.7881 93.2051 13.5518 93.1816 12.2627V11.7969ZM108.062 17H99.29V15.2598L103.43 10.8477C103.998 10.2266 104.417 9.68457 104.687 9.22168C104.962 8.75879 105.1 8.31934 105.1 7.90332C105.1 7.33496 104.956 6.88965 104.669 6.56738C104.382 6.23926 103.972 6.0752 103.438 6.0752C102.864 6.0752 102.41 6.27441 102.076 6.67285C101.748 7.06543 101.584 7.58398 101.584 8.22852H99.0352C99.0352 7.44922 99.2197 6.7373 99.5889 6.09277C99.9639 5.44824 100.491 4.94434 101.171 4.58105C101.851 4.21191 102.621 4.02734 103.482 4.02734C104.801 4.02734 105.823 4.34375 106.55 4.97656C107.282 5.60938 107.648 6.50293 107.648 7.65723C107.648 8.29004 107.484 8.93457 107.156 9.59082C106.828 10.2471 106.266 11.0117 105.469 11.8848L102.56 14.9521H108.062V17ZM110.004 10.707L110.742 4.20312H117.914V6.32129H112.825L112.509 9.07227C113.112 8.75 113.754 8.58887 114.434 8.58887C115.652 8.58887 116.607 8.9668 117.299 9.72266C117.99 10.4785 118.336 11.5361 118.336 12.8955C118.336 13.7217 118.16 14.4629 117.809 15.1191C117.463 15.7695 116.965 16.2764 116.314 16.6396C115.664 16.9971 114.896 17.1758 114.012 17.1758C113.238 17.1758 112.521 17.0205 111.858 16.71C111.196 16.3936 110.672 15.9512 110.285 15.3828C109.904 14.8145 109.702 14.167 109.679 13.4404H112.192C112.245 13.9736 112.43 14.3896 112.746 14.6885C113.068 14.9814 113.487 15.1279 114.003 15.1279C114.577 15.1279 115.02 14.9229 115.33 14.5127C115.641 14.0967 115.796 13.5107 115.796 12.7549C115.796 12.0283 115.617 11.4717 115.26 11.085C114.902 10.6982 114.396 10.5049 113.739 10.5049C113.136 10.5049 112.646 10.6631 112.271 10.9795L112.025 11.208L110.004 10.707ZM133.11 12.333C133.11 13.7979 132.776 14.9727 132.108 15.8574C131.446 16.7363 130.55 17.1758 129.419 17.1758C128.458 17.1758 127.682 16.8418 127.09 16.1738V20.6562H124.55V7.49023H126.905L126.993 8.42188C127.608 7.68359 128.411 7.31445 129.401 7.31445C130.573 7.31445 131.484 7.74805 132.135 8.61523C132.785 9.48242 133.11 10.6777 133.11 12.2012V12.333ZM130.57 12.1484C130.57 11.2637 130.412 10.5811 130.096 10.1006C129.785 9.62012 129.331 9.37988 128.733 9.37988C127.937 9.37988 127.389 9.68457 127.09 10.2939V14.1875C127.4 14.8145 127.954 15.1279 128.751 15.1279C129.964 15.1279 130.57 14.1348 130.57 12.1484ZM137.373 17H134.824V3.5H137.373V17ZM144.984 17C144.867 16.7715 144.782 16.4873 144.729 16.1475C144.114 16.833 143.314 17.1758 142.33 17.1758C141.398 17.1758 140.625 16.9062 140.01 16.3672C139.4 15.8281 139.096 15.1484 139.096 14.3281C139.096 13.3203 139.468 12.5469 140.212 12.0078C140.962 11.4688 142.043 11.1963 143.455 11.1904H144.624V10.6455C144.624 10.2061 144.51 9.85449 144.281 9.59082C144.059 9.32715 143.704 9.19531 143.218 9.19531C142.79 9.19531 142.453 9.29785 142.207 9.50293C141.967 9.70801 141.847 9.98926 141.847 10.3467H139.307C139.307 9.7959 139.477 9.28613 139.816 8.81738C140.156 8.34863 140.637 7.98242 141.258 7.71875C141.879 7.44922 142.576 7.31445 143.35 7.31445C144.521 7.31445 145.45 7.61035 146.136 8.20215C146.827 8.78809 147.173 9.61426 147.173 10.6807V14.8027C147.179 15.7051 147.305 16.3877 147.551 16.8506V17H144.984ZM142.884 15.2334C143.259 15.2334 143.604 15.1514 143.921 14.9873C144.237 14.8174 144.472 14.5918 144.624 14.3105V12.6758H143.675C142.403 12.6758 141.727 13.1152 141.645 13.9941L141.636 14.1436C141.636 14.46 141.747 14.7207 141.97 14.9258C142.192 15.1309 142.497 15.2334 142.884 15.2334ZM152.534 13.4053L154.292 7.49023H157.017L153.193 18.4766L152.982 18.9775C152.414 20.2197 151.477 20.8408 150.17 20.8408C149.801 20.8408 149.426 20.7852 149.045 20.6738V18.749L149.432 18.7578C149.912 18.7578 150.27 18.6846 150.504 18.5381C150.744 18.3916 150.932 18.1484 151.066 17.8086L151.365 17.0264L148.034 7.49023H150.768L152.534 13.4053ZM162.272 17.1758C160.878 17.1758 159.741 16.748 158.862 15.8926C157.989 15.0371 157.553 13.8975 157.553 12.4736V12.2275C157.553 11.2725 157.737 10.4199 158.106 9.66992C158.476 8.91406 158.997 8.33398 159.671 7.92969C160.351 7.51953 161.124 7.31445 161.991 7.31445C163.292 7.31445 164.314 7.72461 165.059 8.54492C165.809 9.36523 166.184 10.5283 166.184 12.0342V13.0713H160.128C160.21 13.6924 160.456 14.1904 160.866 14.5654C161.282 14.9404 161.807 15.1279 162.439 15.1279C163.418 15.1279 164.183 14.7734 164.733 14.0645L165.981 15.4619C165.601 16.001 165.085 16.4229 164.435 16.7275C163.784 17.0264 163.063 17.1758 162.272 17.1758ZM161.982 9.37109C161.479 9.37109 161.068 9.54102 160.752 9.88086C160.441 10.2207 160.242 10.707 160.154 11.3398H163.688V11.1377C163.676 10.5752 163.523 10.1416 163.23 9.83691C162.938 9.52637 162.521 9.37109 161.982 9.37109ZM172.978 9.87207C172.632 9.8252 172.327 9.80176 172.063 9.80176C171.103 9.80176 170.473 10.127 170.174 10.7773V17H167.634V7.49023H170.033L170.104 8.62402C170.613 7.75098 171.319 7.31445 172.222 7.31445C172.503 7.31445 172.767 7.35254 173.013 7.42871L172.978 9.87207ZM179.358 14.3721C179.358 14.0615 179.203 13.8184 178.893 13.6426C178.588 13.4609 178.096 13.2998 177.416 13.1592C175.154 12.6846 174.023 11.7236 174.023 10.2764C174.023 9.43262 174.372 8.72949 175.069 8.16699C175.772 7.59863 176.689 7.31445 177.82 7.31445C179.027 7.31445 179.991 7.59863 180.712 8.16699C181.438 8.73535 181.802 9.47363 181.802 10.3818H179.262C179.262 10.0186 179.145 9.71973 178.91 9.48535C178.676 9.24512 178.31 9.125 177.812 9.125C177.384 9.125 177.053 9.22168 176.818 9.41504C176.584 9.6084 176.467 9.85449 176.467 10.1533C176.467 10.4346 176.599 10.6631 176.862 10.8389C177.132 11.0088 177.583 11.1582 178.216 11.2871C178.849 11.4102 179.382 11.5508 179.815 11.709C181.157 12.2012 181.828 13.0537 181.828 14.2666C181.828 15.1338 181.456 15.8369 180.712 16.376C179.968 16.9092 179.007 17.1758 177.829 17.1758C177.032 17.1758 176.323 17.0352 175.702 16.7539C175.087 16.4668 174.604 16.0771 174.252 15.585C173.9 15.0869 173.725 14.5508 173.725 13.9766H176.133C176.156 14.4277 176.323 14.7734 176.634 15.0137C176.944 15.2539 177.36 15.374 177.882 15.374C178.368 15.374 178.734 15.2832 178.98 15.1016C179.232 14.9141 179.358 14.6709 179.358 14.3721ZM187.849 11.999C187.849 13.3232 187.658 14.5977 187.277 15.8223C186.896 17.0469 186.349 18.1279 185.634 19.0654C184.919 20.0029 184.154 20.6475 183.34 20.999L182.848 19.6543C183.68 19.0273 184.336 18.0605 184.816 16.7539C185.297 15.4473 185.546 13.9443 185.563 12.2451V11.7793C185.563 10.0273 185.323 8.4834 184.843 7.14746C184.368 5.81152 183.703 4.80957 182.848 4.1416L183.34 2.79688C184.137 3.14258 184.887 3.76953 185.59 4.67773C186.299 5.58594 186.847 6.64355 187.233 7.85059C187.626 9.05762 187.831 10.3086 187.849 11.6035V11.999Z" transform="translate(-1 283)" fill="black"/>
<path id="Sample (10 players)" d="M8.17285 13.6426C8.17285 13.1445 7.99707 12.7637 7.64551 12.5C7.29395 12.2305 6.66113 11.9492 5.74707 11.6562C4.83301 11.3574 4.10937 11.0645 3.57617 10.7773C2.12305 9.99219 1.39648 8.93457 1.39648 7.60449C1.39648 6.91309 1.58984 6.29785 1.97656 5.75879C2.36914 5.21387 2.92871 4.78906 3.65527 4.48438C4.3877 4.17969 5.20801 4.02734 6.11621 4.02734C7.03027 4.02734 7.84473 4.19434 8.55957 4.52832C9.27441 4.85645 9.82813 5.32227 10.2207 5.92578C10.6191 6.5293 10.8184 7.21484 10.8184 7.98242H8.18164C8.18164 7.39648 7.99707 6.94238 7.62793 6.62012C7.25879 6.29199 6.74023 6.12793 6.07227 6.12793C5.42773 6.12793 4.92676 6.26562 4.56934 6.54102C4.21191 6.81055 4.0332 7.16797 4.0332 7.61328C4.0332 8.0293 4.24121 8.37793 4.65723 8.65918C5.0791 8.94043 5.69727 9.2041 6.51172 9.4502C8.01172 9.90137 9.10449 10.4609 9.79004 11.1289C10.4756 11.7969 10.8184 12.6289 10.8184 13.625C10.8184 14.7324 10.3994 15.6025 9.56152 16.2354C8.72363 16.8623 7.5957 17.1758 6.17773 17.1758C5.19336 17.1758 4.29688 16.9971 3.48828 16.6396C2.67969 16.2764 2.06152 15.7812 1.63379 15.1543C1.21191 14.5273 1.00098 13.8008 1.00098 12.9746H3.64648C3.64648 14.3867 4.49023 15.0928 6.17773 15.0928C6.80469 15.0928 7.29395 14.9668 7.64551 14.7148C7.99707 14.457 8.17285 14.0996 8.17285 13.6426ZM17.9551 17C17.8379 16.7715 17.7529 16.4873 17.7002 16.1475C17.085 16.833 16.2852 17.1758 15.3008 17.1758C14.3691 17.1758 13.5957 16.9062 12.9805 16.3672C12.3711 15.8281 12.0664 15.1484 12.0664 14.3281C12.0664 13.3203 12.4385 12.5469 13.1826 12.0078C13.9326 11.4688 15.0137 11.1963 16.4258 11.1904H17.5947V10.6455C17.5947 10.2061 17.4805 9.85449 17.252 9.59082C17.0293 9.32715 16.6748 9.19531 16.1885 9.19531C15.7607 9.19531 15.4238 9.29785 15.1777 9.50293C14.9375 9.70801 14.8174 9.98926 14.8174 10.3467H12.2773C12.2773 9.7959 12.4473 9.28613 12.7871 8.81738C13.127 8.34863 13.6074 7.98242 14.2285 7.71875C14.8496 7.44922 15.5469 7.31445 16.3203 7.31445C17.4922 7.31445 18.4209 7.61035 19.1064 8.20215C19.7979 8.78809 20.1436 9.61426 20.1436 10.6807V14.8027C20.1494 15.7051 20.2754 16.3877 20.5215 16.8506V17H17.9551ZM15.8545 15.2334C16.2295 15.2334 16.5752 15.1514 16.8916 14.9873C17.208 14.8174 17.4424 14.5918 17.5947 14.3105V12.6758H16.6455C15.374 12.6758 14.6973 13.1152 14.6152 13.9941L14.6064 14.1436C14.6064 14.46 14.7178 14.7207 14.9404 14.9258C15.1631 15.1309 15.4678 15.2334 15.8545 15.2334ZM24.4766 7.49023L24.5557 8.55371C25.2295 7.72754 26.1406 7.31445 27.2891 7.31445C28.5137 7.31445 29.3545 7.79785 29.8115 8.76465C30.4795 7.79785 31.4316 7.31445 32.668 7.31445C33.6992 7.31445 34.4668 7.61621 34.9707 8.21973C35.4746 8.81738 35.7266 9.71973 35.7266 10.9268V17H33.1777V10.9355C33.1777 10.3965 33.0723 10.0039 32.8613 9.75781C32.6504 9.50586 32.2783 9.37988 31.7451 9.37988C30.9834 9.37988 30.4561 9.74316 30.1631 10.4697L30.1719 17H27.6318V10.9443C27.6318 10.3936 27.5234 9.99512 27.3066 9.74902C27.0898 9.50293 26.7207 9.37988 26.1992 9.37988C25.4785 9.37988 24.957 9.67871 24.6348 10.2764V17H22.0947V7.49023H24.4766ZM46.2471 12.333C46.2471 13.7979 45.9131 14.9727 45.2451 15.8574C44.583 16.7363 43.6865 17.1758 42.5557 17.1758C41.5947 17.1758 40.8184 16.8418 40.2266 16.1738V20.6562H37.6865V7.49023H40.042L40.1299 8.42188C40.7451 7.68359 41.5479 7.31445 42.5381 7.31445C43.71 7.31445 44.6211 7.74805 45.2715 8.61523C45.9219 9.48242 46.2471 10.6777 46.2471 12.2012V12.333ZM43.707 12.1484C43.707 11.2637 43.5488 10.5811 43.2324 10.1006C42.9219 9.62012 42.4678 9.37988 41.8701 9.37988C41.0732 9.37988 40.5254 9.68457 40.2266 10.2939V14.1875C40.5371 14.8145 41.0908 15.1279 41.8877 15.1279C43.1006 15.1279 43.707 14.1348 43.707 12.1484ZM50.5098 17H47.9609V3.5H50.5098V17ZM56.9873 17.1758C55.5928 17.1758 54.4561 16.748 53.5771 15.8926C52.7041 15.0371 52.2676 13.8975 52.2676 12.4736V12.2275C52.2676 11.2725 52.4521 10.4199 52.8213 9.66992C53.1904 8.91406 53.7119 8.33398 54.3857 7.92969C55.0654 7.51953 55.8389 7.31445 56.7061 7.31445C58.0068 7.31445 59.0293 7.72461 59.7734 8.54492C60.5234 9.36523 60.8984 10.5283 60.8984 12.0342V13.0713H54.8428C54.9248 13.6924 55.1709 14.1904 55.5811 14.5654C55.9971 14.9404 56.5215 15.1279 57.1543 15.1279C58.1328 15.1279 58.8975 14.7734 59.4482 14.0645L60.6963 15.4619C60.3154 16.001 59.7998 16.4229 59.1494 16.7275C58.499 17.0264 57.7783 17.1758 56.9873 17.1758ZM56.6973 9.37109C56.1934 9.37109 55.7832 9.54102 55.4668 9.88086C55.1562 10.2207 54.957 10.707 54.8691 11.3398H58.4023V11.1377C58.3906 10.5752 58.2383 10.1416 57.9453 9.83691C57.6523 9.52637 57.2363 9.37109 56.6973 9.37109ZM66.9453 11.7969C66.9453 10.4551 67.124 9.17773 67.4814 7.96484C67.8389 6.75195 68.3662 5.67969 69.0635 4.74805C69.7607 3.81055 70.5166 3.16016 71.3311 2.79688L71.8232 4.16797C70.9678 4.80078 70.2998 5.7793 69.8193 7.10352C69.3389 8.42773 69.0986 9.97461 69.0986 11.7441V12.0166C69.0986 13.792 69.3359 15.3447 69.8105 16.6748C70.2852 18.0049 70.9561 18.998 71.8232 19.6543L71.3311 20.999C70.5342 20.6416 69.79 20.0088 69.0986 19.1006C68.4131 18.1982 67.8887 17.1553 67.5254 15.9717C67.1621 14.7881 66.9687 13.5518 66.9453 12.2627V11.7969ZM79.2236 17H76.6836V7.20898L73.6514 8.14941V6.08398L78.9512 4.18555H79.2236V17ZM92.0029 11.709C92.0029 13.4785 91.6367 14.832 90.9043 15.7695C90.1719 16.707 89.0996 17.1758 87.6875 17.1758C86.293 17.1758 85.2266 16.7158 84.4883 15.7959C83.75 14.876 83.3721 13.5576 83.3545 11.8408V9.48535C83.3545 7.69824 83.7236 6.3418 84.4619 5.41602C85.2061 4.49023 86.2754 4.02734 87.6699 4.02734C89.0645 4.02734 90.1309 4.48731 90.8691 5.40723C91.6074 6.32129 91.9854 7.63672 92.0029 9.35352V11.709ZM89.4629 9.125C89.4629 8.06445 89.3164 7.29394 89.0234 6.81348C88.7363 6.32715 88.2852 6.08398 87.6699 6.08398C87.0723 6.08398 86.6299 6.31543 86.3428 6.77832C86.0615 7.23535 85.9121 7.95312 85.8945 8.93164V12.043C85.8945 13.0859 86.0352 13.8623 86.3164 14.3721C86.6035 14.876 87.0605 15.1279 87.6875 15.1279C88.3086 15.1279 88.7568 14.8848 89.0322 14.3984C89.3076 13.9121 89.4512 13.168 89.4629 12.166V9.125ZM106.874 12.333C106.874 13.7979 106.54 14.9727 105.872 15.8574C105.21 16.7363 104.313 17.1758 103.183 17.1758C102.222 17.1758 101.445 16.8418 100.854 16.1738V20.6562H98.3135V7.49023H100.669L100.757 8.42188C101.372 7.68359 102.175 7.31445 103.165 7.31445C104.337 7.31445 105.248 7.74805 105.898 8.61523C106.549 9.48242 106.874 10.6777 106.874 12.2012V12.333ZM104.334 12.1484C104.334 11.2637 104.176 10.5811 103.859 10.1006C103.549 9.62012 103.095 9.37988 102.497 9.37988C101.7 9.37988 101.152 9.68457 100.854 10.2939V14.1875C101.164 14.8145 101.718 15.1279 102.515 15.1279C103.728 15.1279 104.334 14.1348 104.334 12.1484ZM111.137 17H108.588V3.5H111.137V17ZM118.748 17C118.631 16.7715 118.546 16.4873 118.493 16.1475C117.878 16.833 117.078 17.1758 116.094 17.1758C115.162 17.1758 114.389 16.9062 113.773 16.3672C113.164 15.8281 112.859 15.1484 112.859 14.3281C112.859 13.3203 113.231 12.5469 113.976 12.0078C114.726 11.4688 115.807 11.1963 117.219 11.1904H118.388V10.6455C118.388 10.2061 118.273 9.85449 118.045 9.59082C117.822 9.32715 117.468 9.19531 116.981 9.19531C116.554 9.19531 116.217 9.29785 115.971 9.50293C115.73 9.70801 115.61 9.98926 115.61 10.3467H113.07C113.07 9.7959 113.24 9.28613 113.58 8.81738C113.92 8.34863 114.4 7.98242 115.021 7.71875C115.643 7.44922 116.34 7.31445 117.113 7.31445C118.285 7.31445 119.214 7.61035 119.899 8.20215C120.591 8.78809 120.937 9.61426 120.937 10.6807V14.8027C120.942 15.7051 121.068 16.3877 121.314 16.8506V17H118.748ZM116.647 15.2334C117.022 15.2334 117.368 15.1514 117.685 14.9873C118.001 14.8174 118.235 14.5918 118.388 14.3105V12.6758H117.438C116.167 12.6758 115.49 13.1152 115.408 13.9941L115.399 14.1436C115.399 14.46 115.511 14.7207 115.733 14.9258C115.956 15.1309 116.261 15.2334 116.647 15.2334ZM126.298 13.4053L128.056 7.49023H130.78L126.957 18.4766L126.746 18.9775C126.178 20.2197 125.24 20.8408 123.934 20.8408C123.564 20.8408 123.189 20.7852 122.809 20.6738V18.749L123.195 18.7578C123.676 18.7578 124.033 18.6846 124.268 18.5381C124.508 18.3916 124.695 18.1484 124.83 17.8086L125.129 17.0264L121.798 7.49023H124.531L126.298 13.4053ZM136.036 17.1758C134.642 17.1758 133.505 16.748 132.626 15.8926C131.753 15.0371 131.316 13.8975 131.316 12.4736V12.2275C131.316 11.2725 131.501 10.4199 131.87 9.66992C132.239 8.91406 132.761 8.33398 133.435 7.92969C134.114 7.51953 134.888 7.31445 135.755 7.31445C137.056 7.31445 138.078 7.72461 138.822 8.54492C139.572 9.36523 139.947 10.5283 139.947 12.0342V13.0713H133.892C133.974 13.6924 134.22 14.1904 134.63 14.5654C135.046 14.9404 135.57 15.1279 136.203 15.1279C137.182 15.1279 137.946 14.7734 138.497 14.0645L139.745 15.4619C139.364 16.001 138.849 16.4229 138.198 16.7275C137.548 17.0264 136.827 17.1758 136.036 17.1758ZM135.746 9.37109C135.242 9.37109 134.832 9.54102 134.516 9.88086C134.205 10.2207 134.006 10.707 133.918 11.3398H137.451V11.1377C137.439 10.5752 137.287 10.1416 136.994 9.83691C136.701 9.52637 136.285 9.37109 135.746 9.37109ZM146.741 9.87207C146.396 9.8252 146.091 9.80176 145.827 9.80176C144.866 9.80176 144.236 10.127 143.938 10.7773V17H141.397V7.49023H143.797L143.867 8.62402C144.377 7.75098 145.083 7.31445 145.985 7.31445C146.267 7.31445 146.53 7.35254 146.776 7.42871L146.741 9.87207ZM153.122 14.3721C153.122 14.0615 152.967 13.8184 152.656 13.6426C152.352 13.4609 151.859 13.2998 151.18 13.1592C148.918 12.6846 147.787 11.7236 147.787 10.2764C147.787 9.43262 148.136 8.72949 148.833 8.16699C149.536 7.59863 150.453 7.31445 151.584 7.31445C152.791 7.31445 153.755 7.59863 154.476 8.16699C155.202 8.73535 155.565 9.47363 155.565 10.3818H153.025C153.025 10.0186 152.908 9.71973 152.674 9.48535C152.439 9.24512 152.073 9.125 151.575 9.125C151.147 9.125 150.816 9.22168 150.582 9.41504C150.348 9.6084 150.23 9.85449 150.23 10.1533C150.23 10.4346 150.362 10.6631 150.626 10.8389C150.896 11.0088 151.347 11.1582 151.979 11.2871C152.612 11.4102 153.146 11.5508 153.579 11.709C154.921 12.2012 155.592 13.0537 155.592 14.2666C155.592 15.1338 155.22 15.8369 154.476 16.376C153.731 16.9092 152.771 17.1758 151.593 17.1758C150.796 17.1758 150.087 17.0352 149.466 16.7539C148.851 16.4668 148.367 16.0771 148.016 15.585C147.664 15.0869 147.488 14.5508 147.488 13.9766H149.896C149.92 14.4277 150.087 14.7734 150.397 15.0137C150.708 15.2539 151.124 15.374 151.646 15.374C152.132 15.374 152.498 15.2832 152.744 15.1016C152.996 14.9141 153.122 14.6709 153.122 14.3721ZM161.612 11.999C161.612 13.3232 161.422 14.5977 161.041 15.8223C160.66 17.0469 160.112 18.1279 159.397 19.0654C158.683 20.0029 157.918 20.6475 157.104 20.999L156.611 19.6543C157.443 19.0273 158.1 18.0605 158.58 16.7539C159.061 15.4473 159.31 13.9443 159.327 12.2451V11.7793C159.327 10.0273 159.087 8.4834 158.606 7.14746C158.132 5.81152 157.467 4.80957 156.611 4.1416L157.104 2.79688C157.9 3.14258 158.65 3.76953 159.354 4.67773C160.062 5.58594 160.61 6.64355 160.997 7.85059C161.39 9.05762 161.595 10.3086 161.612 11.6035V11.999Z" transform="translate(417 283)" fill="black"/>
<path id="Legend" d="M34.875 10.0801H38.8008L38.6367 11H33.6094L35.0918 2.46875H36.1992L34.875 10.0801ZM42.5156 11.1172C41.7266 11.1016 41.1094 10.8105 40.6641 10.2441C40.2188 9.67773 40.0312 8.95312 40.1016 8.07031L40.1309 7.81836C40.1973 7.18945 40.3828 6.61523 40.6875 6.0957C40.9961 5.57617 41.3711 5.18555 41.8125 4.92383C42.2539 4.6582 42.7305 4.53125 43.2422 4.54297C43.8945 4.55859 44.4063 4.77539 44.7773 5.19336C45.1484 5.61133 45.3516 6.17773 45.3867 6.89258C45.3984 7.14648 45.3906 7.40039 45.3633 7.6543L45.2988 8.14062H41.1562C41.0859 8.71484 41.1797 9.20313 41.4375 9.60547C41.6992 10.0078 42.0879 10.2168 42.6035 10.2324C43.2285 10.248 43.8066 9.9668 44.3379 9.38867L44.9473 9.9043C44.6816 10.2871 44.3379 10.5879 43.916 10.8066C43.498 11.0215 43.0312 11.125 42.5156 11.1172ZM43.1895 5.42773C42.752 5.41602 42.3691 5.56445 42.041 5.87305C41.7168 6.18164 41.459 6.64062 41.2676 7.25L44.3496 7.25586L44.373 7.16211C44.4355 6.66992 44.3555 6.26172 44.1328 5.9375C43.9141 5.60938 43.5996 5.43945 43.1895 5.42773ZM46.3066 7.81836C46.4004 7.12695 46.5859 6.52734 46.8633 6.01953C47.1445 5.50781 47.4844 5.13086 47.8828 4.88867C48.2852 4.64258 48.7246 4.52539 49.2012 4.53711C49.9355 4.55273 50.4902 4.83008 50.8652 5.36914L51.0762 4.66016H52.0488L50.9941 10.8652C50.8809 11.6738 50.5527 12.3203 50.0098 12.8047C49.4668 13.293 48.7969 13.5254 48 13.502C47.5703 13.4941 47.1582 13.3926 46.7637 13.1973C46.373 13.002 46.0645 12.7344 45.8379 12.3945L46.4414 11.7441C46.8242 12.3105 47.3301 12.6016 47.959 12.6172C48.4629 12.6328 48.8887 12.4922 49.2363 12.1953C49.5879 11.8984 49.8203 11.4766 49.9336 10.9297L50.0508 10.3672C49.5352 10.8828 48.9316 11.1328 48.2402 11.1172C47.8457 11.1055 47.502 11 47.209 10.8008C46.9199 10.5977 46.6953 10.3066 46.5352 9.92773C46.375 9.54492 46.2871 9.11914 46.2715 8.65039C46.2637 8.41992 46.2754 8.14258 46.3066 7.81836ZM47.332 8.42188C47.3203 8.98047 47.416 9.41406 47.6191 9.72266C47.8262 10.0273 48.1367 10.1875 48.5508 10.2031C49.1836 10.2188 49.7285 9.9082 50.1855 9.27148L50.6836 6.35938C50.4492 5.78125 50.0254 5.48047 49.4121 5.45703C48.8379 5.44141 48.3652 5.67578 47.9941 6.16016C47.627 6.64453 47.4102 7.29883 47.3438 8.12305L47.332 8.42188ZM55.3359 11.1172C54.5469 11.1016 53.9297 10.8105 53.4844 10.2441C53.0391 9.67773 52.8516 8.95312 52.9219 8.07031L52.9512 7.81836C53.0176 7.18945 53.2031 6.61523 53.5078 6.0957C53.8164 5.57617 54.1914 5.18555 54.6328 4.92383C55.0742 4.6582 55.5508 4.53125 56.0625 4.54297C56.7148 4.55859 57.2266 4.77539 57.5977 5.19336C57.9687 5.61133 58.1719 6.17773 58.207 6.89258C58.2188 7.14648 58.2109 7.40039 58.1836 7.6543L58.1191 8.14062H53.9766C53.9062 8.71484 54 9.20313 54.2578 9.60547C54.5195 10.0078 54.9082 10.2168 55.4238 10.2324C56.0488 10.248 56.627 9.9668 57.1582 9.38867L57.7676 9.9043C57.502 10.2871 57.1582 10.5879 56.7363 10.8066C56.3184 11.0215 55.8516 11.125 55.3359 11.1172ZM56.0098 5.42773C55.5723 5.41602 55.1895 5.56445 54.8613 5.87305C54.5371 6.18164 54.2793 6.64062 54.0879 7.25L57.1699 7.25586L57.1934 7.16211C57.2559 6.66992 57.1758 6.26172 56.9531 5.9375C56.7344 5.60938 56.4199 5.43945 56.0098 5.42773ZM60.9199 4.6543L60.7676 5.45703C61.3379 4.83203 61.9863 4.52734 62.7129 4.54297C63.3105 4.55859 63.752 4.76562 64.0371 5.16406C64.3223 5.5625 64.4277 6.12305 64.3535 6.8457L63.6621 11H62.6016L63.2988 6.82812C63.3223 6.63672 63.3242 6.45898 63.3047 6.29492C63.2383 5.74805 62.916 5.46875 62.3379 5.45703C61.7012 5.44531 61.1426 5.78516 60.6621 6.47656L59.877 11H58.8164L59.918 4.66016L60.9199 4.6543ZM65.6016 7.81836C65.6797 7.17383 65.8574 6.5918 66.1348 6.07227C66.4121 5.55273 66.7539 5.16406 67.1602 4.90625C67.5664 4.64844 68.0137 4.52539 68.502 4.53711C69.209 4.55273 69.752 4.81055 70.1309 5.31055L70.7402 2H71.8008L70.2422 11H69.2754L69.3867 10.3203C68.8867 10.8672 68.2695 11.1328 67.5352 11.1172C66.9492 11.1016 66.4824 10.873 66.1348 10.4316C65.7871 9.98633 65.5996 9.39063 65.5723 8.64453C65.5605 8.41406 65.5703 8.13867 65.6016 7.81836ZM66.6211 8.42773C66.6094 8.98633 66.709 9.41992 66.9199 9.72852C67.1309 10.0371 67.4395 10.1953 67.8457 10.2031C68.459 10.2305 69.0039 9.92188 69.4805 9.27734L69.9844 6.34766C69.75 5.76953 69.3242 5.47266 68.707 5.45703C68.2891 5.44531 67.9199 5.57227 67.5996 5.83789C67.2832 6.09961 67.041 6.46875 66.873 6.94531C66.709 7.41797 66.625 7.91211 66.6211 8.42773Z" transform="translate(243 -2)" fill="black"/>
</svg>
